ply
format ascii 1.0
element vertex 145
property float x
property float y
property float z
property float s
property float t
element face 132
property list uchar int vertex_indices
end_header
-0.795779 0.250791 0.200816 0.0260417 0.850407
-0.791242 0.250144 0.21279 0.0290833 0.850407
-0.789194 0.250283 0.225408 0.032125 0.850407
-0.799373 0.237563 0.202127 0.0260417 0.847704
-0.793657 0.236602 0.213801 0.0290833 0.847704
-0.791411 0.236674 0.22636 0.032125 0.847704
-0.800525 0.223612 0.20282 0.0260417 0.845
-0.796809 0.223269 0.21501 0.0290833 0.845
-0.796749 0.223951 0.228207 0.032125 0.845
-0.801989 0.209792 0.203591 0.0260417 0.842296
-0.799363 0.209755 0.216058 0.0290833 0.842296
-0.800358 0.210672 0.22956 0.032125 0.842296
-0.804103 0.196166 0.204526 0.0260417 0.839593
-0.80094 0.196 0.216842 0.0290833 0.839593
-0.799943 0.196365 0.229758 0.032125 0.839593
-0.807219 0.18278 0.205717 0.0260417 0.836889
-0.803405 0.182479 0.217866 0.0290833 0.836889
-0.799315 0.182113 0.229892 0.032125 0.836889
-0.811719 0.169661 0.207261 0.0260417 0.834185
-0.808726 0.169556 0.219665 0.0290833 0.834185
-0.811867 0.155638 0.207694 0.0260417 0.831482
-0.810274 0.15581 0.220441 0.0290833 0.831482
-0.683836 0.498121 0.183859 0.927083 0.84863
-0.684529 0.500032 0.194266 0.930125 0.84863
-0.684124 0.501149 0.204423 0.933167 0.84863
-0.69555 0.489746 0.188055 0.927083 0.845926
-0.695921 0.491374 0.198441 0.930125 0.845926
-0.693005 0.490684 0.20791 0.933167 0.845926
-0.706034 0.480316 0.19193 0.927083 0.843222
-0.70504 0.480964 0.201976 0.930125 0.843222
-0.701388 0.479798 0.21125 0.933167 0.843222
-0.714318 0.469288 0.195213 0.927083 0.840519
-0.71398 0.470348 0.205465 0.930125 0.840519
-0.709591 0.468738 0.214538 0.933167 0.840519
-0.718784 0.455791 0.197446 0.927083 0.837815
-0.720535 0.458137 0.208268 0.930125 0.837815
-0.712515 0.454268 0.216227 0.933167 0.837815
-0.721279 0.440851 0.196001 0.927083 0.835111
-0.72308 0.443499 0.209901 0.930125 0.835111
-0.715038 0.439745 0.217784 0.933167 0.835111
-0.727978 0.428625 0.195718 0.927083 0.832408
-0.724235 0.427898 0.207993 0.930125 0.832408
-0.729979 0.384016 0.203138 0.698875 0.858889
-0.726259 0.383346 0.215075 0.701917 0.858889
-0.729608 0.367495 0.188151 0.695833 0.856185
-0.729958 0.368892 0.201053 0.698875 0.856185
-0.73008 0.370184 0.213986 0.701917 0.856185
-0.737887 0.35676 0.188365 0.695833 0.853481
-0.738026 0.357999 0.201216 0.698875 0.853481
-0.739193 0.359748 0.214454 0.701917 0.853481
-0.748199 0.346933 0.189087 0.695833 0.850778
-0.747319 0.347653 0.201706 0.698875 0.850778
-0.748416 0.3493 0.214945 0.701917 0.850778
-0.757529 0.336559 0.18955 0.695833 0.848074
-0.756161 0.337034 0.202065 0.698875 0.848074
-0.757466 0.338707 0.215377 0.701917 0.848074
-0.76299 0.32454 0.190178 0.695833 0.84537
-0.761508 0.324946 0.20267 0.698875 0.84537
-0.764183 0.327135 0.216371 0.701917 0.84537
-0.695206 -0.114713 0.475697 0.319792 0.878333
-0.684543 -0.114209 0.485 0.322833 0.878333
-0.678889 -0.114539 0.497826 0.325875 0.878333
-0.690803 -0.127745 0.472087 0.319792 0.87563
-0.682208 -0.127562 0.482795 0.322833 0.87563
-0.676889 -0.127995 0.495854 0.325875 0.87563
-0.687218 -0.140845 0.46904 0.319792 0.872926
-0.680483 -0.141024 0.481022 0.322833 0.872926
-0.674308 -0.141324 0.493457 0.325875 0.872926
-0.686031 -0.154416 0.46763 0.319792 0.870222
-0.679013 -0.15455 0.479429 0.322833 0.870222
-0.672979 -0.154913 0.491977 0.325875 0.870222
-0.685002 -0.168054 0.466326 0.319792 0.867519
-0.677234 -0.168017 0.477617 0.322833 0.867519
-0.670216 -0.168166 0.489448 0.325875 0.867519
-0.683693 -0.181654 0.464833 0.319792 0.864815
-0.676235 -0.181698 0.476355 0.322833 0.864815
-0.670127 -0.18211 0.488871 0.325875 0.864815
-0.689805 -0.0203688 0.52655 0.648958 0.903481
-0.678351 -0.0202564 0.535094 0.652 0.903481
-0.685236 -0.0338167 0.522611 0.648958 0.900778
-0.675363 -0.0337064 0.532337 0.652 0.900778
-0.682535 -0.0472881 0.520101 0.648958 0.898074
-0.672718 -0.0471365 0.529851 0.652 0.898074
-0.680752 -0.0608094 0.518289 0.648958 0.89537
-0.701098 -0.0338427 0.500059 0.647917 0.914592
-0.692947 -0.0338191 0.511179 0.650958 0.914592
-0.685236 -0.0338167 0.522611 0.654 0.914592
-0.700274 -0.0474529 0.498925 0.647917 0.911889
-0.69099 -0.047343 0.509237 0.650958 0.911889
-0.682535 -0.0472881 0.520101 0.654 0.911889
-0.69796 -0.0609753 0.496728 0.647917 0.909185
-0.688353 -0.0608047 0.506794 0.650958 0.909185
-0.680752 -0.0608094 0.518289 0.654 0.909185
-0.695132 -0.0744268 0.494167 0.647917 0.906481
-0.685913 -0.0742586 0.504496 0.650958 0.906481
-0.678579 -0.074293 0.516182 0.654 0.906481
-0.690803 -0.127745 0.472087 0.344708 0.923
-0.697298 -0.141348 0.459302 0.341667 0.920296
-0.687218 -0.140845 0.46904 0.344708 0.920296
-0.696153 -0.154976 0.457902 0.341667 0.917592
-0.686031 -0.154416 0.46763 0.344708 0.917592
-0.676889 -0.127995 0.495854 0.965625 0.923926
-0.672392 -0.128594 0.509653 0.968667 0.923926
-0.674308 -0.141324 0.493457 0.965625 0.921222
-0.66927 -0.141872 0.506826 0.968667 0.921222
-0.672979 -0.154913 0.491977 0.965625 0.918518
-0.667975 -0.155525 0.505384 0.968667 0.918518
-0.673359 0.310266 0.405957 0.474917 0.931333
-0.668605 0.31127 0.417644 0.477958 0.931333
-0.683298 0.297574 0.398156 0.471875 0.92863
-0.675383 0.297137 0.407915 0.474917 0.92863
-0.668826 0.297295 0.41848 0.477958 0.92863
-0.685716 0.28458 0.400342 0.471875 0.925926
-0.677131 0.283885 0.409706 0.474917 0.925926
-0.696231 -0.0203318 0.514102 0.201042 0.945296
-0.689805 -0.0203688 0.52655 0.204083 0.945296
-0.692947 -0.0338191 0.511179 0.201042 0.942592
-0.685236 -0.0338167 0.522611 0.204083 0.942592
-0.499816 -0.692914 0.149833 0.323958 0.950852
-0.497564 -0.692439 0.159329 0.327 0.950852
-0.492252 -0.687685 0.167768 0.330042 0.950852
-0.486921 -0.682868 0.176059 0.333083 0.950852
-0.48279 -0.679703 0.184666 0.336125 0.950852
-0.481343 -0.680307 0.194261 0.339167 0.950852
-0.492155 -0.704874 0.146311 0.323958 0.948148
-0.488503 -0.702388 0.155425 0.327 0.948148
-0.483373 -0.697747 0.163964 0.330042 0.948148
-0.477165 -0.691508 0.171979 0.333083 0.948148
-0.473141 -0.688397 0.180644 0.336125 0.948148
-0.51018 -0.682295 0.144017 0.7645 0.950852
-0.510284 -0.684989 0.154188 0.767542 0.950852
-0.51152 -0.703758 0.132666 0.761458 0.948148
-0.504042 -0.696111 0.140874 0.7645 0.948148
-0.499816 -0.692914 0.149833 0.767542 0.948148
-0.502106 -0.679094 0.1719 0.773875 0.950852
-0.498318 -0.676523 0.180733 0.776917 0.950852
-0.497564 -0.692439 0.159329 0.770833 0.948148
-0.492252 -0.687685 0.167768 0.773875 0.948148
-0.486921 -0.682868 0.176059 0.776917 0.948148
-0.791411 0.236674 0.22636 0.0541667 0.958259
-0.788821 0.236642 0.238824 0.0572083 0.958259
-0.796749 0.223951 0.228207 0.0541667 0.955556
-0.660826 -0.0333581 0.538149 0.704167 0.961963
-0.654951 -0.0334441 0.550876 0.707208 0.961963
-0.658979 -0.0467034 0.536295 0.704167 0.95926
3 16 17 19
3 13 14 16
3 10 11 13
3 13 11 14
3 7 8 10
3 10 8 11
3 4 5 7
3 7 5 8
3 1 2 4
3 4 2 5
3 18 19 20
3 20 19 21
3 15 16 18
3 18 16 19
3 12 13 15
3 15 13 16
3 9 10 12
3 12 10 13
3 6 7 9
3 9 7 10
3 3 4 6
3 6 4 7
3 0 1 3
3 3 1 4
3 38 39 41
3 35 36 38
3 38 36 39
3 32 33 35
3 35 33 36
3 29 30 32
3 32 30 33
3 26 27 29
3 29 27 30
3 37 38 40
3 40 38 41
3 34 35 37
3 37 35 38
3 31 32 34
3 34 32 35
3 28 29 31
3 31 29 32
3 25 26 28
3 28 26 29
3 22 23 25
3 25 23 26
3 23 24 26
3 26 24 27
3 54 55 57
3 57 55 58
3 51 52 54
3 54 52 55
3 48 49 51
3 51 49 52
3 45 46 48
3 53 54 56
3 56 54 57
3 50 51 53
3 53 51 54
3 50 48 51
3 47 45 48
3 44 45 47
3 44 42 45
3 42 43 45
3 45 43 46
3 72 73 75
3 75 73 76
3 69 70 72
3 72 70 73
3 66 67 69
3 69 67 70
3 63 64 66
3 66 64 67
3 71 72 74
3 74 72 75
3 68 69 71
3 71 69 72
3 65 66 68
3 68 66 69
3 62 63 65
3 65 63 66
3 59 60 62
3 62 60 63
3 60 61 63
3 63 61 64
3 81 82 83
3 79 80 81
3 81 80 82
3 77 78 79
3 79 78 80
3 91 92 94
3 94 92 95
3 88 89 91
3 91 89 92
3 85 86 88
3 88 86 89
3 90 91 93
3 93 91 94
3 87 88 90
3 90 88 91
3 84 85 87
3 87 85 88
3 97 98 99
3 99 98 100
3 97 96 98
3 103 104 105
3 105 104 106
3 101 102 103
3 103 102 104
3 110 111 113
3 107 108 110
3 110 108 111
3 109 110 112
3 112 110 113
3 109 107 110
3 114 115 116
3 116 115 117
3 118 119 124
3 119 120 125
3 125 120 126
3 120 121 126
3 126 121 127
3 121 122 127
3 127 122 128
3 122 123 128
3 131 129 132
3 129 130 132
3 132 130 133
3 136 134 137
3 134 135 137
3 137 135 138
3 139 140 141
3 142 143 144
