ply
format ascii 1.0
element vertex 459
property float x
property float y
property float z
property float s
property float t
element face 433
property list uchar int vertex_indices
end_header
-10.8136 2.13798 14.24 0.598958 0.63663
-9.32611 1.88604 12.7044 0.602 0.63663
-9.02612 1.54092 11.8756 0.598958 0.633926
-8.70412 1.51979 11.8452 0.602 0.633926
-8.43816 1.50768 11.8822 0.605042 0.633926
-8.82904 1.27069 11.606 0.598958 0.631222
-8.59039 1.26439 11.6787 0.602 0.631222
-8.46962 1.27556 11.9132 0.605042 0.631222
-9.34755 1.44123 13.609 0.608083 0.631222
-8.87471 1.0412 11.6558 0.598958 0.628519
-8.633 1.03574 11.725 0.602 0.628519
-8.44245 1.0363 11.8618 0.605042 0.628519
-8.56935 1.07677 12.4607 0.608083 0.628519
-9.05637 0.82338 11.884 0.598958 0.625815
-8.74477 0.812953 11.8651 0.602 0.625815
-8.4906 0.807508 11.9163 0.605042 0.625815
-8.38245 0.816021 12.174 0.608083 0.625815
-9.38489 0.607244 12.3045 0.598958 0.623111
-8.9666 0.593195 12.1542 0.602 0.623111
-8.56944 0.579931 12.0138 0.605042 0.623111
-8.32708 0.576766 12.0789 0.608083 0.623111
-9.1348 0.353351 11.9663 0.598958 0.620407
-8.95763 0.354242 12.1302 0.602 0.620407
-8.56651 0.34652 11.9967 0.605042 0.620407
-8.32517 0.344637 12.0616 0.608083 0.620407
-8.94925 0.114974 11.7132 0.598958 0.617704
-8.77202 0.115207 11.8674 0.602 0.617704
-8.54879 0.114832 11.9589 0.605042 0.617704
-8.36063 0.114922 12.0985 0.608083 0.617704
-8.9904 -0.115407 11.7523 0.598958 0.615
-8.74446 -0.114748 11.8151 0.602 0.615
-8.54823 -0.114725 11.9428 0.605042 0.615
-8.41596 -0.11558 12.1628 0.608083 0.615
-9.00566 -0.347488 11.7527 0.598958 0.612296
-8.72896 -0.344321 11.7756 0.602 0.612296
-8.54284 -0.344663 11.9175 0.605042 0.612296
-8.42875 -0.347995 12.1641 0.608083 0.612296
-8.92826 -0.575296 11.6323 0.598958 0.609592
-8.73699 -0.575547 11.7678 0.602 0.609592
-8.58064 -0.578164 11.9523 0.605042 0.609592
-8.37341 -0.577394 12.0672 0.608083 0.609592
-8.90067 -0.804504 11.5769 0.598958 0.606889
-8.79737 -0.812965 11.8302 0.602 0.606889
-8.81265 -0.833024 12.257 0.605042 0.606889
-8.455 -0.817945 12.1675 0.608083 0.606889
-8.89416 -1.03564 11.5489 0.598958 0.604185
-8.82698 -1.05087 11.8511 0.602 0.604185
-9.05961 -1.10331 12.5813 0.605042 0.604185
-8.53551 -1.0639 12.2658 0.608083 0.604185
-8.86835 -1.2646 11.4959 0.598958 0.601481
-8.75428 -1.27639 11.7345 0.602 0.601481
-8.93089 -1.33208 12.3837 0.605042 0.601481
-8.56142 -1.30702 12.2853 0.608083 0.601481
-8.83527 -1.4919 11.4335 0.598958 0.598778
-8.6699 -1.49694 11.6026 0.602 0.598778
-8.61745 -1.52217 11.9307 0.605042 0.598778
-8.38494 -1.51603 12.0147 0.608083 0.598778
-8.83401 -1.72459 11.4122 0.598958 0.596074
-8.62802 -1.72238 11.5277 0.602 0.596074
-8.44845 -1.72547 11.6787 0.605042 0.596074
-8.31458 -1.73826 11.8966 0.608083 0.596074
-8.95919 -1.98617 11.554 0.598958 0.59337
-8.66859 -1.96519 11.563 0.602 0.59337
-8.45273 -1.96059 11.6665 0.605042 0.59337
-8.65199 -2.05433 12.3613 0.608083 0.59337
-9.28799 -2.30977 11.9879 0.598958 0.590667
-8.77542 -2.22799 11.6862 0.602 0.590667
-8.54613 -2.22007 11.7771 0.605042 0.590667
-10.3351 -2.85123 13.3506 0.598958 0.587963
-9.17267 -2.5837 12.2267 0.602 0.587963
-8.76842 -2.52284 12.0644 0.605042 0.587963
-8.32708 0.576766 12.0789 0.0697917 0.775111
-8.23003 0.583755 12.3576 0.0728333 0.775111
-8.32517 0.344637 12.0616 0.0697917 0.772407
-8.17543 0.346547 12.2593 0.0728333 0.772407
-8.36063 0.114922 12.0985 0.0697917 0.769704
-8.40517 0.118291 12.5872 0.0728333 0.769704
-8.41596 -0.11558 12.1628 0.0697917 0.767
-9.36121 -0.131627 14.0005 0.0728333 0.767
-8.42875 -0.347995 12.1641 0.0697917 0.764296
-9.58778 -0.405305 14.3205 0.0728333 0.764296
-8.37341 -0.577394 12.0672 0.0697917 0.761592
-8.7296 -0.616368 13.0214 0.0728333 0.761592
-8.455 -0.817945 12.1675 0.0697917 0.758889
-8.43752 -0.83584 12.569 0.0728333 0.758889
-8.53551 -1.0639 12.2658 0.0697917 0.756185
-8.17909 -1.04399 12.1677 0.0728333 0.756185
-8.56142 -1.30702 12.2853 0.0697917 0.753481
-8.13965 -1.27258 12.0927 0.0728333 0.753481
-8.38494 -1.51603 12.0147 0.0697917 0.750778
-8.09003 -1.49803 12.0026 0.0728333 0.750778
-8.31458 -1.73826 11.8966 0.0697917 0.748074
-8.16758 -1.74886 12.1012 0.0728333 0.748074
-8.65199 -2.05433 12.3613 0.0697917 0.74537
-8.95091 -2.17686 13.2436 0.0728333 0.74537
-11.8147 2.28484 15.0456 0.688542 0.791852
-10.8136 2.13798 14.24 0.691583 0.791852
-11.6973 1.95344 14.8846 0.688542 0.789148
-9.02612 1.54092 11.8756 0.691583 0.789148
-9.88383 1.39162 12.5673 0.688542 0.786445
-8.82904 1.27069 11.606 0.691583 0.786445
-9.1283 1.04779 11.5977 0.688542 0.783741
-8.87471 1.0412 11.6558 0.691583 0.783741
-9.23418 0.821455 11.7233 0.688542 0.781037
-9.05637 0.82338 11.884 0.691583 0.781037
-9.4962 0.601253 12.0468 0.688542 0.778333
-9.38489 0.607244 12.3045 0.691583 0.778333
-9.2439 0.349921 11.718 0.688542 0.77563
-9.1348 0.353351 11.9663 0.691583 0.77563
-9.14599 0.114997 11.5852 0.688542 0.772926
-8.94925 0.114974 11.7132 0.691583 0.772926
-9.56016 -0.120107 12.0948 0.688542 0.770222
-8.9904 -0.115407 11.7523 0.691583 0.770222
-10.0392 -0.3791 12.6787 0.688542 0.767518
-9.00566 -0.347488 11.7527 0.691583 0.767518
-9.42626 -0.594396 11.8838 0.688542 0.764815
-8.92826 -0.575296 11.6323 0.691583 0.764815
-9.58778 -0.405305 14.3205 0.892708 0.840222
-10.652 -0.461315 16.4736 0.89575 0.840222
-8.7296 -0.616368 13.0214 0.892708 0.837518
-11.5191 -0.833277 17.7926 0.89575 0.837518
-8.43752 -0.83584 12.569 0.892708 0.834815
-11.9172 -1.20957 18.3847 0.89575 0.834815
-8.17909 -1.04399 12.1677 0.892708 0.832111
-9.07792 -1.18726 13.987 0.89575 0.832111
-8.13965 -1.27258 12.0927 0.892708 0.829407
-8.13189 -1.30276 12.5136 0.89575 0.829407
-8.09003 -1.49803 12.0026 0.892708 0.826704
-8.02468 -1.5227 12.3331 0.89575 0.826704
-8.16758 -1.74886 12.1012 0.892708 0.824
-8.24949 -1.81021 12.6624 0.89575 0.824
-8.95091 -2.17686 13.2436 0.892708 0.821296
-9.30136 -2.31833 14.2587 0.89575 0.821296
-11.5105 -1.25753 13.5484 0.3895 0.860667
-10.0465 -1.12065 12.2148 0.392542 0.860667
-9.08598 -1.03527 11.4144 0.395583 0.860667
-8.89416 -1.03564 11.5489 0.398625 0.860667
-14.1126 -1.85263 16.0927 0.386458 0.857963
-10.2633 -1.37298 12.0569 0.3895 0.857963
-9.34608 -1.27661 11.342 0.392542 0.857963
-9.05073 -1.26285 11.3499 0.395583 0.857963
-8.86835 -1.2646 11.4959 0.398625 0.857963
-13.9296 -2.16837 15.8906 0.386458 0.855259
-9.85713 -1.56375 11.5857 0.3895 0.855259
-9.23541 -1.49368 11.1867 0.392542 0.855259
-9.03162 -1.49219 11.3057 0.395583 0.855259
-8.83527 -1.4919 11.4335 0.398625 0.855259
-13.1334 -2.36692 14.9885 0.386458 0.852556
-9.91647 -1.82144 11.6614 0.3895 0.852556
-9.2394 -1.73027 11.1984 0.392542 0.852556
-9.06679 -1.73182 11.3293 0.395583 0.852556
-8.83401 -1.72459 11.4122 0.398625 0.852556
-13.2067 -2.70663 15.0785 0.386458 0.849852
-10.0014 -2.08917 11.7673 0.3895 0.849852
-9.46759 -2.01649 11.4821 0.392542 0.849852
-9.37196 -2.03608 11.719 0.395583 0.849852
-8.95919 -1.98617 11.554 0.398625 0.849852
-11.9112 -2.73761 13.6052 0.386458 0.847148
-10.1617 -2.38062 11.9622 0.3895 0.847148
-10.8765 -2.59827 13.199 0.392542 0.847148
-10.9842 -2.6767 13.7449 0.395583 0.847148
-9.28799 -2.30977 11.9879 0.398625 0.847148
-11.81 -3.01032 13.4953 0.386458 0.844444
-13.9924 1.88814 16.6622 0.580208 0.861593
-10.8794 1.49926 13.3849 0.58325 0.861593
-9.88383 1.39162 12.5673 0.586292 0.861593
-17.4271 1.91745 20.7409 0.580208 0.858889
-10.1178 1.13679 12.4397 0.58325 0.858889
-9.1283 1.04779 11.5977 0.586292 0.858889
-13.5123 1.15237 16.0728 0.580208 0.856185
-9.59024 0.835134 11.7834 0.58325 0.856185
-9.23418 0.821455 11.7233 0.586292 0.856185
-10.0295 0.608872 11.9236 0.580208 0.853482
-9.35865 0.580089 11.4913 0.58325 0.853482
-9.4962 0.601253 12.0468 0.586292 0.853482
-9.62341 0.349339 11.4346 0.580208 0.850778
-9.31284 0.345146 11.4277 0.58325 0.850778
-9.2439 0.349921 11.718 0.586292 0.850778
-10.2467 0.123567 12.1686 0.580208 0.848074
-9.35804 0.115207 11.4758 0.58325 0.848074
-9.14599 0.114997 11.5852 0.586292 0.848074
-14.1068 -0.169986 16.7325 0.580208 0.845371
-10.0655 -0.123818 12.3282 0.58325 0.845371
-9.56016 -0.120107 12.0948 0.586292 0.845371
-10.5583 2.09295 11.4285 0.916667 0.867222
-10.6678 2.15731 11.9237 0.919708 0.867222
-10.0918 2.08283 11.6509 0.92275 0.867222
-10.0984 1.76051 10.928 0.916667 0.864518
-9.98511 1.77575 11.1567 0.919708 0.864518
-9.95411 1.80655 11.4867 0.92275 0.864518
-10.001 1.50613 10.8199 0.916667 0.861815
-9.76391 1.49989 10.9058 0.919708 0.861815
-10.3341 1.61994 11.9199 0.92275 0.861815
-11.1033 1.41028 12.0095 0.916667 0.859111
-9.97495 1.29227 11.1376 0.919708 0.859111
-12.2193 1.61528 14.0879 0.92275 0.859111
-14.5741 1.50966 15.7598 0.916667 0.856407
-10.891 1.1506 12.1563 0.919708 0.856407
-16.6777 1.79773 19.2196 0.92275 0.856407
-12.1485 0.975598 13.1336 0.916667 0.853704
-11.0973 0.908861 12.3823 0.919708 0.853704
-14.7469 1.2322 16.9869 0.92275 0.853704
-11.9172 -1.20957 18.3847 0.288542 0.892296
-12.1168 -1.26082 19.3678 0.291583 0.892296
-9.07792 -1.18726 13.987 0.288542 0.889593
-12.9989 -1.74302 20.7537 0.291583 0.889593
-8.13189 -1.30276 12.5136 0.288542 0.886889
-11.6425 -1.91241 18.5666 0.291583 0.886889
-8.02468 -1.5227 12.3331 0.288542 0.884185
-10.4608 -2.03534 16.6625 0.291583 0.884185
-8.24949 -1.81021 12.6624 0.288542 0.881481
-9.94049 -2.23675 15.815 0.291583 0.881481
-9.12903 2.93152 11.2846 0.600875 0.892296
-8.78255 2.88305 11.2286 0.603917 0.892296
-8.56681 2.87627 11.3326 0.606958 0.892296
-9.59213 2.76363 11.4611 0.597833 0.889593
-8.99774 2.64864 11.1146 0.600875 0.889593
-8.77995 2.64186 11.2163 0.603917 0.889593
-8.62519 2.65417 11.3993 0.606958 0.889593
-10.1908 2.61601 11.776 0.594792 0.886889
-9.26089 2.42763 11.059 0.597833 0.886889
-8.99836 2.40981 11.1078 0.600875 0.886889
-8.85024 2.42253 11.2971 0.603917 0.886889
-8.78439 2.45885 11.5991 0.606958 0.886889
-10.3135 2.38717 11.9124 0.594792 0.884185
-9.34196 2.2079 11.1494 0.597833 0.884185
-9.04015 2.1826 11.1518 0.600875 0.884185
-9.01738 2.22505 11.5013 0.603917 0.884185
-9.60211 2.42268 12.6674 0.606958 0.884185
-10.0918 2.08283 11.6509 0.594792 0.881482
-9.36011 1.97243 11.1648 0.597833 0.881482
-9.45288 2.03474 11.6531 0.600875 0.881482
-9.74926 2.14458 12.4251 0.603917 0.881482
0.865485 3.98117 21.6518 0.797833 0.900704
0.601 4.20693 25.2181 0.794792 0.898
0.900265 3.78106 22.5936 0.797833 0.898
0.576001 3.64796 24.2455 0.794792 0.895296
0.805273 3.05999 20.2737 0.797833 0.895296
0.428491 2.42808 18.0932 0.794792 0.892593
3.5605 2.13627 17.4746 0.838542 0.900704
4.33777 2.40983 19.6485 0.841583 0.900704
3.50947 1.8249 17.28 0.838542 0.898
4.41275 2.12462 20.0531 0.841583 0.898
4.75755 2.13266 20.0637 0.844625 0.898
3.59648 1.58243 17.7657 0.838542 0.895296
4.72215 1.92381 21.5287 0.841583 0.895296
5.26954 1.99876 22.2952 0.844625 0.895296
4.15069 1.49422 20.5694 0.838542 0.892593
5.90682 1.96891 27.0168 0.841583 0.892593
-8.67483 2.40535 13.1505 0.979083 0.906259
-9.62735 2.7372 15.128 0.982125 0.906259
-9.32849 2.72127 15.2022 0.985167 0.906259
-8.21158 1.9801 12 0.976042 0.903556
-7.97974 1.97162 12.0799 0.979083 0.903556
-7.90249 2.00186 12.3987 0.982125 0.903556
-7.80912 2.02949 12.705 0.985167 0.903556
-8.17138 1.73169 11.9262 0.976042 0.900852
-7.97153 1.7308 12.0508 0.979083 0.900852
-7.80362 1.73697 12.225 0.982125 0.900852
-7.784 1.77732 12.6432 0.985167 0.900852
-8.8686 1.6224 12.9277 0.976042 0.898148
-8.71386 1.63306 13.155 0.979083 0.898148
-11.839 2.58037 12.4149 0.988542 0.906259
-11.5001 2.55621 12.451 0.991583 0.906259
-10.6249 2.06532 11.14 0.988542 0.903556
-10.5583 2.09295 11.4285 0.991583 0.903556
-10.7846 1.8438 11.3058 0.988542 0.900852
-10.0984 1.76051 10.928 0.991583 0.900852
-10.7718 1.59097 11.2907 0.988542 0.898148
-10.001 1.50613 10.8199 0.991583 0.898148
3.33803 2.4672 17.8073 0.929167 0.907185
3.66771 2.494 17.9424 0.932208 0.907185
3.02758 1.97448 16.2036 0.929167 0.904482
3.5605 2.13627 17.4746 0.932208 0.904482
3.07 1.73519 16.4837 0.929167 0.901778
3.50947 1.8249 17.28 0.932208 0.901778
3.13718 1.50036 16.8986 0.929167 0.899074
3.59648 1.58243 17.7657 0.932208 0.899074
11.7171 3.8535 9.78298 0.657292 0.914592
11.5538 3.75465 9.32666 0.660333 0.914592
12.8845 3.95226 10.764 0.657292 0.911889
11.4055 3.45715 9.21346 0.660333 0.911889
13.4265 3.82309 11.2233 0.657292 0.909185
11.9998 3.37652 9.7003 0.660333 0.909185
15.4458 4.06025 12.9188 0.657292 0.906481
14.2991 3.71457 11.567 0.660333 0.906481
-10.3341 1.61994 11.9199 0.966667 0.915518
-10.8746 1.74024 12.9567 0.969708 0.915518
-12.2193 1.61528 14.0879 0.966667 0.912815
-13.9924 1.88814 16.6622 0.969708 0.912815
-16.6777 1.79773 19.2196 0.966667 0.910111
-17.4271 1.91745 20.7409 0.969708 0.910111
-14.7469 1.2322 16.9869 0.966667 0.907407
-13.5123 1.15237 16.0728 0.969708 0.907407
12.7003 5.48924 9.94626 0.453125 0.922074
11.3135 4.83646 8.57868 0.456167 0.922074
11.1229 4.70368 8.16344 0.459208 0.922074
12.183 4.98947 9.5238 0.453125 0.91937
11.1686 4.5243 8.45417 0.456167 0.91937
11.172 4.47699 8.18595 0.459208 0.91937
11.4072 4.41513 8.90122 0.453125 0.916666
11.319 4.33353 8.55324 0.456167 0.916666
-32.8112 -0.387456 37.7001 0.0885417 0.922074
-14.1068 -0.169986 16.7325 0.0915833 0.922074
-52.129 -1.85004 59.7773 0.0885417 0.91937
-23.3385 -0.845228 27.6297 0.0915833 0.91937
-21.3634 -1.26591 24.449 0.0885417 0.916666
-10.4515 -23.8135 15.1999 0.207292 0.923
-13.4036 -31.3897 20.285 0.210333 0.923
-11.6246 -28.0029 18.3187 0.213375 0.923
-8.72423 -21.6355 14.3251 0.216417 0.923
-27.244 -63.7055 39.2328 0.207292 0.920296
-62.2354 -149.639 93.3299 0.210333 0.920296
-33.3296 -82.4683 52.0831 0.213375 0.920296
-17.1726 -43.7632 27.9824 0.216417 0.920296
-22.3745 -53.6986 31.8915 0.207292 0.917592
-40.2775 -99.4395 59.8292 0.210333 0.917592
-25.2546 -64.1923 39.1207 0.213375 0.917592
-18.5082 -48.4762 29.9194 0.216417 0.917592
1.66679 7.29174 16.1844 0.655125 0.923
1.68269 6.37982 14.1157 0.658167 0.923
1.81013 9.05664 21.0392 0.652083 0.920296
1.72824 7.3166 16.9441 0.655125 0.920296
1.76078 6.46047 14.9147 0.658167 0.920296
1.38593 6.63258 16.0905 0.652083 0.917592
1.76232 7.14449 17.2788 0.655125 0.917592
2.31525 8.14142 19.6288 0.658167 0.917592
-8.65058 -2.30054 12.3411 0.1875 0.931333
-8.92692 -2.43174 13.1899 0.190542 0.931333
-9.57901 -2.67438 14.6655 0.193583 0.931333
-8.60865 -2.53578 12.2631 0.1875 0.92863
-8.44843 -2.54921 12.4656 0.190542 0.92863
-8.94999 -2.76799 13.6847 0.193583 0.92863
-9.00391 -2.91102 12.8071 0.1875 0.925926
-8.85942 -2.93423 13.0538 0.190542 0.925926
-10.051 3.39847 10.5479 0.512417 0.931333
-11.3289 3.48604 11.5111 0.509375 0.92863
-10.2096 3.20351 10.7126 0.512417 0.92863
-12.6555 3.59425 12.8584 0.509375 0.925926
-10.7477 3.11237 11.2755 0.512417 0.925926
0.971997 -1.05206 19.2344 0.590625 0.931333
1.22375 -1.01169 18.4388 0.593667 0.931333
0.962572 -1.33954 18.9887 0.590625 0.92863
1.13079 -1.22394 17.3 0.593667 0.92863
1.09292 -1.85891 21.4928 0.590625 0.925926
1.12834 -1.49268 17.2085 0.593667 0.925926
3.78871 11.7867 18.8497 0.353042 0.933185
3.41392 9.77107 15.5719 0.356083 0.933185
4.6731 15.5142 25.8254 0.35 0.930481
5.12382 15.5314 25.7653 0.353042 0.930481
3.55073 9.90198 16.3701 0.356083 0.930481
5.52117 17.8472 30.8345 0.35 0.927778
4.81722 14.2177 24.4804 0.353042 0.927778
3.3756 9.1658 15.7282 0.356083 0.927778
1.75938 3.38337 16.6594 0.974917 0.934111
1.85156 3.87139 20.8539 0.971875 0.931408
1.89179 3.34695 17.971 0.974917 0.931408
1.7416 3.32483 19.6784 0.971875 0.928704
1.81007 2.92392 17.2502 0.974917 0.928704
3.36139 5.97269 15.4849 0.617625 0.939667
3.8555 7.01588 19.1554 0.614583 0.936963
3.2072 5.4129 14.7325 0.617625 0.936963
4.63558 7.99155 22.9553 0.614583 0.934259
3.65074 5.84 16.7227 0.617625 0.934259
-8.17543 0.346547 12.2593 0.360417 0.941519
-8.00551 0.347673 12.4305 0.363458 0.941519
-8.40517 0.118291 12.5872 0.360417 0.938815
-8.44174 0.12171 13.0889 0.363458 0.938815
-9.36121 -0.131627 14.0005 0.360417 0.936111
-11.9779 -0.739484 14.617 0.391667 0.941518
-9.42626 -0.594396 11.8838 0.394708 0.941518
-8.92826 -0.575296 11.6323 0.39775 0.941518
-11.5699 -1.0019 14.0931 0.391667 0.938815
-9.16373 -0.810535 11.5325 0.394708 0.938815
-8.90067 -0.804504 11.5769 0.39775 0.938815
-10.0465 -1.12065 12.2148 0.391667 0.936111
-9.08598 -1.03527 11.4144 0.394708 0.936111
-8.89416 -1.03564 11.5489 0.39775 0.936111
-3.73139 -3.33855 24.2527 0.416583 0.941518
-3.36424 -3.36418 24.5177 0.419625 0.941518
-4.78932 -4.33312 27.9828 0.413542 0.938815
-4.61794 -4.61786 29.9184 0.416583 0.938815
-3.89044 -4.34806 28.2614 0.419625 0.938815
-4.66183 -4.66174 27.1496 0.413542 0.936111
-4.63997 -5.12829 29.9639 0.416583 0.936111
-4.03719 -4.98703 29.233 0.419625 0.936111
3.88379 -3.53775 18.6207 0.441583 0.941518
3.90354 -4.22508 20.4645 0.438542 0.938815
4.13218 -4.11613 19.8713 0.441583 0.938815
3.4985 -4.08961 18.2808 0.438542 0.936111
4.22322 -4.57108 20.3708 0.441583 0.936111
-18.1736 27.4834 12.3773 0.673958 0.945296
-12.1797 18.6454 8.62118 0.677 0.945296
-8.98664 13.9285 6.60762 0.680042 0.945296
-14.6101 21.3367 9.85987 0.673958 0.942593
-16.0612 23.7376 11.2579 0.677 0.942593
-11.9612 17.8928 8.70346 0.680042 0.942593
-29.1727 7.2286 9.83961 0.213542 0.945296
-38.3014 9.52048 13.5659 0.216583 0.945296
-19.1782 4.78214 7.11889 0.219625 0.945296
-22.9477 5.27741 7.74552 0.213542 0.942593
-30.0604 6.93488 10.6527 0.216583 0.942593
-13.7393 2.72607 5.81894 0.247917 0.945296
-13.3246 2.66987 5.89581 0.250958 0.945296
-13.5644 2.44956 5.74445 0.247917 0.942593
-13.2543 2.41712 5.86353 0.250958 0.942593
0.865485 3.98117 21.6518 0.260417 0.945296
1.36248 4.47666 24.2691 0.263458 0.945296
0.900265 3.78106 22.5936 0.260417 0.942593
1.24194 3.72576 22.1925 0.263458 0.942593
1.89179 3.34695 17.971 0.279167 0.945296
2.37418 3.64035 19.4834 0.282208 0.945296
1.81007 2.92392 17.2502 0.279167 0.942593
3.01043 2.15027 17.7033 0.332292 0.945296
3.02758 1.97448 16.2036 0.335333 0.945296
2.97235 1.83999 17.5356 0.332292 0.942592
3.07 1.73519 16.4837 0.335333 0.942592
-8.03208 0.376556 13.8897 0.75625 0.945296
-11.6026 0.558753 20.8213 0.759292 0.945296
-7.63686 0.11882 13.1819 0.75625 0.942592
-9.52219 0.152168 17.0539 0.759292 0.942592
1.0762 -0.476775 20.4557 0.812417 0.945296
1.29793 -0.443897 18.9863 0.815458 0.945296
0.588879 -0.637386 16.4118 0.809375 0.942592
0.901171 -0.680692 17.4728 0.812417 0.942592
1.21333 -0.703823 18.0105 0.815458 0.942592
-17.1726 -43.7632 27.9824 0.755208 0.950852
-10.4475 -27.4467 17.7651 0.75825 0.950852
-18.5082 -48.4762 29.9194 0.755208 0.948148
-14.4677 -39.0833 24.4256 0.75825 0.948148
-24.3598 -18.2873 11.859 0.780208 0.950852
-22.7899 -17.2545 11.4798 0.78325 0.950852
-19.9916 -15.5369 9.74867 0.780208 0.948148
-10.4515 -23.8135 15.1999 0.7895 0.950852
-16.5967 -37.7706 22.9644 0.786458 0.948148
-27.244 -63.7055 39.2328 0.7895 0.948148
-8.86887 3.15595 11.3482 0.316583 0.961963
-9.12903 2.93152 11.2846 0.313542 0.959259
-8.78255 2.88305 11.2286 0.316583 0.959259
3.2072 5.4129 14.7325 0.669792 0.961963
3.18769 5.01617 13.6099 0.672833 0.961963
3.65074 5.84 16.7227 0.669792 0.95926
1.12024 4.961 19.6996 0.688542 0.961963
1.49705 5.15642 20.4094 0.691583 0.961963
1.13276 4.69281 19.9841 0.688542 0.95926
4.41976 3.85051 18.4787 0.744792 0.961963
5.83671 4.77734 22.8563 0.747833 0.961963
6.92519 5.34491 25.4932 0.750875 0.961963
4.48531 3.57604 18.7109 0.744792 0.95926
6.01586 4.50759 23.5131 0.747833 0.95926
7.76833 5.4902 28.5509 0.750875 0.95926
-10.7718 1.59097 11.2907 0.841583 0.961963
-10.001 1.50613 10.8199 0.844625 0.961963
-12.7334 1.55639 12.9331 0.838542 0.95926
-11.6705 1.45386 12.2309 0.841583 0.95926
-11.1033 1.41028 12.0095 0.844625 0.95926
1.24577 -1.34839 15.5 0.107208 0.963815
1.12446 -1.75801 17.0955 0.104167 0.961111
1.34478 -1.7202 16.6793 0.107208 0.961111
3 63 64 67
3 59 60 63
3 63 60 64
3 55 56 59
3 59 56 60
3 51 52 55
3 55 52 56
3 47 48 51
3 51 48 52
3 43 44 47
3 47 44 48
3 39 40 43
3 43 40 44
3 35 36 39
3 39 36 40
3 31 32 35
3 35 32 36
3 27 28 31
3 31 28 32
3 23 24 27
3 27 24 28
3 19 20 23
3 23 20 24
3 15 16 19
3 19 16 20
3 66 67 69
3 69 67 70
3 62 63 66
3 66 63 67
3 58 59 62
3 62 59 63
3 54 55 58
3 58 55 59
3 50 51 54
3 54 51 55
3 46 47 50
3 50 47 51
3 42 43 46
3 46 43 47
3 38 39 42
3 42 39 43
3 34 35 38
3 38 35 39
3 30 31 34
3 34 31 35
3 26 27 30
3 30 27 31
3 22 23 26
3 26 23 27
3 18 19 22
3 22 19 23
3 65 66 68
3 68 66 69
3 61 62 65
3 65 62 66
3 57 58 61
3 61 58 62
3 53 54 57
3 57 54 58
3 49 50 53
3 53 50 54
3 45 46 49
3 49 46 50
3 41 42 45
3 45 42 46
3 37 38 41
3 41 38 42
3 33 34 37
3 37 34 38
3 29 30 33
3 33 30 34
3 25 26 29
3 29 26 30
3 21 22 25
3 25 22 26
3 17 18 21
3 21 18 22
3 13 14 17
3 17 14 18
3 9 10 13
3 13 10 14
3 5 6 9
3 9 6 10
3 2 3 5
3 5 3 6
3 0 1 2
3 2 1 3
3 3 4 6
3 6 4 7
3 6 7 10
3 10 7 11
3 10 11 14
3 14 11 15
3 14 15 18
3 18 15 19
3 7 8 11
3 11 8 12
3 11 12 15
3 15 12 16
3 91 92 93
3 93 92 94
3 89 90 91
3 91 90 92
3 87 88 89
3 89 88 90
3 85 86 87
3 87 86 88
3 83 84 85
3 85 84 86
3 81 82 83
3 83 82 84
3 79 80 81
3 81 80 82
3 77 78 79
3 79 78 80
3 75 76 77
3 77 76 78
3 73 74 75
3 75 74 76
3 71 72 73
3 73 72 74
3 113 114 115
3 115 114 116
3 111 112 113
3 113 112 114
3 109 110 111
3 111 110 112
3 107 108 109
3 109 108 110
3 105 106 107
3 107 106 108
3 103 104 105
3 105 104 106
3 101 102 103
3 103 102 104
3 99 100 101
3 101 100 102
3 97 98 99
3 99 98 100
3 95 96 97
3 97 96 98
3 129 130 131
3 131 130 132
3 127 128 129
3 129 128 130
3 125 126 127
3 127 126 128
3 123 124 125
3 125 124 126
3 121 122 123
3 123 122 124
3 119 120 121
3 121 120 122
3 117 118 119
3 119 118 120
3 155 156 160
3 160 156 161
3 150 151 155
3 155 151 156
3 145 146 150
3 150 146 151
3 140 141 145
3 145 141 146
3 135 136 140
3 140 136 141
3 154 155 159
3 159 155 160
3 149 150 154
3 154 150 155
3 144 145 149
3 149 145 150
3 139 140 144
3 144 140 145
3 134 135 139
3 139 135 140
3 153 154 158
3 158 154 159
3 148 149 153
3 153 149 154
3 143 144 148
3 148 144 149
3 138 139 143
3 143 139 144
3 133 134 138
3 138 134 139
3 157 158 162
3 152 153 157
3 157 153 158
3 147 148 152
3 152 148 153
3 142 143 147
3 147 143 148
3 137 138 142
3 142 138 143
3 137 133 138
3 179 180 182
3 182 180 183
3 176 177 179
3 179 177 180
3 173 174 176
3 176 174 177
3 170 171 173
3 173 171 174
3 167 168 170
3 170 168 171
3 178 179 181
3 181 179 182
3 175 176 178
3 178 176 179
3 172 173 175
3 175 173 176
3 169 170 172
3 172 170 173
3 166 167 169
3 169 167 170
3 163 164 166
3 166 164 167
3 164 165 167
3 167 165 168
3 197 198 200
3 200 198 201
3 194 195 197
3 197 195 198
3 191 192 194
3 194 192 195
3 188 189 191
3 191 189 192
3 196 197 199
3 199 197 200
3 193 194 196
3 196 194 197
3 190 191 193
3 193 191 194
3 187 188 190
3 190 188 191
3 184 185 187
3 187 185 188
3 185 186 188
3 188 186 189
3 208 209 210
3 210 209 211
3 206 207 208
3 208 207 209
3 204 205 206
3 206 205 207
3 202 203 204
3 204 203 205
3 215 212 216
3 212 213 216
3 216 213 217
3 213 214 217
3 217 214 218
3 227 228 232
3 222 223 227
3 227 223 228
3 217 218 222
3 222 218 223
3 226 227 231
3 231 227 232
3 221 222 226
3 226 222 227
3 216 217 221
3 221 217 222
3 225 226 230
3 230 226 231
3 220 221 225
3 225 221 226
3 215 216 220
3 220 216 221
3 224 225 229
3 229 225 230
3 219 220 224
3 224 220 225
3 219 215 220
3 236 237 238
3 234 235 236
3 236 235 237
3 234 233 235
3 245 246 248
3 242 243 245
3 245 243 246
3 244 245 247
3 247 245 248
3 241 242 244
3 244 242 245
3 239 240 241
3 254 255 258
3 258 255 259
3 250 251 254
3 254 251 255
3 257 258 261
3 253 254 257
3 257 254 258
3 249 250 253
3 253 250 254
3 256 257 260
3 260 257 261
3 252 253 256
3 256 253 257
3 252 249 253
3 266 267 268
3 268 267 269
3 264 265 266
3 266 265 267
3 262 263 264
3 264 263 265
3 274 275 276
3 276 275 277
3 272 273 274
3 274 273 275
3 270 271 272
3 272 271 273
3 282 283 284
3 284 283 285
3 280 281 282
3 282 281 283
3 278 279 280
3 280 279 281
3 290 291 292
3 292 291 293
3 288 289 290
3 290 289 291
3 286 287 288
3 298 299 301
3 295 296 298
3 298 296 299
3 297 298 300
3 300 298 301
3 294 295 297
3 297 295 298
3 304 305 306
3 302 303 304
3 304 303 305
3 313 314 317
3 317 314 318
3 309 310 313
3 313 310 314
3 312 313 316
3 316 313 317
3 308 309 312
3 312 309 313
3 311 312 315
3 315 312 316
3 307 308 311
3 311 308 312
3 322 323 325
3 325 323 326
3 319 320 322
3 322 320 323
3 321 322 324
3 324 322 325
3 321 319 322
3 331 332 334
3 328 329 331
3 331 329 332
3 330 331 333
3 333 331 334
3 327 328 330
3 330 328 331
3 338 337 339
3 336 335 337
3 342 343 344
3 344 343 345
3 340 341 342
3 342 341 343
3 349 350 352
3 352 350 353
3 346 347 349
3 349 347 350
3 348 349 351
3 351 349 352
3 348 346 349
3 355 356 357
3 357 356 358
3 355 354 356
3 360 361 362
3 362 361 363
3 360 359 361
3 366 367 368
3 364 365 366
3 366 365 367
3 373 374 376
3 376 374 377
3 370 371 373
3 373 371 374
3 372 373 375
3 375 373 376
3 369 370 372
3 372 370 373
3 381 382 384
3 384 382 385
3 378 379 381
3 381 379 382
3 380 381 383
3 383 381 384
3 380 378 381
3 387 388 389
3 389 388 390
3 387 386 388
3 391 392 394
3 394 392 395
3 392 393 395
3 395 393 396
3 397 398 400
3 400 398 401
3 398 399 401
3 402 403 404
3 404 403 405
3 406 407 408
3 408 407 409
3 410 411 412
3 413 414 415
3 415 414 416
3 417 418 419
3 419 418 420
3 423 421 424
3 421 422 424
3 424 422 425
3 426 427 428
3 428 427 429
3 430 431 432
3 434 433 435
3 437 436 438
3 439 440 441
3 442 443 444
3 445 446 448
3 448 446 449
3 446 447 449
3 449 447 450
3 453 451 454
3 451 452 454
3 454 452 455
3 457 456 458
