ply
format ascii 1.0
element vertex 180
property float x
property float y
property float z
property float s
property float t
element face 170
property list uchar int vertex_indices
end_header
-0.743929 0.16897 0.201737 0.355208 0.842926
-0.739686 0.168527 0.212742 0.35825 0.842926
-0.740165 0.155182 0.201043 0.355208 0.840222
-0.738057 0.155218 0.212563 0.35825 0.840222
-0.740313 0.142357 0.201408 0.355208 0.837519
-0.737573 0.142267 0.21271 0.35825 0.837519
-0.743497 0.130137 0.202597 0.355208 0.834815
-0.739846 0.129896 0.213652 0.35825 0.834815
-0.746987 0.117935 0.203872 0.355208 0.832111
-0.743833 0.117797 0.215089 0.35825 0.832111
-0.752721 0.106007 0.205759 0.355208 0.829408
-0.747385 0.105577 0.216401 0.35825 0.829408
-0.762739 0.094469 0.207813 0.355208 0.826704
-0.749221 0.0931004 0.217216 0.35825 0.826704
-0.76625 0.0819806 0.208086 0.355208 0.824
-0.752095 0.0807304 0.217333 0.35825 0.824
-0.770276 0.0695051 0.208497 0.355208 0.821296
-0.756728 0.0685061 0.217956 0.35825 0.821296
-0.658889 0.405213 0.200683 0.135417 0.860666
-0.65111 0.401508 0.207663 0.138458 0.860666
-0.672322 0.398607 0.205499 0.135417 0.857963
-0.659143 0.391836 0.210848 0.138458 0.857963
-0.65651 0.391314 0.219391 0.1415 0.857963
-0.681488 0.388952 0.206093 0.135417 0.855259
-0.663279 0.379865 0.212781 0.138458 0.855259
-0.66021 0.379109 0.221148 0.1415 0.855259
-0.686155 0.376742 0.205329 0.135417 0.852555
-0.67024 0.36926 0.212752 0.138458 0.852555
-0.667192 0.36884 0.223998 0.1415 0.852555
-0.69508 0.366888 0.205841 0.135417 0.849852
-0.677177 0.358646 0.212716 0.138458 0.849852
-0.675243 0.358833 0.224333 0.1415 0.849852
-0.694088 0.351934 0.203436 0.135417 0.847148
-0.683787 0.34787 0.212579 0.138458 0.847148
-0.681135 0.347683 0.223951 0.1415 0.847148
-0.697033 0.33923 0.202223 0.135417 0.844444
-0.691483 0.337642 0.212779 0.138458 0.844444
-0.650602 -0.0816474 0.446292 0.367542 0.860667
-0.645214 -0.0818667 0.458168 0.370583 0.860667
-0.638951 -0.0819785 0.469486 0.373625 0.860667
-0.661825 -0.0940322 0.422435 0.361458 0.857963
-0.65324 -0.0938192 0.432083 0.3645 0.857963
-0.6484 -0.0941455 0.444228 0.367542 0.857963
-0.642178 -0.0942759 0.4555 0.370583 0.857963
-0.63665 -0.0945123 0.467325 0.373625 0.857963
-0.657148 -0.1061 0.418815 0.361458 0.855259
-0.650874 -0.10623 0.429924 0.3645 0.855259
-0.647334 -0.106814 0.44294 0.367542 0.855259
-0.640603 -0.106878 0.453868 0.370583 0.855259
-0.635358 -0.107195 0.465905 0.373625 0.855259
-0.654506 -0.118421 0.416495 0.361458 0.852556
-0.648947 -0.118696 0.428054 0.3645 0.852556
-0.645547 -0.119376 0.441159 0.367542 0.852556
-0.639516 -0.11958 0.452582 0.370583 0.852556
-0.635574 -0.120182 0.465589 0.373625 0.852556
-0.651473 -0.13063 0.413929 0.361458 0.849852
-0.646967 -0.131145 0.42615 0.3645 0.849852
-0.644047 -0.131997 0.439575 0.367542 0.849852
-0.638135 -0.132248 0.451087 0.370583 0.849852
-0.634508 -0.132983 0.464332 0.373625 0.849852
-0.650635 -0.143272 0.412759 0.361458 0.847148
-0.647252 -0.14409 0.425736 0.3645 0.847148
-0.64419 -0.144998 0.439109 0.367542 0.847148
-0.637544 -0.145111 0.450149 0.370583 0.847148
-0.632312 -0.145552 0.462247 0.373625 0.847148
-0.651499 -0.156488 0.413814 0.361458 0.844445
-0.649023 -0.157477 0.426296 0.3645 0.844445
-0.645416 -0.158343 0.439378 0.367542 0.844445
-0.638336 -0.158366 0.450184 0.370583 0.844445
-0.631645 -0.158488 0.46128 0.373625 0.844445
-0.741085 0.154897 0.189225 0.846875 0.875555
-0.740165 0.155182 0.201043 0.849917 0.875555
-0.742819 0.142401 0.19003 0.846875 0.872852
-0.740313 0.142357 0.201408 0.849917 0.872852
-0.748029 0.130531 0.191724 0.846875 0.870148
-0.743497 0.130137 0.202597 0.849917 0.870148
-0.750102 0.118066 0.192615 0.846875 0.867444
-0.746987 0.117935 0.203872 0.849917 0.867444
-0.757681 0.106355 0.193922 0.846875 0.864741
-0.752721 0.106007 0.205759 0.849917 0.864741
-0.775903 0.0957848 0.197936 0.846875 0.862037
-0.762739 0.094469 0.207813 0.849917 0.862037
-0.7773 0.0699108 0.197002 0.229167 0.892296
-0.770276 0.0695051 0.208497 0.232208 0.892296
-0.756728 0.0685061 0.217956 0.23525 0.892296
-0.786737 0.0577064 0.198747 0.229167 0.889593
-0.774103 0.0569644 0.208851 0.232208 0.889593
-0.762106 0.0562646 0.218789 0.23525 0.889593
-0.774457 0.0440394 0.195013 0.229167 0.886889
-0.770163 0.0439372 0.207114 0.232208 0.886889
-0.765401 0.0438076 0.21902 0.23525 0.886889
-0.769267 0.0311453 0.193082 0.229167 0.884185
-0.766402 0.0311295 0.205437 0.232208 0.884185
-0.765302 0.0311857 0.218282 0.23525 0.884185
-0.77408 0.0187437 0.193666 0.229167 0.881481
-0.769996 0.0187049 0.205735 0.232208 0.881481
-0.678791 0.371435 0.190867 0.588458 0.892296
-0.704459 0.369352 0.183538 0.585417 0.889593
-0.700742 0.368636 0.195002 0.588458 0.889593
-0.69508 0.366888 0.205841 0.5915 0.889593
-0.706471 0.355842 0.182185 0.585417 0.886889
-0.7018 0.354662 0.193297 0.588458 0.886889
-0.694088 0.351934 0.203436 0.5915 0.886889
-0.710165 0.343356 0.181288 0.585417 0.884185
-0.706718 0.342813 0.19268 0.588458 0.884185
-0.697033 0.33923 0.202223 0.5915 0.884185
-0.716551 0.332258 0.181089 0.585417 0.881482
-0.716536 0.333333 0.193397 0.588458 0.881482
-0.737573 0.142267 0.21271 0.747917 0.900704
-0.740514 0.143276 0.225729 0.750958 0.900704
-0.739846 0.129896 0.213652 0.747917 0.898
-0.741291 0.130551 0.226216 0.750958 0.898
-0.743833 0.117797 0.215089 0.747917 0.895296
-0.742456 0.11794 0.22682 0.750958 0.895296
-0.747385 0.105577 0.216401 0.747917 0.892593
-0.655102 0.415409 0.179953 0.655208 0.903481
-0.652964 0.415174 0.188737 0.65825 0.903481
-0.649884 0.414337 0.19722 0.661292 0.903481
-0.663708 0.405663 0.180357 0.655208 0.900778
-0.662019 0.406047 0.192176 0.65825 0.900778
-0.658889 0.405213 0.200683 0.661292 0.900778
-0.676898 0.39855 0.181985 0.655208 0.898074
-0.676456 0.399669 0.194271 0.65825 0.898074
-0.672322 0.398607 0.205499 0.661292 0.898074
-0.684944 0.388255 0.18221 0.655208 0.89537
-0.683872 0.388976 0.194327 0.65825 0.89537
-0.681488 0.388952 0.206093 0.661292 0.89537
-0.670394 -0.118734 0.396405 0.9875 0.925778
-0.663345 -0.11874 0.407018 0.990542 0.925778
-0.654506 -0.118421 0.416495 0.993583 0.925778
-0.666412 -0.130901 0.394456 0.9875 0.923074
-0.660113 -0.130946 0.404358 0.990542 0.923074
-0.651473 -0.13063 0.413929 0.993583 0.923074
-0.665133 -0.143587 0.394107 0.9875 0.92037
-0.657968 -0.143449 0.4035 0.990542 0.92037
-0.650635 -0.143272 0.412759 0.993583 0.92037
0.477275 0.609353 0.220989 0.671875 0.931333
0.481947 0.611845 0.21782 0.674917 0.931333
0.477409 0.593125 0.225008 0.671875 0.92863
0.483361 0.594384 0.218094 0.674917 0.92863
0.485901 0.587495 0.232921 0.671875 0.925926
0.490516 0.61577 0.21102 0.965625 0.932259
0.495131 0.618112 0.207709 0.968667 0.932259
0.491353 0.597598 0.211225 0.965625 0.929556
0.496175 0.600178 0.208095 0.968667 0.929556
0.49813 0.587109 0.213987 0.965625 0.926852
0.500339 0.586564 0.209792 0.968667 0.926852
0.522672 0.599722 0.163458 0.630125 0.939667
0.51939 0.579886 0.17267 0.627083 0.936963
0.522735 0.581679 0.164461 0.630125 0.936963
0.529406 0.573296 0.17679 0.627083 0.934259
0.530983 0.573125 0.168018 0.630125 0.934259
-0.464993 -0.649603 0.158478 0.727083 0.950852
-0.463038 -0.649374 0.167424 0.730125 0.950852
-0.460228 -0.647939 0.176036 0.733167 0.950852
-0.455929 -0.644388 0.184004 0.736208 0.950852
-0.451806 -0.641737 0.189743 0.73925 0.950852
-0.452581 -0.653299 0.15352 0.727083 0.948148
-0.454384 -0.658494 0.163768 0.730125 0.948148
-0.453755 -0.660191 0.173242 0.733167 0.948148
-0.450107 -0.657492 0.181548 0.736208 0.948148
0.496175 0.600178 0.208095 0.0729167 0.958259
0.501913 0.604408 0.203085 0.0759583 0.958259
0.507851 0.609417 0.195823 0.079 0.958259
0.500339 0.586564 0.209792 0.0729167 0.955556
0.502901 0.586986 0.203577 0.0759583 0.955556
0.522672 0.599722 0.163458 0.0947917 0.958259
0.527463 0.603175 0.155441 0.0978333 0.958259
0.522735 0.581679 0.164461 0.0947917 0.955555
0.527645 0.585196 0.156659 0.0978333 0.955555
0.46904 0.605185 0.226915 0.563542 0.961963
0.477275 0.609353 0.220989 0.566583 0.961963
0.471736 0.592193 0.232023 0.563542 0.95926
0.477409 0.593125 0.225008 0.566583 0.95926
0.481947 0.611845 0.21782 0.569792 0.961963
0.486222 0.613806 0.214433 0.572833 0.961963
0.490516 0.61577 0.21102 0.575875 0.961963
0.483361 0.594384 0.218094 0.569792 0.95926
0.48733 0.595967 0.214662 0.572833 0.95926
0.491353 0.597598 0.211225 0.575875 0.95926
3 14 15 16
3 16 15 17
3 12 13 14
3 14 13 15
3 10 11 12
3 12 11 13
3 8 9 10
3 10 9 11
3 6 7 8
3 8 7 9
3 4 5 6
3 6 5 7
3 2 3 4
3 4 3 5
3 0 1 2
3 2 1 3
3 33 34 36
3 30 31 33
3 33 31 34
3 27 28 30
3 30 28 31
3 24 25 27
3 27 25 28
3 21 22 24
3 24 22 25
3 32 33 35
3 35 33 36
3 29 30 32
3 32 30 33
3 26 27 29
3 29 27 30
3 23 24 26
3 26 24 27
3 20 21 23
3 23 21 24
3 18 19 20
3 20 19 21
3 41 37 42
3 37 38 42
3 42 38 43
3 38 39 43
3 43 39 44
3 63 64 68
3 68 64 69
3 58 59 63
3 63 59 64
3 53 54 58
3 58 54 59
3 48 49 53
3 53 49 54
3 62 63 67
3 67 63 68
3 57 58 62
3 62 58 63
3 52 53 57
3 57 53 58
3 47 48 52
3 52 48 53
3 61 62 66
3 66 62 67
3 56 57 61
3 61 57 62
3 51 52 56
3 56 52 57
3 46 47 51
3 51 47 52
3 60 61 65
3 65 61 66
3 55 56 60
3 60 56 61
3 50 51 55
3 55 51 56
3 45 46 50
3 50 46 51
3 40 41 45
3 45 41 46
3 41 42 46
3 46 42 47
3 42 43 47
3 47 43 48
3 43 44 48
3 48 44 49
3 78 79 80
3 80 79 81
3 76 77 78
3 78 77 79
3 74 75 76
3 76 75 77
3 72 73 74
3 74 73 75
3 70 71 72
3 72 71 73
3 92 93 95
3 89 90 92
3 92 90 93
3 86 87 89
3 89 87 90
3 83 84 86
3 86 84 87
3 91 92 94
3 94 92 95
3 88 89 91
3 91 89 92
3 88 86 89
3 85 83 86
3 82 83 85
3 104 105 107
3 101 102 104
3 104 102 105
3 98 99 101
3 101 99 102
3 103 104 106
3 106 104 107
3 100 101 103
3 103 101 104
3 97 98 100
3 100 98 101
3 97 96 98
3 112 113 114
3 110 111 112
3 112 111 113
3 108 109 110
3 110 109 111
3 122 123 125
3 125 123 126
3 119 120 122
3 122 120 123
3 116 117 119
3 119 117 120
3 121 122 124
3 124 122 125
3 118 119 121
3 121 119 122
3 115 116 118
3 118 116 119
3 131 132 134
3 134 132 135
3 131 129 132
3 130 131 133
3 133 131 134
3 127 128 130
3 130 128 131
3 138 139 140
3 136 137 138
3 138 137 139
3 143 144 145
3 145 144 146
3 141 142 143
3 143 142 144
3 148 149 150
3 150 149 151
3 148 147 149
3 152 153 157
3 157 153 158
3 153 154 158
3 158 154 159
3 154 155 159
3 159 155 160
3 155 156 160
3 161 162 164
3 164 162 165
3 162 163 165
3 166 167 168
3 168 167 169
3 170 171 172
3 172 171 173
3 174 175 177
3 177 175 178
3 175 176 178
3 178 176 179
