ply
format ascii 1.0
element vertex 448
property float x
property float y
property float z
property float s
property float t
element face 500
property list uchar int vertex_indices
end_header
-0.878877 0.0375712 0.404687 0.261458 0.762074
-0.871504 0.0376204 0.417975 0.2645 0.762074
-0.862516 0.0376002 0.430501 0.267542 0.762074
-0.851856 0.0375059 0.44214 0.270583 0.762074
-0.840906 0.0373969 0.453537 0.273625 0.762074
-0.881909 0.0225496 0.405955 0.261458 0.75937
-0.873433 0.0225506 0.418719 0.2645 0.75937
-0.864031 0.0225276 0.431023 0.267542 0.75937
-0.855527 0.0225276 0.443756 0.270583 0.75937
-0.846064 0.0225022 0.455974 0.273625 0.75937
-0.884165 0.00751224 0.406867 0.261458 0.756667
-0.872798 0.00748773 0.418235 0.2645 0.756667
-0.863266 0.00747864 0.430408 0.267542 0.756667
-0.857876 0.00750561 0.444687 0.270583 0.756667
-0.85055 0.00751602 0.458047 0.273625 0.756667
-0.882377 -0.0074943 0.405412 0.261458 0.753963
-0.86926 -0.00745462 0.415905 0.2645 0.753963
-0.85896 -0.00743856 0.427621 0.267542 0.753963
-0.852912 -0.00745937 0.441465 0.270583 0.753963
-0.847466 -0.00748591 0.455729 0.273625 0.753963
-0.878412 -0.0224354 0.402452 0.261458 0.751259
-0.865145 -0.0223118 0.412845 0.2645 0.751259
-0.853592 -0.0222304 0.423902 0.267542 0.751259
-0.845409 -0.022236 0.436576 0.270583 0.751259
-0.839552 -0.0223034 0.450507 0.273625 0.751259
-0.874709 -0.0373242 0.39962 0.261458 0.748555
-0.861533 -0.0371208 0.410029 0.2645 0.748555
-0.849139 -0.0369476 0.420644 0.267542 0.748555
-0.83885 -0.0368633 0.432186 0.270583 0.748555
-0.831987 -0.0369294 0.445484 0.273625 0.748555
-0.869469 -0.0521043 0.397342 0.261458 0.745852
-0.858143 -0.0518905 0.407325 0.2645 0.745852
-0.845127 -0.0516085 0.41761 0.267542 0.745852
-0.832654 -0.0513544 0.427993 0.270583 0.745852
-0.824511 -0.0513649 0.440522 0.273625 0.745852
-0.86632 -0.0669594 0.396021 0.261458 0.743148
-0.856373 -0.0667909 0.40665 0.2645 0.743148
-0.842774 -0.0663319 0.4154 0.267542 0.743148
-0.830243 -0.0659995 0.425752 0.270583 0.743148
-0.823347 -0.0661129 0.438938 0.273625 0.743148
-0.863238 -0.0818064 0.394729 0.261458 0.740444
-0.853214 -0.0815922 0.405315 0.2645 0.740444
-0.842067 -0.0812657 0.415266 0.267542 0.740444
-0.830352 -0.0808779 0.424801 0.270583 0.740444
-0.821393 -0.0808158 0.436931 0.273625 0.740444
-0.856113 -0.0961869 0.391588 0.261458 0.737741
-0.847002 -0.096032 0.402529 0.2645 0.737741
-0.837349 -0.0958121 0.413153 0.267542 0.737741
-0.826235 -0.0954195 0.422958 0.270583 0.737741
-0.818004 -0.0953555 0.434164 0.273625 0.737741
-0.848539 -0.110354 0.388241 0.261458 0.735037
-0.841177 -0.110398 0.399926 0.2645 0.735037
-0.830083 -0.109949 0.409781 0.267542 0.735037
-0.817333 -0.10927 0.418662 0.270583 0.735037
-0.809064 -0.109183 0.429731 0.273625 0.735037
-0.823075 -0.123959 0.406535 0.267542 0.732333
-0.810145 -0.123154 0.415242 0.270583 0.732333
-0.802209 -0.123099 0.426402 0.273625 0.732333
-0.805895 -0.137372 0.413325 0.270583 0.72963
-0.798181 -0.137347 0.424573 0.273625 0.72963
-0.85055 0.00751602 0.458047 0.35625 0.794555
-0.84172 0.00751321 0.470615 0.359292 0.794555
-0.83366 0.00751728 0.483616 0.362333 0.794555
-0.847466 -0.00748591 0.455729 0.35625 0.791852
-0.840152 -0.00749633 0.469074 0.359292 0.791852
-0.833244 -0.00751061 0.482702 0.362333 0.791852
-0.839552 -0.0223034 0.450507 0.35625 0.789148
-0.832175 -0.0223315 0.463695 0.359292 0.789148
-0.826941 -0.0224182 0.478166 0.362333 0.789148
-0.831987 -0.0369294 0.445484 0.35625 0.786444
-0.823903 -0.0369421 0.458165 0.359292 0.786444
-0.819746 -0.037133 0.473125 0.362333 0.786444
-0.824511 -0.0513649 0.440522 0.35625 0.783741
-0.820126 -0.0516121 0.455144 0.359292 0.783741
-0.816317 -0.0519011 0.470264 0.362333 0.783741
-0.823347 -0.0661129 0.438938 0.35625 0.781037
-0.816617 -0.0662421 0.452276 0.359292 0.781037
-0.81072 -0.0664422 0.466159 0.362333 0.781037
-0.821393 -0.0808158 0.436931 0.35625 0.778333
-0.812396 -0.0807489 0.449016 0.359292 0.778333
-0.803455 -0.0806862 0.461105 0.362333 0.778333
-0.818004 -0.0953555 0.434164 0.35625 0.77563
-0.808586 -0.095225 0.445989 0.359292 0.77563
-0.798487 -0.0950108 0.457378 0.362333 0.77563
-0.809064 -0.109183 0.429731 0.35625 0.772926
-0.801933 -0.109249 0.441402 0.359292 0.772926
-0.792831 -0.109132 0.453263 0.362333 0.772926
-0.802209 -0.123099 0.426402 0.35625 0.770222
-0.793983 -0.122999 0.437389 0.359292 0.770222
-0.786269 -0.122977 0.448642 0.362333 0.770222
-0.790495 -0.137326 0.43583 0.359292 0.767519
-0.784991 -0.137687 0.448329 0.362333 0.767519
-0.788379 -0.151885 0.435028 0.359292 0.764815
-0.784949 -0.152691 0.448725 0.362333 0.764815
-0.790867 -0.0223558 0.527375 0.676042 0.791852
-0.781524 -0.0223301 0.539388 0.679083 0.791852
-0.767021 -0.0221547 0.547674 0.682125 0.791852
-0.750634 -0.0219205 0.554274 0.685167 0.791852
-0.786053 -0.0371313 0.523469 0.676042 0.789148
-0.77655 -0.0370792 0.535309 0.679083 0.789148
-0.764333 -0.0368951 0.545162 0.682125 0.789148
-0.749304 -0.0365696 0.552754 0.685167 0.789148
-0.778082 -0.0515938 0.517468 0.676042 0.786445
-0.77118 -0.0516908 0.530962 0.679083 0.786445
-0.763502 -0.0517374 0.543973 0.682125 0.786445
-0.750027 -0.0513879 0.552745 0.685167 0.786445
-0.771411 -0.0659418 0.512341 0.676042 0.783741
-0.766671 -0.0662495 0.527213 0.679083 0.783741
-0.762001 -0.06657 0.542305 0.682125 0.783741
-0.750101 -0.0662591 0.552255 0.685167 0.783741
-0.768281 -0.0804837 0.509571 0.676042 0.781037
-0.76431 -0.080941 0.524943 0.679083 0.781037
-0.758955 -0.0812602 0.539538 0.682125 0.781037
-0.747626 -0.0809398 0.549887 0.685167 0.781037
-0.765398 -0.0950147 0.506966 0.676042 0.778333
-0.760995 -0.0955013 0.522019 0.679083 0.778333
-0.755614 -0.0958745 0.536563 0.682125 0.778333
-0.743947 -0.0954497 0.546635 0.685167 0.778333
-0.76279 -0.109553 0.504545 0.676042 0.77563
-0.757687 -0.110014 0.519102 0.679083 0.77563
-0.752741 -0.110507 0.533922 0.682125 0.77563
-0.740086 -0.109868 0.543252 0.685167 0.77563
-0.758953 -0.123869 0.501313 0.676042 0.772926
-0.75467 -0.124525 0.516386 0.679083 0.772926
-0.750327 -0.125184 0.531608 0.682125 0.772926
-0.737494 -0.124427 0.540801 0.685167 0.772926
-0.757312 -0.138517 0.499533 0.676042 0.770222
-0.752295 -0.139116 0.51411 0.679083 0.770222
-0.747548 -0.13978 0.529036 0.682125 0.770222
-0.735016 -0.138986 0.538435 0.685167 0.770222
-0.75719 -0.153488 0.498752 0.676042 0.767518
-0.750529 -0.15382 0.512251 0.679083 0.767518
-0.744915 -0.154377 0.526568 0.682125 0.767518
-0.733255 -0.153678 0.536594 0.685167 0.767518
-0.746078 -0.167932 0.508561 0.679083 0.764815
-0.749043 0.0219016 0.55521 0.863542 0.818778
-0.741132 0.0219123 0.567864 0.866583 0.818778
-0.728851 0.0217925 0.577077 0.869625 0.818778
-0.752561 0.00730865 0.556939 0.863542 0.816074
-0.74509 0.00731659 0.56995 0.866583 0.816074
-0.732752 0.00727639 0.579156 0.869625 0.816074
-0.75343 -0.00731402 0.556877 0.863542 0.813371
-0.744329 -0.00730602 0.568655 0.866583 0.813371
-0.732853 -0.00727428 0.578519 0.869625 0.813371
-0.750634 -0.0219205 0.554274 0.863542 0.810667
-0.740864 -0.0218765 0.565525 0.866583 0.810667
-0.728991 -0.0217686 0.57504 0.869625 0.810667
-0.749304 -0.0365696 0.552754 0.863542 0.807963
-0.738575 -0.036449 0.563292 0.866583 0.807963
-0.725939 -0.0362306 0.572202 0.869625 0.807963
-0.750027 -0.0513879 0.552745 0.863542 0.805259
-0.737862 -0.0511213 0.56226 0.866583 0.805259
-0.7277 -0.050989 0.573156 0.869625 0.805259
-0.750101 -0.0662591 0.552255 0.863542 0.802556
-0.738839 -0.0659982 0.562514 0.866583 0.802556
-0.727722 -0.0657445 0.572737 0.869625 0.802556
-0.747626 -0.0809398 0.549887 0.863542 0.799852
-0.737643 -0.0807595 0.561111 0.866583 0.799852
-0.725647 -0.0803521 0.570666 0.869625 0.799852
-0.743947 -0.0954497 0.546635 0.863542 0.797148
-0.734707 -0.09533 0.558383 0.866583 0.797148
-0.740086 -0.109868 0.543252 0.863542 0.794444
-0.899041 0.00749435 0.380484 0.0415 0.850407
-0.891141 0.00749932 0.393452 0.0445417 0.850407
-0.884165 0.00751224 0.406867 0.0475833 0.850407
-0.907898 -0.00749556 0.3517 0.0354167 0.847704
-0.906784 -0.00751104 0.367449 0.0384583 0.847704
-0.901368 -0.00751105 0.380849 0.0415 0.847704
-0.892092 -0.00750459 0.393244 0.0445417 0.847704
-0.882377 -0.0074943 0.405412 0.0475833 0.847704
-0.904657 -0.0224746 0.350371 0.0354167 0.845
-0.902135 -0.022486 0.36554 0.0384583 0.845
-0.897898 -0.0225154 0.379405 0.0415 0.845
-0.890779 -0.022534 0.391485 0.0445417 0.845
-0.878412 -0.0224354 0.402452 0.0475833 0.845
-0.902255 -0.0374723 0.349367 0.0354167 0.842296
-0.899873 -0.0374972 0.364599 0.0384583 0.842296
-0.896754 -0.0375933 0.378945 0.0415 0.842296
-0.888098 -0.03756 0.390377 0.0445417 0.842296
-0.874709 -0.0373242 0.39962 0.0475833 0.842296
-0.900583 -0.0525243 0.348645 0.0354167 0.839593
-0.898654 -0.0525861 0.36408 0.0384583 0.839593
-0.893554 -0.0526049 0.377616 0.0415 0.839593
-0.881675 -0.0523666 0.387624 0.0445417 0.839593
-0.869469 -0.0521043 0.397342 0.0475833 0.839593
-0.895652 -0.0673678 0.346662 0.0354167 0.836889
-0.893609 -0.0674384 0.362011 0.0384583 0.836889
-0.886246 -0.0672897 0.37455 0.0415 0.836889
-0.875307 -0.0670512 0.384893 0.0445417 0.836889
-0.86632 -0.0669594 0.396021 0.0475833 0.836889
-0.889317 -0.0820081 0.344135 0.0354167 0.834185
-0.888142 -0.0821738 0.359772 0.0384583 0.834185
-0.881438 -0.0820513 0.372541 0.0415 0.834185
-0.87118 -0.0818212 0.383149 0.0445417 0.834185
-0.863238 -0.0818064 0.394729 0.0475833 0.834185
-0.87917 -0.0964316 0.356112 0.0384583 0.831482
-0.872213 -0.0962543 0.368665 0.0415 0.831482
-0.861193 -0.0958902 0.378825 0.0445417 0.831482
-0.856113 -0.0961869 0.391588 0.0475833 0.831482
-0.83366 0.00751728 0.483616 0.0510417 0.850407
-0.825046 0.00751639 0.496303 0.0540833 0.850407
-0.814924 0.00750161 0.508046 0.057125 0.850407
-0.833244 -0.00751061 0.482702 0.0510417 0.847704
-0.824652 -0.00750986 0.495387 0.0540833 0.847704
-0.815816 -0.00750684 0.507916 0.057125 0.847704
-0.826941 -0.0224182 0.478166 0.0510417 0.845
-0.820756 -0.0224807 0.492205 0.0540833 0.845
-0.813821 -0.0225237 0.505877 0.057125 0.845
-0.819746 -0.037133 0.473125 0.0510417 0.842296
-0.817266 -0.0374046 0.489269 0.0540833 0.842296
-0.810702 -0.037493 0.50314 0.057125 0.842296
-0.816317 -0.0519011 0.470264 0.0510417 0.839593
-0.813235 -0.0522427 0.486014 0.0540833 0.839593
-0.804495 -0.0522242 0.498491 0.057125 0.839593
-0.81072 -0.0664422 0.466159 0.0510417 0.836889
-0.804825 -0.0666466 0.48015 0.0540833 0.836889
-0.797093 -0.0667016 0.493112 0.057125 0.836889
-0.803455 -0.0806862 0.461105 0.0510417 0.834185
-0.796506 -0.0808243 0.474352 0.0540833 0.834185
-0.791202 -0.0811341 0.488676 0.057125 0.834185
-0.798487 -0.0950108 0.457378 0.0510417 0.831482
-0.877132 0.049878 0.220867 0.936458 0.848629
-0.880143 0.0502115 0.23669 0.9395 0.848629
-0.879503 0.0356084 0.220751 0.936458 0.845926
-0.877423 0.035639 0.235196 0.9395 0.845926
-0.876887 0.0357327 0.250108 0.942542 0.845926
-0.883815 0.0214008 0.221121 0.936458 0.843222
-0.88087 0.0213982 0.23536 0.9395 0.843222
-0.885036 0.0215689 0.251617 0.942542 0.843222
-0.887677 0.00714185 0.221376 0.936458 0.840518
-0.887037 0.00715962 0.236247 0.9395 0.840518
-0.89356 0.00723551 0.253222 0.942542 0.840518
-0.891847 -0.00717453 0.221843 0.936458 0.837815
-0.894301 -0.00721737 0.237603 0.9395 0.837815
-0.899417 -0.00728203 0.254296 0.942542 0.837815
-0.897612 -0.021727 0.222837 0.936458 0.835111
-0.898355 -0.021815 0.238283 0.9395 0.835111
-0.898779 -0.0218958 0.253763 0.942542 0.835111
-0.903629 -0.0365628 0.223884 0.936458 0.832407
-0.902923 -0.0366522 0.239093 0.9395 0.832407
-0.907898 -0.00749556 0.3517 0.0384583 0.880259
-0.906761 -0.0224529 0.335064 0.0354167 0.877556
-0.904657 -0.0224746 0.350371 0.0384583 0.877556
-0.904285 -0.0374329 0.334026 0.0354167 0.874852
-0.902255 -0.0374723 0.349367 0.0384583 0.874852
-0.900667 -0.0523557 0.332566 0.0354167 0.872148
-0.900583 -0.0525243 0.348645 0.0384583 0.872148
-0.895412 -0.0671266 0.330503 0.0354167 0.869444
-0.895652 -0.0673678 0.346662 0.0384583 0.869444
-0.870955 0.213134 0.235798 0.479083 0.892296
-0.865517 0.19598 0.220574 0.476042 0.889593
-0.865625 0.196611 0.234739 0.479083 0.889593
-0.863382 0.180459 0.220452 0.476042 0.886889
-0.863342 0.181007 0.2345 0.479083 0.886889
-0.864709 0.165768 0.221212 0.476042 0.884185
-0.863792 0.166101 0.235001 0.479083 0.884185
-0.866221 0.151155 0.222018 0.476042 0.881481
-0.866843 0.151727 0.236208 0.479083 0.881481
-0.84028 0.310677 0.210757 0.576042 0.892296
-0.837881 0.310772 0.224176 0.579083 0.892296
-0.833514 0.310135 0.237044 0.582125 0.892296
-0.850745 0.298971 0.213819 0.576042 0.889593
-0.849016 0.299306 0.227548 0.579083 0.889593
-0.841514 0.297602 0.239665 0.582125 0.889593
-0.862292 0.287342 0.217162 0.576042 0.886889
-0.859278 0.28724 0.230694 0.579083 0.886889
-0.850984 0.285366 0.24271 0.582125 0.886889
-0.868168 0.273605 0.219084 0.576042 0.884185
-0.857462 0.271079 0.230599 0.579083 0.884185
-0.851289 0.269976 0.243143 0.582125 0.884185
-0.857789 0.255721 0.231077 0.579083 0.881482
-0.853847 0.255345 0.244218 0.582125 0.881482
-0.732558 0.498361 0.19914 0.644792 0.892296
-0.720521 0.491525 0.206411 0.647833 0.892296
-0.72111 0.493289 0.21719 0.650875 0.892296
-0.735035 0.482899 0.200875 0.644792 0.889593
-0.724412 0.47722 0.208467 0.647833 0.889593
-0.727414 0.480511 0.219927 0.650875 0.889593
-0.742948 0.471113 0.204084 0.644792 0.886889
-0.731241 0.464945 0.211363 0.647833 0.886889
-0.734555 0.468319 0.222916 0.650875 0.886889
-0.750699 0.458833 0.203996 0.644792 0.884185
-0.738978 0.45325 0.214516 0.647833 0.884185
-0.741473 0.456002 0.225836 0.650875 0.884185
-0.756699 0.445536 0.203439 0.644792 0.881482
-0.747718 0.441772 0.214737 0.647833 0.881482
-0.747799 0.443355 0.228569 0.650875 0.881482
-0.56729 -0.729562 0.139801 0.197833 0.903481
-0.559425 -0.739876 0.125055 0.194792 0.900778
-0.553563 -0.734833 0.134504 0.197833 0.900778
-0.548476 -0.730785 0.144007 0.200875 0.900778
-0.544066 -0.7429 0.119447 0.194792 0.898074
-0.5429 -0.744108 0.129957 0.197833 0.898074
-0.534986 -0.736043 0.138752 0.200875 0.898074
-0.527065 -0.743261 0.113517 0.194792 0.89537
-0.53411 -0.756103 0.125845 0.197833 0.89537
-0.530229 -0.753518 0.135746 0.200875 0.89537
0.0340852 0.600376 0.729249 0.628042 0.903481
0.0475791 0.598613 0.724403 0.631083 0.903481
0.0608587 0.595535 0.717989 0.634125 0.903481
0.0741541 0.593705 0.7131 0.637167 0.903481
0.0875285 0.592973 0.709543 0.640208 0.903481
0.0978639 0.593149 0.707703 0.64325 0.903481
0.10837 0.594225 0.706932 0.646292 0.903481
0.0205931 0.591948 0.745462 0.625 0.900778
0.0342186 0.590166 0.740496 0.628042 0.900778
0.047735 0.588059 0.735139 0.631083 0.900778
0.0611303 0.585729 0.729524 0.634125 0.900778
0.0745421 0.584374 0.72514 0.637167 0.900778
0.0880263 0.583916 0.721878 0.640208 0.900778
0.101775 0.585104 0.720647 0.64325 0.900778
0.112419 0.586448 0.720233 0.646292 0.900778
0.0207315 0.583243 0.758944 0.625 0.898074
0.0344491 0.581498 0.753933 0.628042 0.898074
0.0481436 0.580471 0.749865 0.631083 0.898074
0.0618921 0.580407 0.747047 0.634125 0.898074
0.0756671 0.58057 0.74452 0.637167 0.898074
0.0895524 0.581398 0.742841 0.640208 0.898074
0.103643 0.583159 0.742343 0.64325 0.898074
0.11768 0.584246 0.740973 0.646292 0.898074
0.0207965 0.57235 0.769824 0.625 0.89537
0.0346048 0.571424 0.765827 0.628042 0.89537
0.0484005 0.570879 0.762345 0.631083 0.89537
0.0621514 0.570166 0.758645 0.634125 0.89537
0.0756779 0.568027 0.753062 0.637167 0.89537
0.0892755 0.566997 0.748965 0.640208 0.89537
0.103164 0.567842 0.747345 0.64325 0.89537
0.117078 0.568614 0.745621 0.646292 0.89537
-0.758083 0.0219239 0.543383 0.0572917 0.905333
-0.749043 0.0219016 0.55521 0.0603333 0.905333
-0.765306 0.00735154 0.547742 0.0572917 0.902629
-0.752561 0.00730865 0.556939 0.0603333 0.902629
-0.769155 -0.00738545 0.549793 0.0572917 0.899926
-0.75343 -0.00731402 0.556877 0.0603333 0.899926
-0.767021 -0.0221547 0.547674 0.0572917 0.897222
-0.750634 -0.0219205 0.554274 0.0603333 0.897222
0.105274 0.607013 0.699756 0.611458 0.914593
0.115719 0.607591 0.698364 0.6145 0.914593
0.126289 0.608678 0.697553 0.617542 0.914593
0.136913 0.609836 0.696814 0.620583 0.914593
0.147744 0.611691 0.696862 0.623625 0.914593
0.10837 0.594225 0.706932 0.611458 0.911889
0.118906 0.595269 0.706116 0.6145 0.911889
0.129555 0.59666 0.705704 0.617542 0.911889
0.140322 0.598352 0.705636 0.620583 0.911889
0.150935 0.599197 0.70456 0.623625 0.911889
0.161893 0.601218 0.704858 0.626667 0.911889
0.172868 0.603049 0.70492 0.629708 0.911889
0.183725 0.604282 0.704273 0.63275 0.911889
0.19476 0.605938 0.704107 0.635792 0.911889
0.206184 0.608571 0.705063 0.638833 0.911889
0.112419 0.586448 0.720233 0.611458 0.909185
0.123158 0.588022 0.720089 0.6145 0.909185
0.134119 0.590325 0.720825 0.617542 0.909185
0.145049 0.592165 0.720981 0.620583 0.909185
0.155686 0.592645 0.719473 0.623625 0.909185
0.166357 0.593184 0.718033 0.626667 0.909185
0.177427 0.594994 0.718123 0.629708 0.909185
0.188581 0.596871 0.71828 0.63275 0.909185
0.19966 0.59832 0.717912 0.635792 0.909185
0.210589 0.599198 0.716849 0.638833 0.909185
0.11768 0.584246 0.740973 0.611458 0.906482
0.128516 0.585335 0.740242 0.6145 0.906482
0.139307 0.586072 0.73906 0.617542 0.906482
0.14993 0.586049 0.736916 0.620583 0.906482
0.160491 0.585799 0.734488 0.623625 0.906482
0.171245 0.586242 0.732929 0.626667 0.906482
0.181964 0.586522 0.731163 0.629708 0.906482
0.192504 0.586225 0.728677 0.63275 0.906482
0.203044 0.585957 0.72623 0.635792 0.906482
-0.725939 -0.0362306 0.572202 0.676042 0.914592
-0.719131 -0.0363013 0.585629 0.679083 0.914592
-0.7277 -0.050989 0.573156 0.676042 0.911889
-0.721458 -0.0511315 0.587143 0.679083 0.911889
-0.727722 -0.0657445 0.572737 0.676042 0.909185
-0.719451 -0.0657449 0.585127 0.679083 0.909185
-0.725647 -0.0803521 0.570666 0.676042 0.906481
-0.716237 -0.0802251 0.58213 0.679083 0.906481
-0.815816 -0.00750684 0.507916 0.0822917 0.922074
-0.801867 -0.00745622 0.517133 0.0853333 0.922074
-0.813821 -0.0225237 0.505877 0.0822917 0.91937
-0.802232 -0.0224375 0.516621 0.0853333 0.91937
-0.810702 -0.037493 0.50314 0.0822917 0.916666
-0.798281 -0.0373095 0.51333 0.0853333 0.916666
-0.00532271 0.586952 0.766862 0.661458 0.923
0.00693856 0.585611 0.764786 0.6645 0.923
0.0207315 0.583243 0.758944 0.667542 0.923
-0.00533605 0.575629 0.777334 0.661458 0.920296
0.00695978 0.57463 0.77566 0.6645 0.920296
0.0207965 0.57235 0.769824 0.667542 0.920296
-0.00532242 0.561397 0.783876 0.661458 0.917592
0.00694445 0.560619 0.782467 0.6645 0.917592
-0.811081 0.381035 0.261273 0.673875 0.923
-0.808783 0.381208 0.274798 0.676917 0.923
-0.818881 0.367357 0.246944 0.670833 0.920296
-0.815483 0.367023 0.260057 0.673875 0.920296
-0.81369 0.367411 0.273684 0.676917 0.920296
-0.823665 0.353734 0.247303 0.670833 0.917592
-0.819178 0.352944 0.26006 0.673875 0.917592
-0.817459 0.353345 0.273681 0.676917 0.917592
-0.716485 0.505894 0.204305 0.194792 0.945296
-0.715253 0.506437 0.214584 0.197833 0.945296
-0.720521 0.491525 0.206411 0.194792 0.942592
-0.72111 0.493289 0.21719 0.197833 0.942592
-0.850984 0.285366 0.24271 0.229167 0.945296
-0.847795 0.285198 0.25608 0.232208 0.945296
-0.851289 0.269976 0.243143 0.229167 0.942592
-0.852625 0.271254 0.257841 0.232208 0.942592
-0.881909 0.0225496 0.405955 0.257208 0.945296
-0.891141 0.00749932 0.393452 0.254167 0.942592
-0.884165 0.00751224 0.406867 0.257208 0.942592
-0.846064 0.0225022 0.455974 0.266667 0.945296
-0.836556 0.0224751 0.468126 0.269708 0.945296
-0.85055 0.00751602 0.458047 0.266667 0.942592
-0.84172 0.00751321 0.470615 0.269708 0.942592
-0.534986 -0.736043 0.138752 0.742708 0.950852
-0.52952 -0.731298 0.147995 0.74575 0.950852
-0.530229 -0.753518 0.135746 0.742708 0.948148
0.0742531 0.606888 0.705777 0.766583 0.956408
0.0846436 0.6073 0.7042 0.769625 0.956408
0.0948441 0.606408 0.701112 0.772667 0.956408
0.105274 0.607013 0.699756 0.775708 0.956408
0.0608587 0.595535 0.717989 0.763542 0.953704
0.0741541 0.593705 0.7131 0.766583 0.953704
0.0875285 0.592973 0.709543 0.769625 0.953704
0.0978639 0.593149 0.707703 0.772667 0.953704
0.10837 0.594225 0.706932 0.775708 0.953704
-0.84886 0.257904 0.314744 0.975958 0.959185
-0.858394 0.244338 0.303707 0.972917 0.956481
-0.85669 0.244629 0.317766 0.975958 0.956481
-0.79064 -0.0518697 0.507672 0.382292 0.959185
-0.778082 -0.0515938 0.517468 0.385333 0.959185
-0.78502 -0.0663907 0.503321 0.382292 0.956481
-0.771411 -0.0659418 0.512341 0.385333 0.956481
-0.797093 -0.0667016 0.493112 0.422917 0.959185
-0.78502 -0.0663907 0.503321 0.425958 0.959185
-0.791202 -0.0811341 0.488676 0.422917 0.956481
-0.780841 -0.0809263 0.499899 0.425958 0.956481
0.00689519 0.594605 0.751551 0.654167 0.961963
0.0205931 0.591948 0.745462 0.657208 0.961963
0.00693856 0.585611 0.764786 0.654167 0.95926
0.0207315 0.583243 0.758944 0.657208 0.95926
-0.868032 0.0526257 0.41649 0.772917 0.961963
-0.859598 0.0526308 0.429279 0.775958 0.961963
-0.847893 0.0524338 0.440372 0.779 0.961963
-0.871504 0.0376204 0.417975 0.772917 0.95926
-0.862516 0.0376002 0.430501 0.775958 0.95926
-0.851856 0.0375059 0.44214 0.779 0.95926
3 46 47 51
3 51 47 52
3 41 42 46
3 46 42 47
3 36 37 41
3 41 37 42
3 31 32 36
3 36 32 37
3 26 27 31
3 31 27 32
3 21 22 26
3 26 22 27
3 16 17 21
3 21 17 22
3 11 12 16
3 16 12 17
3 45 46 50
3 50 46 51
3 40 41 45
3 45 41 46
3 35 36 40
3 40 36 41
3 30 31 35
3 35 31 36
3 25 26 30
3 30 26 31
3 20 21 25
3 25 21 26
3 15 16 20
3 20 16 21
3 10 11 15
3 15 11 16
3 5 6 10
3 10 6 11
3 0 1 5
3 5 1 6
3 1 2 6
3 6 2 7
3 6 7 11
3 11 7 12
3 52 53 55
3 55 53 56
3 47 48 52
3 52 48 53
3 42 43 47
3 47 43 48
3 37 38 42
3 42 38 43
3 32 33 37
3 37 33 38
3 27 28 32
3 32 28 33
3 22 23 27
3 27 23 28
3 17 18 22
3 22 18 23
3 12 13 17
3 17 13 18
3 56 57 58
3 58 57 59
3 53 54 56
3 56 54 57
3 48 49 53
3 53 49 54
3 43 44 48
3 48 44 49
3 38 39 43
3 43 39 44
3 33 34 38
3 38 34 39
3 28 29 33
3 33 29 34
3 23 24 28
3 28 24 29
3 18 19 23
3 23 19 24
3 13 14 18
3 18 14 19
3 8 9 13
3 13 9 14
3 3 4 8
3 8 4 9
3 2 3 7
3 7 3 8
3 7 8 12
3 12 8 13
3 84 85 87
3 87 85 88
3 81 82 84
3 84 82 85
3 78 79 81
3 81 79 82
3 75 76 78
3 78 76 79
3 72 73 75
3 75 73 76
3 69 70 72
3 72 70 73
3 66 67 69
3 69 67 70
3 63 64 66
3 66 64 67
3 90 91 92
3 92 91 93
3 88 89 90
3 90 89 91
3 85 86 88
3 88 86 89
3 82 83 85
3 85 83 86
3 79 80 82
3 82 80 83
3 76 77 79
3 79 77 80
3 73 74 76
3 76 74 77
3 70 71 73
3 73 71 74
3 67 68 70
3 70 68 71
3 64 65 67
3 67 65 68
3 61 62 64
3 64 62 65
3 60 61 63
3 63 61 64
3 128 129 132
3 132 129 133
3 124 125 128
3 128 125 129
3 120 121 124
3 124 121 125
3 116 117 120
3 120 117 121
3 112 113 116
3 116 113 117
3 108 109 112
3 112 109 113
3 104 105 108
3 108 105 109
3 100 101 104
3 104 101 105
3 126 127 130
3 130 127 131
3 122 123 126
3 126 123 127
3 118 119 122
3 122 119 123
3 114 115 118
3 118 115 119
3 110 111 114
3 114 111 115
3 106 107 110
3 110 107 111
3 102 103 106
3 106 103 107
3 98 99 102
3 102 99 103
3 131 132 134
3 127 128 131
3 131 128 132
3 123 124 127
3 127 124 128
3 119 120 123
3 123 120 124
3 115 116 119
3 119 116 120
3 111 112 115
3 115 112 116
3 107 108 111
3 111 108 112
3 103 104 107
3 107 104 108
3 99 100 103
3 103 100 104
3 95 96 99
3 99 96 100
3 94 95 98
3 98 95 99
3 96 97 100
3 100 97 101
3 157 158 160
3 154 155 157
3 157 155 158
3 151 152 154
3 154 152 155
3 148 149 151
3 151 149 152
3 145 146 148
3 148 146 149
3 142 143 145
3 145 143 146
3 139 140 142
3 142 140 143
3 159 160 161
3 156 157 159
3 159 157 160
3 153 154 156
3 156 154 157
3 150 151 153
3 153 151 154
3 147 148 150
3 150 148 151
3 144 145 147
3 147 145 148
3 141 142 144
3 144 142 145
3 138 139 141
3 141 139 142
3 135 136 138
3 138 136 139
3 136 137 139
3 139 137 140
3 185 186 190
3 190 186 191
3 180 181 185
3 185 181 186
3 175 176 180
3 180 176 181
3 170 171 175
3 175 171 176
3 165 166 170
3 170 166 171
3 193 194 197
3 197 194 198
3 188 189 193
3 193 189 194
3 183 184 188
3 188 184 189
3 178 179 183
3 183 179 184
3 173 174 178
3 178 174 179
3 168 169 173
3 173 169 174
3 192 193 196
3 187 188 192
3 192 188 193
3 182 183 187
3 187 183 188
3 177 178 182
3 182 178 183
3 172 173 177
3 177 173 178
3 167 168 172
3 172 168 173
3 191 192 195
3 195 192 196
3 186 187 191
3 191 187 192
3 181 182 186
3 186 182 187
3 176 177 181
3 181 177 182
3 171 172 176
3 176 172 177
3 166 167 171
3 171 167 172
3 166 162 167
3 162 163 167
3 167 163 168
3 163 164 168
3 168 164 169
3 215 216 218
3 218 216 219
3 212 213 215
3 215 213 216
3 209 210 212
3 212 210 213
3 206 207 209
3 209 207 210
3 203 204 206
3 206 204 207
3 200 201 203
3 203 201 204
3 217 218 220
3 214 215 217
3 217 215 218
3 211 212 214
3 214 212 215
3 208 209 211
3 211 209 212
3 205 206 208
3 208 206 209
3 202 203 205
3 205 203 206
3 199 200 202
3 202 200 203
3 236 237 239
3 233 234 236
3 236 234 237
3 230 231 233
3 233 231 234
3 227 228 230
3 230 228 231
3 224 225 227
3 227 225 228
3 235 236 238
3 238 236 239
3 232 233 235
3 235 233 236
3 229 230 232
3 232 230 233
3 226 227 229
3 229 227 230
3 223 224 226
3 226 224 227
3 221 222 223
3 223 222 224
3 245 246 247
3 247 246 248
3 243 244 245
3 245 244 246
3 241 242 243
3 243 242 244
3 241 240 242
3 254 255 256
3 256 255 257
3 252 253 254
3 254 253 255
3 250 251 252
3 252 251 253
3 250 249 251
3 264 265 267
3 267 265 268
3 264 262 265
3 261 259 262
3 258 259 261
3 268 269 270
3 270 269 271
3 265 266 268
3 268 266 269
3 262 263 265
3 265 263 266
3 259 260 262
3 262 260 263
3 282 283 285
3 285 283 286
3 279 280 282
3 282 280 283
3 276 277 279
3 279 277 280
3 273 274 276
3 276 274 277
3 281 282 284
3 284 282 285
3 278 279 281
3 281 279 282
3 275 276 278
3 278 276 279
3 272 273 275
3 275 273 276
3 292 293 295
3 295 293 296
3 289 290 292
3 292 290 293
3 291 292 294
3 294 292 295
3 288 289 291
3 291 289 292
3 288 287 289
3 318 319 326
3 326 319 327
3 310 311 318
3 318 311 319
3 302 303 310
3 310 303 311
3 317 318 325
3 325 318 326
3 309 310 317
3 317 310 318
3 301 302 309
3 309 302 310
3 316 317 324
3 324 317 325
3 308 309 316
3 316 309 317
3 300 301 308
3 308 301 309
3 315 316 323
3 323 316 324
3 307 308 315
3 315 308 316
3 299 300 307
3 307 300 308
3 314 315 322
3 322 315 323
3 306 307 314
3 314 307 315
3 298 299 306
3 306 299 307
3 313 314 321
3 321 314 322
3 305 306 313
3 313 306 314
3 297 298 305
3 305 298 306
3 312 313 320
3 320 313 321
3 304 305 312
3 312 305 313
3 304 297 305
3 332 333 334
3 334 333 335
3 330 331 332
3 332 331 333
3 328 329 330
3 330 329 331
3 359 360 369
3 349 350 359
3 359 350 360
3 358 359 368
3 368 359 369
3 348 349 358
3 358 349 359
3 357 358 367
3 367 358 368
3 347 348 357
3 357 348 358
3 356 357 366
3 366 357 367
3 346 347 356
3 356 347 357
3 355 356 365
3 365 356 366
3 345 346 355
3 355 346 356
3 354 355 364
3 364 355 365
3 344 345 354
3 354 345 355
3 339 340 344
3 344 340 345
3 353 354 363
3 363 354 364
3 343 344 353
3 353 344 354
3 338 339 343
3 343 339 344
3 352 353 362
3 362 353 363
3 342 343 352
3 352 343 353
3 337 338 342
3 342 338 343
3 351 352 361
3 361 352 362
3 341 342 351
3 351 342 352
3 336 337 341
3 341 337 342
3 374 375 376
3 376 375 377
3 372 373 374
3 374 373 375
3 370 371 372
3 372 371 373
3 380 381 382
3 382 381 383
3 378 379 380
3 380 379 381
3 388 389 391
3 385 386 388
3 388 386 389
3 387 388 390
3 390 388 391
3 384 385 387
3 387 385 388
3 395 396 398
3 398 396 399
3 392 393 395
3 395 393 396
3 394 395 397
3 397 395 398
3 394 392 395
3 400 401 402
3 402 401 403
3 404 405 406
3 406 405 407
3 409 408 410
3 411 412 413
3 413 412 414
3 415 416 417
3 422 418 423
3 423 419 424
3 419 420 424
3 424 420 425
3 420 421 425
3 425 421 426
3 428 427 429
3 430 431 432
3 432 431 433
3 434 435 436
3 436 435 437
3 438 439 440
3 440 439 441
3 442 443 445
3 445 443 446
3 443 444 446
3 446 444 447
