ply
format ascii 1.0
element vertex 201
property float x
property float y
property float z
property float s
property float t
element face 202
property list uchar int vertex_indices
end_header
-1.43613 -0.0957123 0.543027 0.185958 0.407296
-1.4164 -0.0950271 0.586655 0.193792 0.407296
-1.44615 -0.144497 0.494707 0.178125 0.400333
-1.42727 -0.143562 0.53936 0.185958 0.400333
-1.40521 -0.142292 0.582019 0.193792 0.400333
-1.41768 -0.190033 0.484338 0.178125 0.393371
-1.39958 -0.188867 0.528583 0.185958 0.393371
-1.38167 -0.187708 0.572268 0.193792 0.393371
-1.40285 -0.236513 0.47864 0.178125 0.386407
-1.3796 -0.234164 0.520719 0.185958 0.386407
-1.36517 -0.23329 0.565437 0.193792 0.386407
-1.39721 -0.284437 0.476081 0.178125 0.379444
-1.37485 -0.281788 0.518612 0.185958 0.379444
-1.35921 -0.280488 0.562967 0.193792 0.379444
-1.38656 -0.331381 0.471813 0.178125 0.372482
-1.36631 -0.328774 0.51507 0.185958 0.372482
-1.35119 -0.327375 0.559646 0.193792 0.372482
-1.38516 -0.380729 0.470691 0.178125 0.365518
-1.36612 -0.378079 0.514677 0.185958 0.365518
-1.3478 -0.375592 0.558241 0.193792 0.365518
-1.37453 -0.427732 0.466428 0.178125 0.358556
-1.35396 -0.424249 0.509769 0.185958 0.358556
-1.33516 -0.421274 0.553004 0.193792 0.358556
-1.36501 -0.474983 0.462542 0.178125 0.351593
-1.34556 -0.471478 0.506278 0.185958 0.351593
-1.32234 -0.466595 0.547695 0.193792 0.351593
-1.35631 -0.522633 0.460871 0.178125 0.344629
-1.33636 -0.518419 0.502489 0.185958 0.344629
-1.3184 -0.515066 0.546064 0.193792 0.344629
-1.34445 -0.569124 0.460046 0.178125 0.337667
-1.32547 -0.56475 0.499991 0.185958 0.337667
-1.31244 -0.563025 0.543595 0.193792 0.337667
-1.32855 -0.613507 0.455326 0.178125 0.330704
-1.311 -0.609408 0.495848 0.185958 0.330704
-1.30236 -0.60942 0.539424 0.193792 0.330704
-1.29214 -0.647951 0.441087 0.178125 0.323741
-1.27604 -0.644189 0.481742 0.185958 0.323741
-1.26635 -0.643636 0.524508 0.193792 0.323741
-1.27267 -0.690635 0.43264 0.178125 0.316778
-1.24613 -0.680876 0.469555 0.185958 0.316778
-1.22711 -0.675123 0.508253 0.193792 0.316778
-1.25057 -0.732224 0.423289 0.178125 0.309815
-1.22386 -0.721602 0.460252 0.185958 0.309815
-1.20646 -0.71636 0.499698 0.193792 0.309815
-1.2225 -0.770279 0.411915 0.178125 0.302852
-1.20213 -0.762859 0.451147 0.185958 0.302852
-1.18262 -0.755878 0.489823 0.193792 0.302852
-1.19334 -0.807293 0.400188 0.178125 0.295889
-1.18228 -0.805644 0.442739 0.185958 0.295889
-1.16367 -0.798797 0.481977 0.193792 0.295889
-1.16643 -0.845509 0.389227 0.178125 0.288926
-1.15561 -0.843903 0.431778 0.185958 0.288926
-1.14901 -0.845389 0.475905 0.193792 0.288926
-1.14067 -0.891114 0.425193 0.185958 0.281963
-1.13784 -0.895719 0.471273 0.193792 0.281963
-1.11685 -0.931935 0.415289 0.185958 0.275
-1.11143 -0.934683 0.460335 0.193792 0.275
-1.33516 -0.421274 0.553004 0.808333 0.552074
-1.30393 -0.419107 0.58664 0.816167 0.552074
-1.32234 -0.466595 0.547695 0.808333 0.545111
-1.29597 -0.465891 0.583367 0.816167 0.545111
-1.3184 -0.515066 0.546064 0.808333 0.538148
-1.29235 -0.514445 0.582043 0.816167 0.538148
-1.31244 -0.563025 0.543595 0.808333 0.531185
-1.29026 -0.564056 0.581414 0.816167 0.531185
-1.30236 -0.60942 0.539424 0.808333 0.524222
-1.28069 -0.609467 0.572073 0.816167 0.524222
-1.26635 -0.643636 0.524508 0.808333 0.517259
-1.24711 -0.643364 0.552302 0.816167 0.517259
-1.22711 -0.675123 0.508253 0.808333 0.510296
-1.21165 -0.676818 0.537293 0.816167 0.510296
-1.20646 -0.71636 0.499698 0.808333 0.503334
-1.18904 -0.717042 0.527976 0.816167 0.503334
-1.18262 -0.755878 0.489823 0.808333 0.49637
-1.16479 -0.756348 0.517929 0.816167 0.49637
-1.16367 -0.798797 0.481977 0.808333 0.489407
-1.14327 -0.797562 0.5091 0.816167 0.489407
-1.14901 -0.845389 0.475905 0.808333 0.482445
-1.12327 -0.840189 0.500953 0.816167 0.482445
-1.13784 -0.895719 0.471273 0.808333 0.475481
-1.11021 -0.888826 0.495911 0.816167 0.475481
-1.11143 -0.934683 0.460335 0.808333 0.468519
-1.08729 -0.930279 0.486477 0.816167 0.468519
-0.332282 1.05861 1.13242 0.008875 0.642778
-0.297305 1.05861 1.13937 0.0167083 0.642778
-0.377983 1.01667 1.15134 0.00104167 0.635815
-0.326481 0.998922 1.14017 0.008875 0.635815
-0.297305 1.01667 1.16739 0.0167083 0.635815
-0.382146 0.958292 1.15737 0.00104167 0.628852
-0.328571 0.933719 1.1364 0.008875 0.628852
-0.292414 0.958702 1.17574 0.0167083 0.628852
-0.384105 0.897022 1.15696 0.00104167 0.621889
-0.329421 0.868705 1.12891 0.008875 0.621889
-0.293459 0.888685 1.16353 0.0167083 0.621889
-0.387345 0.841338 1.16067 0.00104167 0.614926
-0.331346 0.809951 1.12563 0.008875 0.614926
-0.295167 0.824957 1.15491 0.0167083 0.614926
-0.38872 0.784084 1.15902 0.00104167 0.607963
-0.334707 0.757371 1.12765 0.008875 0.607963
-0.296853 0.764887 1.14703 0.0167083 0.607963
-0.387499 0.724552 1.14992 0.00104167 0.601
-0.342272 0.715776 1.14405 0.008875 0.601
-0.301771 0.715853 1.15224 0.0167083 0.601
-0.393583 0.680774 1.1627 0.00104167 0.594037
-0.352502 0.679971 1.1694 0.008875 0.594037
-0.312383 0.681055 1.17936 0.0167083 0.594037
-0.401826 0.641388 1.18191 0.00104167 0.587074
-0.366638 0.650878 1.20758 0.008875 0.587074
-0.323688 0.647245 1.20898 0.0167083 0.587074
-0.417569 0.613349 1.22313 0.00104167 0.580111
-0.376289 0.613135 1.23088 0.008875 0.580111
-0.330269 0.604195 1.221 0.0167083 0.580111
-0.385939 0.57539 1.25418 0.008875 0.573148
-0.344665 0.575154 1.26184 0.0167083 0.573148
-1.29026 -0.564056 0.581414 0.0583333 0.665444
-1.25812 -0.560698 0.614549 0.0661667 0.665444
-1.28069 -0.609467 0.572073 0.0583333 0.658482
-1.24686 -0.605026 0.604572 0.0661667 0.658482
-1.24711 -0.643364 0.552302 0.0583333 0.651518
-1.22005 -0.640483 0.581977 0.0661667 0.651518
-1.21165 -0.676818 0.537293 0.0583333 0.644556
-1.19178 -0.676064 0.564416 0.0661667 0.644556
-1.18904 -0.717042 0.527976 0.0583333 0.637593
-1.1717 -0.71779 0.556346 0.0661667 0.637593
-1.16479 -0.756348 0.517929 0.0583333 0.630629
-1.15137 -0.759744 0.54817 0.0661667 0.630629
-1.14327 -0.797562 0.5091 0.0583333 0.623667
-1.12656 -0.798912 0.537866 0.0661667 0.623667
-1.12327 -0.840189 0.500953 0.0583333 0.616704
-1.1077 -0.842559 0.53041 0.0661667 0.616704
-1.11021 -0.888826 0.495911 0.0583333 0.609741
-1.08837 -0.886413 0.522742 0.0661667 0.609741
-1.08729 -0.930279 0.486477 0.0583333 0.602778
-1.38656 -0.331381 0.471813 0.754708 0.703852
-1.38446 -0.377953 0.420015 0.746875 0.696889
-1.38516 -0.380729 0.470691 0.754708 0.696889
-1.37313 -0.424379 0.415618 0.746875 0.689926
-1.37453 -0.427732 0.466428 0.754708 0.689926
-1.36157 -0.470652 0.413053 0.746875 0.682963
-1.36501 -0.474983 0.462542 0.754708 0.682963
-1.35397 -0.518393 0.413592 0.746875 0.676
-1.35631 -0.522633 0.460871 0.754708 0.676
-1.3433 -0.564973 0.413192 0.746875 0.669037
-1.34445 -0.569124 0.460046 0.754708 0.669037
-1.32591 -0.608293 0.40797 0.746875 0.662074
-1.32855 -0.613507 0.455326 0.754708 0.662074
-1.29765 -0.646392 0.396661 0.746875 0.655111
-1.29214 -0.647951 0.441087 0.754708 0.655111
-1.26974 -0.684376 0.385468 0.746875 0.648148
-1.27267 -0.690635 0.43264 0.754708 0.648148
-1.24686 -0.605026 0.604572 0.560417 0.828815
-1.22074 -0.604226 0.640391 0.56825 0.828815
-1.19704 -0.604611 0.677441 0.576083 0.828815
-1.22005 -0.640483 0.581977 0.560417 0.821852
-1.20105 -0.643341 0.621163 0.56825 0.821852
-1.17743 -0.643797 0.658218 0.576083 0.821852
-1.19178 -0.676064 0.564416 0.560417 0.814889
-1.17415 -0.67822 0.598283 0.56825 0.814889
-1.15501 -0.681246 0.637451 0.576083 0.814889
-1.1717 -0.71779 0.556346 0.560417 0.807926
-1.15249 -0.717405 0.583852 0.56825 0.807926
-1.13351 -0.718957 0.617246 0.576083 0.807926
-1.15137 -0.759744 0.54817 0.560417 0.800963
-1.13021 -0.758065 0.574813 0.56825 0.800963
-1.10948 -0.756617 0.601515 0.576083 0.800963
-1.12656 -0.798912 0.537866 0.560417 0.794
-1.10592 -0.797473 0.564753 0.56825 0.794
-1.08387 -0.794951 0.590733 0.576083 0.794
-1.1077 -0.842559 0.53041 0.560417 0.787037
-1.08802 -0.841835 0.557975 0.56825 0.787037
-1.06371 -0.83743 0.582928 0.576083 0.787037
-0.295167 0.824957 1.15491 0.248958 0.902852
-0.251871 0.821768 1.15883 0.256792 0.902852
-0.296853 0.764887 1.14703 0.248958 0.895889
-0.258007 0.771855 1.16574 0.256792 0.895889
-0.301771 0.715853 1.15224 0.248958 0.888926
-0.264928 0.725979 1.17672 0.256792 0.888926
-0.312383 0.681055 1.17936 0.248958 0.881963
-0.274639 0.688417 1.20029 0.256792 0.881963
-0.323688 0.647245 1.20898 0.248958 0.875
-1.13351 -0.718957 0.617246 0.610417 0.938
-1.11094 -0.720095 0.654688 0.61825 0.938
-1.10948 -0.756617 0.601515 0.610417 0.931037
-1.0866 -0.755602 0.632722 0.61825 0.931037
-1.08387 -0.794951 0.590733 0.610417 0.924074
-1.06595 -0.795428 0.61887 0.61825 0.924074
-1.19704 -0.604611 0.677441 0.583333 0.947704
-1.17109 -0.603859 0.713195 0.591167 0.947704
-1.17743 -0.643797 0.658218 0.583333 0.940741
-1.15232 -0.643438 0.694445 0.591167 0.940741
-0.392145 0.536144 1.27474 0.535417 0.957889
-0.349953 0.534748 1.27961 0.54325 0.957889
-0.392801 0.492288 1.28578 0.535417 0.950926
-0.35345 0.495084 1.30135 0.54325 0.950926
-1.44615 -0.144497 0.494707 0.410958 0.957889
-1.43277 -0.190784 0.438555 0.403125 0.950926
-1.41768 -0.190033 0.484338 0.410958 0.950926
-1.26351 -0.512677 0.616547 0.247917 0.96437
-1.23671 -0.511679 0.65178 0.25575 0.96437
-1.25812 -0.560698 0.614549 0.247917 0.957407
-1.23206 -0.559968 0.650298 0.25575 0.957407
3 47 48 50
3 50 48 51
3 44 45 47
3 47 45 48
3 41 42 44
3 44 42 45
3 38 39 41
3 41 39 42
3 35 36 38
3 38 36 39
3 32 33 35
3 35 33 36
3 29 30 32
3 32 30 33
3 26 27 29
3 29 27 30
3 23 24 26
3 26 24 27
3 20 21 23
3 23 21 24
3 17 18 20
3 20 18 21
3 14 15 17
3 17 15 18
3 11 12 14
3 14 12 15
3 11 9 12
3 8 6 9
3 5 6 8
3 2 3 5
3 5 3 6
3 53 54 55
3 55 54 56
3 51 52 53
3 53 52 54
3 48 49 51
3 51 49 52
3 45 46 48
3 48 46 49
3 42 43 45
3 45 43 46
3 39 40 42
3 42 40 43
3 36 37 39
3 39 37 40
3 33 34 36
3 36 34 37
3 30 31 33
3 33 31 34
3 27 28 30
3 30 28 31
3 24 25 27
3 27 25 28
3 21 22 24
3 24 22 25
3 18 19 21
3 21 19 22
3 15 16 18
3 18 16 19
3 12 13 15
3 15 13 16
3 9 10 12
3 6 7 9
3 3 4 6
3 6 4 7
3 0 1 3
3 2 0 3
3 79 80 81
3 81 80 82
3 77 78 79
3 79 78 80
3 75 76 77
3 77 76 78
3 73 74 75
3 75 74 76
3 71 72 73
3 73 72 74
3 69 70 71
3 71 70 72
3 67 68 69
3 69 68 70
3 65 66 67
3 67 66 68
3 63 64 65
3 65 64 66
3 61 62 63
3 63 62 64
3 59 60 61
3 61 60 62
3 57 58 59
3 59 58 60
3 106 107 109
3 109 107 110
3 103 104 106
3 106 104 107
3 100 101 103
3 103 101 104
3 97 98 100
3 100 98 101
3 94 95 97
3 97 95 98
3 91 92 94
3 94 92 95
3 88 89 91
3 91 89 92
3 85 86 88
3 88 86 89
3 85 83 86
3 110 111 112
3 112 111 113
3 107 108 110
3 110 108 111
3 104 105 107
3 107 105 108
3 101 102 104
3 104 102 105
3 98 99 101
3 101 99 102
3 95 96 98
3 98 96 99
3 92 93 95
3 95 93 96
3 89 90 92
3 92 90 93
3 86 87 89
3 89 87 90
3 83 84 86
3 86 84 87
3 130 131 132
3 128 129 130
3 130 129 131
3 126 127 128
3 128 127 129
3 124 125 126
3 126 125 127
3 122 123 124
3 124 123 125
3 120 121 122
3 122 121 123
3 118 119 120
3 120 119 121
3 116 117 118
3 118 117 119
3 114 115 116
3 116 115 117
3 146 147 148
3 148 147 149
3 144 145 146
3 146 145 147
3 142 143 144
3 144 143 145
3 140 141 142
3 142 141 143
3 138 139 140
3 140 139 141
3 136 137 138
3 138 137 139
3 134 135 136
3 136 135 137
3 134 133 135
3 166 167 169
3 169 167 170
3 163 164 166
3 166 164 167
3 160 161 163
3 163 161 164
3 157 158 160
3 160 158 161
3 154 155 157
3 157 155 158
3 151 152 154
3 154 152 155
3 165 166 168
3 168 166 169
3 162 163 165
3 165 163 166
3 159 160 162
3 162 160 163
3 156 157 159
3 159 157 160
3 153 154 156
3 156 154 157
3 150 151 153
3 153 151 154
3 177 178 179
3 175 176 177
3 177 176 178
3 173 174 175
3 175 174 176
3 171 172 173
3 173 172 174
3 182 183 184
3 184 183 185
3 180 181 182
3 182 181 183
3 186 187 188
3 188 187 189
3 190 191 192
3 192 191 193
3 195 194 196
3 197 198 199
3 199 198 200
