ply
format ascii 1.0
element vertex 108
property float x
property float y
property float z
property float s
property float t
element face 96
property list uchar int vertex_indices
end_header
-0.850063 -0.291986 0.229276 0.288042 0.725148
-0.844512 -0.291922 0.256196 0.295875 0.725148
-0.853816 -0.32277 0.203298 0.280208 0.718185
-0.84869 -0.322872 0.230481 0.288042 0.718185
-0.840729 -0.321889 0.256815 0.295875 0.718185
-0.846773 -0.351612 0.203009 0.280208 0.711222
-0.843875 -0.352652 0.23076 0.288042 0.711222
-0.831481 -0.34971 0.25576 0.295875 0.711222
-0.831593 -0.3766 0.198734 0.280208 0.704259
-0.830195 -0.378404 0.226737 0.288042 0.704259
-0.819666 -0.376042 0.252204 0.295875 0.704259
-0.816491 -0.401377 0.192452 0.280208 0.697296
-0.813475 -0.402535 0.220012 0.288042 0.697296
-0.804168 -0.400575 0.245814 0.295875 0.697296
-0.797494 -0.424094 0.185265 0.280208 0.690333
-0.797779 -0.427101 0.21357 0.288042 0.690333
-0.784861 -0.423032 0.238269 0.295875 0.690333
-0.789286 -0.452687 0.180572 0.280208 0.683371
-0.785459 -0.453583 0.208023 0.288042 0.683371
-0.769978 -0.447715 0.232075 0.295875 0.683371
-0.770334 -0.475256 0.173409 0.280208 0.676407
-0.760775 -0.472644 0.199221 0.288042 0.676407
-0.757696 -0.474048 0.226658 0.295875 0.676407
-0.753362 -0.498808 0.166712 0.280208 0.669444
-0.747065 -0.498171 0.193317 0.288042 0.669444
-0.831481 -0.34971 0.25576 0.651042 0.859815
-0.827616 -0.350341 0.283195 0.658875 0.859815
-0.819666 -0.376042 0.252204 0.651042 0.852852
-0.815936 -0.376789 0.279641 0.658875 0.852852
-0.804168 -0.400575 0.245814 0.651042 0.845889
-0.798635 -0.400481 0.272624 0.658875 0.845889
-0.784861 -0.423032 0.238269 0.651042 0.838926
-0.779988 -0.423274 0.265154 0.658875 0.838926
-0.769978 -0.447715 0.232075 0.651042 0.831963
-0.766918 -0.449038 0.259583 0.658875 0.831963
-0.757696 -0.474048 0.226658 0.651042 0.825
-0.75326 -0.474618 0.253807 0.658875 0.825
-0.81056 -0.376781 0.30657 0.4875 0.866741
-0.803737 -0.376095 0.332898 0.495333 0.866741
-0.795147 -0.401418 0.300191 0.4875 0.859778
-0.788239 -0.400629 0.326479 0.495333 0.859778
-0.779508 -0.425918 0.293728 0.4875 0.852815
-0.772335 -0.424918 0.319891 0.495333 0.852815
-0.764535 -0.450779 0.287515 0.4875 0.845852
-0.75491 -0.448244 0.312673 0.495333 0.845852
-0.749591 -0.475682 0.281314 0.4875 0.838889
-0.742366 -0.474489 0.307478 0.495333 0.838889
0.491052 0.740008 0.215214 0.964583 0.889889
0.501149 0.745831 0.207567 0.972417 0.889889
0.505607 0.746439 0.187381 0.98025 0.889889
0.515054 0.726168 0.225194 0.964583 0.882926
0.523013 0.72861 0.216624 0.972417 0.882926
0.540873 0.747716 0.201457 0.98025 0.882926
0.534366 0.705837 0.233124 0.964583 0.875963
0.541452 0.707035 0.224261 0.972417 0.875963
0.54872 0.711258 0.205318 0.98025 0.875963
0.552369 0.684396 0.240491 0.964583 0.869
0.555026 0.680151 0.229884 0.972417 0.869
0.561408 0.683112 0.21095 0.98025 0.869
0.577466 0.671856 0.250947 0.964583 0.862037
0.584163 0.672483 0.241953 0.972417 0.862037
0.588812 0.673228 0.222104 0.98025 0.862037
-0.775231 -0.399928 0.343322 0.613042 0.897296
-0.772335 -0.424918 0.319891 0.605208 0.890333
-0.759846 -0.424442 0.336944 0.613042 0.890333
-0.75491 -0.448244 0.312673 0.605208 0.883371
-0.745419 -0.449518 0.330991 0.613042 0.883371
-0.742366 -0.474489 0.307478 0.605208 0.876407
-0.730363 -0.474257 0.32476 0.613042 0.876407
-0.728184 -0.499857 0.301603 0.605208 0.869444
0.54872 0.711258 0.205318 0.24375 0.926444
0.557053 0.716789 0.186474 0.251583 0.926444
0.562676 0.718778 0.166494 0.259417 0.926444
0.561408 0.683112 0.21095 0.24375 0.919481
0.564891 0.682529 0.190851 0.251583 0.919481
0.57037 0.684349 0.171388 0.259417 0.919481
0.588812 0.673228 0.222104 0.24375 0.912519
0.590829 0.670973 0.20131 0.251583 0.912519
0.595176 0.671378 0.181369 0.259417 0.912519
0.612292 0.658399 0.231787 0.24375 0.905555
0.616136 0.658222 0.211573 0.251583 0.905555
-0.759846 -0.424442 0.336944 0.495833 0.938
-0.748532 -0.424621 0.354497 0.503667 0.938
-0.745419 -0.449518 0.330991 0.495833 0.931037
-0.733875 -0.449577 0.348459 0.503667 0.931037
-0.730363 -0.474257 0.32476 0.495833 0.924074
0.562676 0.718778 0.166494 0.9125 0.947259
0.57029 0.723263 0.146908 0.920333 0.947259
0.569595 0.717222 0.125228 0.928167 0.947259
0.57037 0.684349 0.171388 0.9125 0.940296
0.580055 0.691156 0.152922 0.920333 0.940296
0.587687 0.695439 0.133575 0.928167 0.940296
0.595176 0.671378 0.181369 0.9125 0.933334
0.602449 0.675056 0.16219 0.920333 0.933334
0.491052 0.740008 0.215214 0.38075 0.954185
0.508973 0.726346 0.23454 0.372917 0.947222
0.515054 0.726168 0.225194 0.38075 0.947222
0.505607 0.746439 0.187381 0.932292 0.956963
0.526783 0.771523 0.172637 0.940125 0.956963
0.540873 0.747716 0.201457 0.932292 0.95
0.542239 0.743901 0.17969 0.940125 0.95
-0.86478 -0.172554 0.202536 0.503125 0.969
-0.858142 -0.17237 0.231049 0.510958 0.969
-0.860495 -0.201548 0.20058 0.503125 0.962037
0.530313 0.708667 0.243331 0.176042 0.973629
0.534366 0.705837 0.233124 0.183875 0.973629
0.55049 0.689714 0.251594 0.176042 0.966667
0.552369 0.684396 0.240491 0.183875 0.966667
3 21 22 24
3 18 19 21
3 21 19 22
3 15 16 18
3 18 16 19
3 12 13 15
3 15 13 16
3 9 10 12
3 12 10 13
3 6 7 9
3 9 7 10
3 3 4 6
3 6 4 7
3 20 21 23
3 23 21 24
3 17 18 20
3 20 18 21
3 14 15 17
3 17 15 18
3 11 12 14
3 14 12 15
3 8 9 11
3 11 9 12
3 5 6 8
3 8 6 9
3 2 3 5
3 5 3 6
3 2 0 3
3 0 1 3
3 3 1 4
3 33 34 35
3 35 34 36
3 31 32 33
3 33 32 34
3 29 30 31
3 31 30 32
3 27 28 29
3 29 28 30
3 25 26 27
3 27 26 28
3 43 44 45
3 45 44 46
3 41 42 43
3 43 42 44
3 39 40 41
3 41 40 42
3 37 38 39
3 57 58 60
3 60 58 61
3 54 55 57
3 57 55 58
3 51 52 54
3 54 52 55
3 48 49 51
3 51 49 52
3 56 57 59
3 59 57 60
3 53 54 56
3 56 54 57
3 50 51 53
3 53 51 54
3 47 48 50
3 50 48 51
3 67 68 69
3 65 66 67
3 67 66 68
3 63 64 65
3 65 64 66
3 63 62 64
3 77 78 80
3 74 75 77
3 77 75 78
3 71 72 74
3 74 72 75
3 76 77 79
3 79 77 80
3 73 74 76
3 76 74 77
3 70 71 73
3 73 71 74
3 83 84 85
3 81 82 83
3 83 82 84
3 90 91 93
3 87 88 90
3 90 88 91
3 89 90 92
3 92 90 93
3 86 87 89
3 89 87 90
3 95 94 96
3 97 98 99
3 99 98 100
3 101 102 103
3 104 105 106
3 106 105 107
