ply
format ascii 1.0
element vertex 141
property float x
property float y
property float z
property float s
property float t
element face 110
property list uchar int vertex_indices
end_header
-0.759724 -0.12639 0.205224 0.41825 0.659889
-0.760246 -0.151696 0.178054 0.410417 0.652926
-0.755042 -0.151661 0.20329 0.41825 0.652926
-0.748655 -0.175352 0.17451 0.410417 0.645963
-0.746746 -0.176077 0.200386 0.41825 0.645963
-0.745275 -0.200783 0.173888 0.410417 0.639
-0.742365 -0.201296 0.198536 0.41825 0.639
-0.742395 -0.226526 0.174384 0.410417 0.632037
-0.739718 -0.227124 0.19816 0.41825 0.632037
-0.736567 -0.251415 0.17419 0.410417 0.625074
-0.73562 -0.252676 0.198409 0.41825 0.625074
-0.732334 -0.276846 0.174373 0.410417 0.618111
-0.727175 -0.276643 0.19748 0.41825 0.618111
-0.731021 -0.303548 0.175258 0.410417 0.611148
-0.727652 -0.304083 0.198979 0.41825 0.611148
-0.723578 -0.327684 0.172921 0.410417 0.604185
-0.719599 -0.327995 0.196532 0.41825 0.604185
-0.709059 -0.348565 0.16713 0.410417 0.597222
-0.70615 -0.349427 0.190985 0.41825 0.597222
-0.759724 -0.12639 0.205224 0.880208 0.808444
-0.753371 -0.126168 0.230098 0.888042 0.808444
-0.755042 -0.151661 0.20329 0.880208 0.801481
-0.748494 -0.151353 0.228104 0.888042 0.801481
-0.746746 -0.176077 0.200386 0.880208 0.794519
-0.744251 -0.176672 0.226303 0.888042 0.794519
-0.742365 -0.201296 0.198536 0.880208 0.787555
-0.738865 -0.201707 0.224155 0.888042 0.787555
-0.739718 -0.227124 0.19816 0.880208 0.780593
-0.73295 -0.226524 0.221848 0.888042 0.780593
-0.73562 -0.252676 0.198409 0.880208 0.77363
-0.728326 -0.25176 0.220949 0.888042 0.77363
-0.727175 -0.276643 0.19748 0.880208 0.766666
-0.726314 -0.278083 0.221865 0.888042 0.766666
-0.715637 -0.328317 0.220196 0.498958 0.866741
-0.711151 -0.328401 0.243729 0.506792 0.866741
-0.703671 -0.350515 0.215095 0.498958 0.859778
-0.699035 -0.350536 0.238624 0.506792 0.859778
-0.691841 -0.372895 0.21003 0.498958 0.852815
-0.686558 -0.372572 0.233393 0.506792 0.852815
-0.67768 -0.394047 0.204256 0.498958 0.845852
-0.672404 -0.393699 0.227592 0.506792 0.845852
-0.662857 -0.414712 0.198287 0.498958 0.838889
-0.748494 -0.151353 0.228104 0.260417 0.902852
-0.740938 -0.150837 0.252465 0.26825 0.902852
-0.744251 -0.176672 0.226303 0.260417 0.895889
-0.732374 -0.175033 0.249209 0.26825 0.895889
-0.738865 -0.201707 0.224155 0.260417 0.888926
-0.730859 -0.200885 0.248352 0.26825 0.888926
-0.73295 -0.226524 0.221848 0.260417 0.881963
-0.729053 -0.22687 0.247394 0.26825 0.881963
-0.728326 -0.25176 0.220949 0.260417 0.875
-0.726106 -0.252664 0.246047 0.26825 0.875
0.417057 0.653187 0.214482 0.909917 0.913481
0.418955 0.627321 0.233436 0.902083 0.906519
0.440199 0.643908 0.224394 0.909917 0.906519
0.431291 0.609789 0.246837 0.902083 0.899555
0.455202 0.629224 0.239493 0.909917 0.899555
0.452334 0.604276 0.265274 0.902083 0.892593
0.466603 0.609869 0.252641 0.909917 0.892593
0.440199 0.643908 0.224394 0.936458 0.913482
0.455148 0.657555 0.220738 0.944292 0.913482
0.455202 0.629224 0.239493 0.936458 0.906518
0.476594 0.64441 0.229699 0.944292 0.906518
0.466603 0.609869 0.252641 0.936458 0.899556
0.479394 0.613336 0.238903 0.944292 0.899556
0.480112 0.59366 0.266852 0.936458 0.892593
0.488665 0.591848 0.251044 0.944292 0.892593
0.484538 0.64002 0.211386 0.408333 0.92737
0.488422 0.637788 0.202297 0.416167 0.92737
0.500314 0.619898 0.217827 0.408333 0.920407
0.507884 0.622381 0.210359 0.416167 0.920407
0.505545 0.588179 0.219692 0.408333 0.913445
0.511173 0.588456 0.211721 0.416167 0.913445
0.521611 0.575382 0.235112 0.408333 0.906481
0.531015 0.574765 0.21994 0.416167 0.906481
0.395161 0.64286 0.233993 0.775 0.925037
0.404325 0.641649 0.218722 0.782833 0.925037
0.407708 0.625266 0.24745 0.775 0.918074
0.418955 0.627321 0.233436 0.782833 0.918074
0.423829 0.613243 0.263061 0.775 0.911111
0.431291 0.609789 0.246837 0.782833 0.911111
-0.760758 0.126045 0.189049 0.942708 0.930593
-0.752315 0.12541 0.211271 0.950542 0.930593
-0.746866 0.12527 0.234181 0.958375 0.930593
-0.766149 0.100886 0.189142 0.942708 0.923629
-0.752234 0.0997065 0.211858 0.950542 0.923629
-0.749991 0.100018 0.235623 0.958375 0.923629
-0.769916 0.0755417 0.188835 0.942708 0.916667
-0.760434 0.0751 0.212765 0.950542 0.916667
-0.727652 -0.304083 0.198979 0.43125 0.938926
-0.723369 -0.30424 0.222505 0.439083 0.938926
-0.719599 -0.327995 0.196532 0.43125 0.931963
-0.715637 -0.328317 0.220196 0.439083 0.931963
-0.70615 -0.349427 0.190985 0.43125 0.925
0.507884 0.622381 0.210359 0.210417 0.943556
0.511524 0.622413 0.192206 0.21825 0.943556
0.515374 0.6227 0.174121 0.226083 0.943556
0.518302 0.621876 0.155742 0.233917 0.943556
0.519531 0.619038 0.136966 0.24175 0.943556
0.511173 0.588456 0.211721 0.210417 0.936593
0.513457 0.587069 0.193679 0.21825 0.936593
0.525095 0.596322 0.178913 0.226083 0.936593
0.534318 0.602728 0.162824 0.233917 0.936593
0.537491 0.602269 0.144702 0.24175 0.936593
0.531015 0.574765 0.21994 0.210417 0.929629
0.533993 0.574204 0.202146 0.21825 0.929629
0.537419 0.574128 0.184543 0.226083 0.929629
0.541568 0.574821 0.167167 0.233917 0.929629
0.548973 0.578939 0.15064 0.24175 0.929629
0.668064 0.385791 0.176932 0.378667 0.944481
0.672326 0.385606 0.153814 0.3865 0.944481
0.676134 0.36443 0.205262 0.370833 0.937519
0.679602 0.363834 0.181933 0.378667 0.937519
0.683364 0.363403 0.158751 0.3865 0.937519
0.688809 0.343113 0.210552 0.370833 0.930556
0.692511 0.342679 0.187297 0.378667 0.930556
0.476594 0.64441 0.229699 0.942708 0.947259
0.480643 0.642292 0.22054 0.950542 0.947259
0.484538 0.64002 0.211386 0.958375 0.947259
0.479394 0.613336 0.238903 0.942708 0.940296
0.494375 0.619406 0.225948 0.950542 0.940296
0.500314 0.619898 0.217827 0.958375 0.940296
0.488665 0.591848 0.251044 0.942708 0.933334
0.497407 0.590333 0.235447 0.950542 0.933334
0.505545 0.588179 0.219692 0.958375 0.933334
0.537491 0.602269 0.144702 0.209375 0.953259
0.538202 0.599076 0.126033 0.217208 0.953259
0.548973 0.578939 0.15064 0.209375 0.946296
0.395161 0.64286 0.233993 0.870333 0.956963
0.400648 0.62969 0.264084 0.8625 0.95
0.407708 0.625266 0.24745 0.870333 0.95
-0.666356 0.386984 0.196462 0.604167 0.957889
-0.659312 0.385241 0.215893 0.612 0.957889
-0.679711 0.365334 0.196226 0.604167 0.950926
-0.674137 0.364803 0.218995 0.612 0.950926
-0.691841 -0.372895 0.21003 0.267208 0.96437
-0.680874 -0.393188 0.180324 0.259375 0.957408
-0.67768 -0.394047 0.204256 0.267208 0.957408
0.037778 0.15111 0.785071 0.634917 0.971778
0.0125946 0.125945 0.795216 0.627083 0.964815
0.0377745 0.125913 0.790008 0.634917 0.964815
3 15 16 17
3 17 16 18
3 13 14 15
3 15 14 16
3 11 12 13
3 13 12 14
3 9 10 11
3 11 10 12
3 9 8 10
3 7 6 8
3 5 6 7
3 3 4 5
3 5 4 6
3 1 2 3
3 3 2 4
3 1 0 2
3 29 30 31
3 31 30 32
3 27 28 29
3 29 28 30
3 25 26 27
3 27 26 28
3 23 24 25
3 25 24 26
3 21 22 23
3 23 22 24
3 19 20 21
3 21 20 22
3 39 40 41
3 37 38 39
3 39 38 40
3 35 36 37
3 37 36 38
3 33 34 35
3 35 34 36
3 48 49 50
3 50 49 51
3 46 47 48
3 48 47 49
3 44 45 46
3 46 45 47
3 42 43 44
3 44 43 45
3 55 56 57
3 57 56 58
3 53 54 55
3 55 54 56
3 53 52 54
3 63 64 65
3 65 64 66
3 61 62 63
3 63 62 64
3 59 60 61
3 61 60 62
3 71 72 73
3 73 72 74
3 69 70 71
3 71 70 72
3 67 68 69
3 69 68 70
3 77 78 79
3 79 78 80
3 75 76 77
3 77 76 78
3 85 86 88
3 82 83 85
3 85 83 86
3 84 85 87
3 87 85 88
3 81 82 84
3 84 82 85
3 91 92 93
3 89 90 91
3 91 90 92
3 102 103 107
3 107 103 108
3 97 98 102
3 102 98 103
3 101 102 106
3 106 102 107
3 96 97 101
3 101 97 102
3 100 101 105
3 105 101 106
3 95 96 100
3 100 96 101
3 99 100 104
3 104 100 105
3 94 95 99
3 99 95 100
3 112 113 115
3 109 110 112
3 112 110 113
3 111 112 114
3 114 112 115
3 111 109 112
3 120 121 123
3 123 121 124
3 117 118 120
3 120 118 121
3 119 120 122
3 122 120 123
3 116 117 119
3 119 117 120
3 125 126 127
3 129 128 130
3 131 132 133
3 133 132 134
3 136 135 137
3 139 138 140
