ply
format ascii 1.0
element vertex 108
property float x
property float y
property float z
property float s
property float t
element face 108
property list uchar int vertex_indices
end_header
-0.784523 -0.269474 0.211599 0.664083 0.777445
-0.787948 -0.29787 0.187615 0.65625 0.770481
-0.783005 -0.297883 0.212642 0.664083 0.770481
-0.780022 -0.298646 0.238271 0.671917 0.770481
-0.775122 -0.298681 0.263384 0.67975 0.770481
-0.787897 -0.327165 0.188894 0.65625 0.763519
-0.781673 -0.326658 0.213751 0.664083 0.763519
-0.777798 -0.327132 0.239248 0.671917 0.763519
-0.771066 -0.326403 0.263845 0.67975 0.763519
-0.780475 -0.353451 0.186518 0.65625 0.756556
-0.772714 -0.352205 0.211039 0.664083 0.756556
-0.76732 -0.352028 0.236098 0.671917 0.756556
-0.760681 -0.351273 0.260704 0.67975 0.756556
-0.762371 -0.374773 0.179696 0.65625 0.749592
-0.757445 -0.37481 0.204859 0.664083 0.749592
-0.751818 -0.374498 0.229812 0.671917 0.749592
-0.745885 -0.374029 0.254617 0.67975 0.749592
-0.749261 -0.398445 0.17406 0.65625 0.74263
-0.745006 -0.398849 0.199442 0.664083 0.74263
-0.739673 -0.398676 0.224551 0.671917 0.74263
-0.732783 -0.397657 0.249107 0.67975 0.74263
-0.735821 -0.422022 0.16834 0.65625 0.735667
-0.728828 -0.42088 0.193025 0.664083 0.735667
-0.724872 -0.421488 0.21848 0.671917 0.735667
-0.716944 -0.419778 0.242668 0.67975 0.735667
-0.721949 -0.445405 0.162517 0.65625 0.728704
-0.716936 -0.445408 0.187741 0.664083 0.728704
-0.709447 -0.443861 0.212224 0.671917 0.728704
-0.703157 -0.443049 0.236925 0.67975 0.728704
-0.819924 -0.135508 0.192927 0.644792 0.890815
-0.813649 -0.135361 0.21979 0.652625 0.890815
-0.805973 -0.134978 0.246164 0.660458 0.890815
-0.815057 -0.162633 0.190891 0.644792 0.883852
-0.809193 -0.162538 0.21787 0.652625 0.883852
-0.797897 -0.161343 0.243159 0.660458 0.883852
-0.80652 -0.188905 0.187999 0.644792 0.876889
-0.800582 -0.188771 0.214833 0.652625 0.876889
-0.789201 -0.187343 0.239971 0.660458 0.876889
-0.801067 -0.215814 0.186906 0.644792 0.869926
-0.795836 -0.215795 0.212836 0.652625 0.869926
-0.787211 -0.214905 0.238822 0.660458 0.869926
-0.794573 -0.242446 0.186641 0.644792 0.862963
-0.788857 -0.242211 0.211324 0.652625 0.862963
-0.785262 -0.242692 0.237682 0.660458 0.862963
0.467421 0.675285 0.22669 0.925 0.913482
0.478994 0.683563 0.220725 0.932833 0.913482
0.485238 0.656098 0.233865 0.925 0.906518
0.503379 0.672674 0.230972 0.932833 0.906518
0.501081 0.641083 0.24971 0.925 0.899556
0.513797 0.64374 0.234824 0.932833 0.899556
0.520797 0.630765 0.267552 0.925 0.892593
0.533763 0.633481 0.252656 0.932833 0.892593
0.520357 0.687333 0.227013 0.675 0.932
0.529465 0.691382 0.219297 0.682833 0.932
0.5362 0.695029 0.200633 0.690667 0.932
0.540143 0.695029 0.180813 0.6985 0.932
0.544085 0.695029 0.160993 0.706333 0.932
0.525429 0.651017 0.228762 0.675 0.925037
0.533071 0.653246 0.220791 0.682833 0.925037
0.541802 0.659255 0.203582 0.690667 0.925037
0.550583 0.665241 0.186017 0.6985 0.925037
0.555719 0.666771 0.166986 0.706333 0.925037
0.550805 0.640838 0.239361 0.675 0.918074
0.555778 0.639805 0.230196 0.682833 0.918074
0.558752 0.638858 0.210765 0.690667 0.918074
0.558647 0.634426 0.190345 0.6985 0.918074
0.56038 0.632127 0.170766 0.706333 0.918074
0.56558 0.623884 0.254931 0.675 0.911111
0.577936 0.625552 0.239375 0.682833 0.911111
0.582011 0.625838 0.220324 0.690667 0.911111
0.585308 0.625288 0.200987 0.6985 0.911111
0.585054 0.620977 0.18059 0.706333 0.911111
-0.727372 -0.397432 0.274083 0.507292 0.938
-0.72248 -0.397489 0.299242 0.515125 0.938
-0.710637 -0.396955 0.315123 0.522958 0.938
-0.713246 -0.420538 0.268228 0.507292 0.931037
-0.708727 -0.420822 0.293545 0.515125 0.931037
-0.696892 -0.420254 0.309444 0.522958 0.931037
-0.699573 -0.443941 0.262542 0.507292 0.924074
-0.695021 -0.444228 0.287868 0.515125 0.924074
0.459695 0.672426 0.234332 0.16875 0.943556
0.467421 0.675285 0.22669 0.176583 0.943556
0.473487 0.654499 0.249113 0.16875 0.936592
0.485238 0.656098 0.233865 0.176583 0.936592
0.491117 0.64191 0.265914 0.16875 0.92963
0.501081 0.641083 0.24971 0.176583 0.92963
0.555719 0.666771 0.166986 0.191667 0.943556
0.559482 0.666642 0.147498 0.1995 0.943556
0.557454 0.659663 0.126703 0.207333 0.943556
0.56038 0.632127 0.170766 0.191667 0.936593
0.564774 0.632841 0.152048 0.1995 0.936593
0.570534 0.635065 0.133605 0.207333 0.936593
0.585054 0.620977 0.18059 0.191667 0.929629
0.586412 0.618421 0.160914 0.1995 0.929629
0.503379 0.672674 0.230972 0.93125 0.947259
0.520357 0.687333 0.227013 0.939083 0.947259
0.513797 0.64374 0.234824 0.93125 0.940296
0.525429 0.651017 0.228762 0.939083 0.940296
0.533763 0.633481 0.252656 0.93125 0.933334
0.550805 0.640838 0.239361 0.939083 0.933334
0.459695 0.672426 0.234332 0.98075 0.940296
0.465606 0.658306 0.266477 0.972917 0.933333
0.473487 0.654499 0.249113 0.98075 0.933333
0.468931 0.706673 0.205519 0.392208 0.954185
0.481738 0.716942 0.199527 0.400042 0.954185
0.478994 0.683563 0.220725 0.384375 0.947222
0.494431 0.697091 0.216177 0.392208 0.947222
0.506897 0.70616 0.209949 0.400042 0.947222
3 23 24 27
3 27 24 28
3 19 20 23
3 23 20 24
3 15 16 19
3 19 16 20
3 11 12 15
3 15 12 16
3 7 8 11
3 11 8 12
3 3 4 7
3 7 4 8
3 22 23 26
3 26 23 27
3 18 19 22
3 22 19 23
3 14 15 18
3 18 15 19
3 10 11 14
3 14 11 15
3 6 7 10
3 10 7 11
3 2 3 6
3 6 3 7
3 21 22 25
3 25 22 26
3 17 18 21
3 21 18 22
3 13 14 17
3 17 14 18
3 9 10 13
3 13 10 14
3 5 6 9
3 9 6 10
3 1 2 5
3 5 2 6
3 1 0 2
3 39 40 42
3 42 40 43
3 36 37 39
3 39 37 40
3 33 34 36
3 36 34 37
3 30 31 33
3 33 31 34
3 38 39 41
3 41 39 42
3 35 36 38
3 38 36 39
3 32 33 35
3 35 33 36
3 29 30 32
3 32 30 33
3 48 49 50
3 50 49 51
3 46 47 48
3 48 47 49
3 44 45 46
3 46 45 47
3 65 66 70
3 70 66 71
3 60 61 65
3 65 61 66
3 55 56 60
3 60 56 61
3 64 65 69
3 69 65 70
3 59 60 64
3 64 60 65
3 54 55 59
3 59 55 60
3 63 64 68
3 68 64 69
3 58 59 63
3 63 59 64
3 53 54 58
3 58 54 59
3 62 63 67
3 67 63 68
3 57 58 62
3 62 58 63
3 52 53 57
3 57 53 58
3 76 77 79
3 73 74 76
3 76 74 77
3 75 76 78
3 78 76 79
3 72 73 75
3 75 73 76
3 82 83 84
3 84 83 85
3 80 81 82
3 82 81 83
3 90 91 93
3 87 88 90
3 90 88 91
3 89 90 92
3 92 90 93
3 86 87 89
3 89 87 90
3 96 97 98
3 98 97 99
3 94 95 96
3 96 95 97
3 101 100 102
3 105 103 106
3 106 104 107
