ply
format ascii 1.0
element vertex 111
property float x
property float y
property float z
property float s
property float t
element face 108
property list uchar int vertex_indices
end_header
-1.08365 -0.334911 0.327997 0.735417 0.645556
-1.07549 -0.334676 0.364953 0.74325 0.645556
-1.07173 -0.370465 0.325127 0.735417 0.638593
-1.05969 -0.368742 0.359084 0.74325 0.638593
-1.0749 -0.411548 0.328347 0.735417 0.631629
-1.04128 -0.401239 0.353823 0.74325 0.631629
-1.06821 -0.449277 0.328578 0.735417 0.624667
-1.03493 -0.4381 0.354134 0.74325 0.624667
-1.04719 -0.480425 0.322212 0.735417 0.617704
-1.03023 -0.475748 0.353085 0.74325 0.617704
-1.03373 -0.514927 0.315987 0.735417 0.610741
-1.01999 -0.511482 0.348186 0.74325 0.610741
-1.01783 -0.548598 0.308993 0.735417 0.603778
-1.00694 -0.546431 0.342305 0.74325 0.603778
-0.996563 -0.579466 0.300369 0.735417 0.596815
-0.986991 -0.577893 0.334072 0.74325 0.596815
-0.977379 -0.611492 0.292374 0.735417 0.589852
-0.969301 -0.610742 0.326601 0.74325 0.589852
-0.958745 -0.643925 0.28454 0.735417 0.582889
-0.950811 -0.643222 0.318855 0.74325 0.582889
-0.939668 -0.676134 0.276572 0.735417 0.575926
-0.931566 -0.675262 0.310854 0.74325 0.575926
-1.00249 -0.486446 0.486081 0.697917 0.852408
-0.983415 -0.486757 0.515891 0.70575 0.852408
-0.965932 -0.487882 0.546652 0.713583 0.852408
-0.988568 -0.518963 0.471557 0.697917 0.845444
-0.969685 -0.519413 0.501506 0.70575 0.845444
-0.951358 -0.520185 0.531836 0.713583 0.845444
-0.976018 -0.553668 0.462233 0.697917 0.838481
-0.956275 -0.552367 0.487264 0.70575 0.838481
-0.937336 -0.55286 0.517318 0.713583 0.838481
-0.952071 -0.583246 0.452063 0.697917 0.831519
-0.937883 -0.583817 0.475133 0.70575 0.831519
-0.923014 -0.585443 0.50262 0.713583 0.831519
-0.931731 -0.614815 0.443601 0.697917 0.824555
-0.920108 -0.617143 0.467957 0.70575 0.824555
-0.916091 -0.649657 0.437381 0.697917 0.817593
-1.11085 -0.338952 0.260933 0.84375 0.853333
-1.09429 -0.335992 0.293145 0.851583 0.853333
-1.08365 -0.334911 0.327997 0.859417 0.853333
-1.09805 -0.374802 0.259677 0.84375 0.846371
-1.07375 -0.368819 0.289607 0.851583 0.846371
-1.07173 -0.370465 0.325127 0.859417 0.846371
-1.08835 -0.411433 0.259143 0.84375 0.839407
-1.07686 -0.409676 0.292445 0.851583 0.839407
-1.0749 -0.411548 0.328347 0.859417 0.839407
-1.07243 -0.445313 0.257108 0.84375 0.832444
-1.07169 -0.447853 0.293056 0.851583 0.832444
-1.06821 -0.449277 0.328578 0.859417 0.832444
-1.06456 -0.482103 0.254409 0.84375 0.825482
-1.05715 -0.48185 0.288721 0.851583 0.825482
-1.04719 -0.480425 0.322212 0.859417 0.825482
-1.04733 -0.514856 0.246863 0.84375 0.818518
-1.0412 -0.51522 0.281602 0.851583 0.818518
-1.03373 -0.514927 0.315987 0.859417 0.818518
-1.05969 -0.368742 0.359084 0.8625 0.853334
-1.06188 -0.372079 0.399542 0.870333 0.853334
-1.04128 -0.401239 0.353823 0.8625 0.84637
-1.05738 -0.410195 0.39759 0.870333 0.84637
-1.03493 -0.4381 0.354134 0.8625 0.839407
-1.05458 -0.44933 0.397806 0.870333 0.839407
-1.03023 -0.475748 0.353085 0.8625 0.832445
-1.04022 -0.483538 0.393434 0.870333 0.832445
-1.01999 -0.511482 0.348186 0.8625 0.825481
-1.02251 -0.516201 0.386029 0.870333 0.825481
-1.00694 -0.546431 0.342305 0.8625 0.818519
-1.03919 -0.48627 0.430418 0.46875 0.866741
-1.02368 -0.487158 0.457269 0.476583 0.866741
-1.00249 -0.486446 0.486081 0.484417 0.866741
-1.02507 -0.520999 0.42457 0.46875 0.859778
-1.00796 -0.519989 0.446389 0.476583 0.859778
-0.988568 -0.518963 0.471557 0.484417 0.859778
-1.01541 -0.558651 0.42057 0.46875 0.852815
-0.996603 -0.556693 0.441931 0.476583 0.852815
-0.976018 -0.553668 0.462233 0.484417 0.852815
-0.991437 -0.588687 0.41064 0.46875 0.845852
-0.972727 -0.586594 0.431924 0.476583 0.845852
-0.952071 -0.583246 0.452063 0.484417 0.845852
-0.971155 -0.620721 0.402239 0.46875 0.838889
-0.954022 -0.619488 0.42421 0.476583 0.838889
-0.931731 -0.614815 0.443601 0.484417 0.838889
-0.333143 0.542831 1.08974 0.537 0.866741
-0.296726 0.542831 1.09699 0.544833 0.866741
-0.259464 0.541069 1.10065 0.552667 0.866741
-0.378104 0.509415 1.10313 0.529167 0.859778
-0.338545 0.504731 1.10016 0.537 0.859778
-0.30527 0.509415 1.11762 0.544833 0.859778
-0.267021 0.505943 1.11719 0.552667 0.859778
-0.382103 0.472661 1.11657 0.529167 0.852815
-0.339861 0.464661 1.10478 0.537 0.852815
-0.305087 0.466191 1.11556 0.544833 0.852815
-0.271406 0.47002 1.13192 0.552667 0.852815
-0.38198 0.433133 1.12404 0.529167 0.845852
-0.337811 0.42337 1.10578 0.537 0.845852
-0.301822 0.422767 1.11126 0.544833 0.845852
-0.273126 0.433582 1.14693 0.552667 0.845852
-0.383877 0.394165 1.13274 0.529167 0.838889
-0.345959 0.394165 1.14029 0.537 0.838889
-0.309542 0.394165 1.14753 0.544833 0.838889
-1.02251 -0.516201 0.386029 0.294792 0.944481
-1.02507 -0.520999 0.42457 0.302625 0.944481
-1.00839 -0.550976 0.379972 0.294792 0.937519
-1.01541 -0.558651 0.42057 0.302625 0.937519
-0.98742 -0.582194 0.371335 0.294792 0.930556
-0.991437 -0.588687 0.41064 0.302625 0.930556
-0.969301 -0.610742 0.326601 0.340625 0.944481
-0.967851 -0.614188 0.363224 0.348458 0.944481
-0.950811 -0.643222 0.318855 0.340625 0.937519
-0.948623 -0.646425 0.355241 0.348458 0.937519
-0.931566 -0.675262 0.310854 0.340625 0.930556
-0.928709 -0.678208 0.347001 0.348458 0.930556
3 18 19 20
3 20 19 21
3 16 17 18
3 18 17 19
3 14 15 16
3 16 15 17
3 12 13 14
3 14 13 15
3 10 11 12
3 12 11 13
3 8 9 10
3 10 9 11
3 6 7 8
3 8 7 9
3 4 5 6
3 6 5 7
3 2 3 4
3 4 3 5
3 0 1 2
3 2 1 3
3 32 33 35
3 29 30 32
3 26 27 29
3 23 24 26
3 26 24 27
3 34 35 36
3 31 32 34
3 34 32 35
3 28 29 31
3 31 29 32
3 25 26 28
3 28 26 29
3 22 23 25
3 25 23 26
3 50 51 53
3 53 51 54
3 47 48 50
3 50 48 51
3 44 45 47
3 47 45 48
3 41 42 44
3 44 42 45
3 38 39 41
3 41 39 42
3 49 50 52
3 52 50 53
3 46 47 49
3 49 47 50
3 43 44 46
3 46 44 47
3 40 41 43
3 43 41 44
3 37 38 40
3 40 38 41
3 63 64 65
3 61 62 63
3 63 62 64
3 59 60 61
3 61 60 62
3 57 58 59
3 59 58 60
3 55 56 57
3 57 56 58
3 76 77 79
3 79 77 80
3 73 74 76
3 76 74 77
3 70 71 73
3 73 71 74
3 67 68 70
3 70 68 71
3 75 76 78
3 78 76 79
3 72 73 75
3 75 73 76
3 69 70 72
3 72 70 73
3 66 67 69
3 69 67 70
3 94 95 98
3 90 91 94
3 94 91 95
3 86 87 90
3 90 87 91
3 82 83 86
3 86 83 87
3 93 94 97
3 97 94 98
3 89 90 93
3 93 90 94
3 85 86 89
3 89 86 90
3 81 82 85
3 85 82 86
3 92 93 96
3 96 93 97
3 88 89 92
3 92 89 93
3 84 85 88
3 88 85 89
3 84 81 85
3 103 102 104
3 101 100 102
3 99 100 101
3 107 108 109
3 109 108 110
3 105 106 107
3 107 106 108
