ply
format ascii 1.0
element vertex 141
property float x
property float y
property float z
property float s
property float t
element face 146
property list uchar int vertex_indices
end_header
-0.32198 0.787056 1.09382 0.008875 0.708037
-0.281878 0.787817 1.10291 0.0167083 0.708037
-0.371458 0.749263 1.10755 0.00104167 0.701074
-0.332307 0.751941 1.11956 0.008875 0.701074
-0.292228 0.752969 1.12916 0.0167083 0.701074
-0.382805 0.715775 1.13599 0.00104167 0.694111
-0.335624 0.701874 1.12183 0.008875 0.694111
-0.298921 0.709091 1.14136 0.0167083 0.694111
-0.391717 0.677547 1.15718 0.00104167 0.687148
-0.335765 0.647686 1.11388 0.008875 0.687148
-0.300371 0.654868 1.13401 0.0167083 0.687148
-0.396667 0.633153 1.16674 0.00104167 0.680185
-0.33812 0.600252 1.11365 0.008875 0.680185
-0.301808 0.603494 1.12725 0.0167083 0.680185
-0.396202 0.581965 1.16054 0.00104167 0.673222
-0.340364 0.554598 1.11337 0.008875 0.673222
-0.305256 0.558435 1.12852 0.0167083 0.673222
-0.400057 0.538992 1.16718 0.00104167 0.666259
-0.341687 0.509415 1.11037 0.008875 0.666259
-0.306689 0.511782 1.12281 0.0167083 0.666259
-0.405634 0.501768 1.18533 0.00104167 0.659296
-0.345959 0.472998 1.12461 0.008875 0.659296
-0.309657 0.473173 1.13227 0.0167083 0.659296
-0.399043 0.45248 1.17425 0.00104167 0.652333
-0.345959 0.433582 1.13245 0.008875 0.652333
-0.309618 0.433687 1.13997 0.0167083 0.652333
-0.398418 0.409096 1.17565 0.00104167 0.64537
-0.360709 0.41097 1.1889 0.008875 0.64537
-0.313557 0.399277 1.16241 0.0167083 0.64537
-1.18283 -0.458861 0.444761 0.938542 0.763111
-1.17275 -0.458165 0.485739 0.946375 0.763111
-1.14866 -0.457248 0.51733 0.954208 0.763111
-1.17121 -0.499025 0.441802 0.938542 0.756148
-1.16401 -0.499351 0.482118 0.946375 0.756148
-1.1416 -0.499067 0.514424 0.954208 0.756148
-1.16364 -0.540905 0.44011 0.938542 0.749185
-1.15424 -0.540107 0.478072 0.946375 0.749185
-1.13058 -0.538033 0.505022 0.954208 0.749185
-1.15009 -0.580607 0.434194 0.938542 0.742222
-1.13332 -0.576021 0.469408 0.946375 0.742222
-1.1125 -0.573918 0.492686 0.954208 0.742222
-1.11808 -0.610912 0.421305 0.938542 0.735259
-1.09753 -0.603834 0.454585 0.946375 0.735259
-1.0798 -0.603164 0.478822 0.954208 0.735259
-1.09828 -0.647556 0.413024 0.938542 0.728296
-1.07995 -0.641241 0.447299 0.946375 0.728296
-1.05783 -0.637915 0.469712 0.954208 0.728296
-1.08159 -0.686364 0.405909 0.938542 0.721333
-1.06508 -0.680754 0.441141 0.946375 0.721333
-1.04149 -0.676283 0.463102 0.954208 0.721333
-1.05679 -0.720134 0.395747 0.938542 0.71437
-1.04196 -0.715246 0.431564 0.946375 0.71437
-1.02642 -0.716046 0.457067 0.954208 0.71437
-1.03317 -0.754489 0.38603 0.938542 0.707408
-1.02207 -0.751992 0.423328 0.946375 0.707408
-1.01215 -0.757075 0.451397 0.954208 0.707408
-0.298921 0.709091 1.14136 0.138542 0.783926
-0.261205 0.715776 1.16018 0.146375 0.783926
-0.300371 0.654868 1.13401 0.138542 0.776963
-0.270715 0.678582 1.18314 0.146375 0.776963
-0.301808 0.603494 1.12725 0.138542 0.77
-0.280191 0.64131 1.20595 0.146375 0.77
-0.305256 0.558435 1.12852 0.138542 0.763037
-0.270482 0.564045 1.14739 0.146375 0.763037
-0.306689 0.511782 1.12281 0.138542 0.756074
-0.269763 0.511138 1.12866 0.146375 0.756074
-0.309657 0.473173 1.13227 0.138542 0.749111
-0.27339 0.473457 1.1402 0.146375 0.749111
-0.309618 0.433687 1.13997 0.138542 0.742148
-0.273126 0.433582 1.14693 0.146375 0.742148
-0.313557 0.399277 1.16241 0.138542 0.735185
-1.13058 -0.538033 0.505022 0.65625 0.822334
-1.10622 -0.536781 0.536378 0.664083 0.822334
-1.08466 -0.536867 0.569001 0.671917 0.822334
-1.1125 -0.573918 0.492686 0.65625 0.81537
-1.09181 -0.573161 0.520804 0.664083 0.81537
-1.06853 -0.572358 0.552627 0.671917 0.81537
-1.0798 -0.603164 0.478822 0.65625 0.808407
-1.06974 -0.606834 0.506619 0.664083 0.808407
-1.05011 -0.60657 0.535078 0.671917 0.808407
-1.05783 -0.637915 0.469712 0.65625 0.801445
-1.03936 -0.636717 0.493508 0.664083 0.801445
-1.02166 -0.635967 0.517575 0.671917 0.801445
-1.04149 -0.676283 0.463102 0.65625 0.794481
-1.0214 -0.673981 0.48629 0.664083 0.794481
-1.00465 -0.673849 0.510954 0.671917 0.794481
-1.02642 -0.716046 0.457067 0.65625 0.787519
-1.01285 -0.718272 0.483576 0.664083 0.787519
-0.995787 -0.718058 0.508513 0.671917 0.787519
-1.01215 -0.757075 0.451397 0.65625 0.780556
-0.995646 -0.757327 0.476755 0.664083 0.780556
-1.18261 -0.455698 0.401846 0.319792 0.872778
-1.18283 -0.458861 0.444761 0.327625 0.872778
-1.17511 -0.497443 0.402103 0.319792 0.865815
-1.17121 -0.499025 0.441802 0.327625 0.865815
-1.1615 -0.536367 0.398074 0.319792 0.858852
-1.16364 -0.540905 0.44011 0.327625 0.858852
-1.1438 -0.573564 0.390449 0.319792 0.851889
-1.15009 -0.580607 0.434194 0.327625 0.851889
-1.11835 -0.606894 0.380181 0.319792 0.844926
-1.11808 -0.610912 0.421305 0.327625 0.844926
-1.09766 -0.642689 0.37153 0.319792 0.837963
-1.09828 -0.647556 0.413024 0.327625 0.837963
-1.18483 -0.404423 0.2802 0.686458 0.883408
-1.18135 -0.405781 0.318631 0.694292 0.883408
-1.18635 -0.410086 0.359899 0.702125 0.883408
-1.18238 -0.446979 0.281531 0.686458 0.876444
-1.17644 -0.447559 0.319487 0.694292 0.876444
-1.16904 -0.447589 0.357103 0.702125 0.876444
-1.18599 -0.492467 0.284334 0.686458 0.869482
-1.16841 -0.488273 0.319505 0.694292 0.869482
-1.15838 -0.487202 0.356315 0.702125 0.869482
-1.17753 -0.533263 0.281406 0.686458 0.862519
-1.16281 -0.530013 0.31758 0.694292 0.862519
-1.15999 -0.532176 0.35692 0.702125 0.862519
-1.16106 -0.570761 0.273669 0.686458 0.855555
-1.14993 -0.569024 0.31101 0.694292 0.855555
-1.14278 -0.569243 0.349318 0.702125 0.855555
-1.06853 -0.572358 0.552627 0.983333 0.889889
-1.04966 -0.573933 0.586789 0.991167 0.889889
-1.05011 -0.60657 0.535078 0.983333 0.882926
-1.0317 -0.608518 0.569398 0.991167 0.882926
-1.02166 -0.635967 0.517575 0.983333 0.875963
-1.01086 -0.64116 0.550455 0.991167 0.875963
-1.00465 -0.673849 0.510954 0.983333 0.869
-0.996122 -0.679314 0.540059 0.991167 0.869
-0.995787 -0.718058 0.508513 0.983333 0.862037
-0.979323 -0.718274 0.533754 0.991167 0.862037
-1.16904 -0.447589 0.357103 0.913542 0.913481
-1.18261 -0.455698 0.401846 0.921375 0.913481
-1.15838 -0.487202 0.356315 0.913542 0.906519
-1.17511 -0.497443 0.402103 0.921375 0.906519
-1.15999 -0.532176 0.35692 0.913542 0.899556
-1.1615 -0.536367 0.398074 0.921375 0.899556
-1.14278 -0.569243 0.349318 0.913542 0.892592
-1.1438 -0.573564 0.390449 0.921375 0.892592
-1.01086 -0.64116 0.550455 0.598958 0.938
-0.993525 -0.643987 0.585493 0.606792 0.938
-0.996122 -0.679314 0.540059 0.598958 0.931037
-0.97782 -0.67996 0.569382 0.606792 0.931037
-0.979323 -0.718274 0.533754 0.598958 0.924074
3 24 25 27
3 27 25 28
3 21 22 24
3 24 22 25
3 18 19 21
3 21 19 22
3 15 16 18
3 18 16 19
3 12 13 15
3 15 13 16
3 9 10 12
3 12 10 13
3 6 7 9
3 9 7 10
3 3 4 6
3 6 4 7
3 23 24 26
3 26 24 27
3 20 21 23
3 23 21 24
3 17 18 20
3 20 18 21
3 14 15 17
3 17 15 18
3 11 12 14
3 14 12 15
3 8 9 11
3 11 9 12
3 5 6 8
3 8 6 9
3 2 3 5
3 5 3 6
3 2 0 3
3 0 1 3
3 3 1 4
3 51 52 54
3 54 52 55
3 48 49 51
3 51 49 52
3 45 46 48
3 48 46 49
3 42 43 45
3 45 43 46
3 39 40 42
3 42 40 43
3 36 37 39
3 39 37 40
3 33 34 36
3 36 34 37
3 50 51 53
3 53 51 54
3 47 48 50
3 50 48 51
3 44 45 47
3 47 45 48
3 41 42 44
3 44 42 45
3 38 39 41
3 41 39 42
3 35 36 38
3 38 36 39
3 32 33 35
3 35 33 36
3 29 30 32
3 32 30 33
3 30 31 33
3 33 31 34
3 68 69 70
3 66 67 68
3 68 67 69
3 64 65 66
3 66 65 67
3 62 63 64
3 64 63 65
3 60 61 62
3 62 61 63
3 58 59 60
3 60 59 61
3 56 57 58
3 58 57 59
3 87 88 90
3 84 85 87
3 87 85 88
3 81 82 84
3 84 82 85
3 78 79 81
3 81 79 82
3 75 76 78
3 78 76 79
3 72 73 75
3 75 73 76
3 86 87 89
3 89 87 90
3 83 84 86
3 86 84 87
3 80 81 83
3 83 81 84
3 77 78 80
3 80 78 81
3 74 75 77
3 77 75 78
3 71 72 74
3 74 72 75
3 99 100 101
3 101 100 102
3 97 98 99
3 99 98 100
3 95 96 97
3 97 96 98
3 93 94 95
3 95 94 96
3 91 92 93
3 93 92 94
3 113 114 116
3 116 114 117
3 110 111 113
3 113 111 114
3 107 108 110
3 110 108 111
3 104 105 107
3 107 105 108
3 112 113 115
3 115 113 116
3 109 110 112
3 112 110 113
3 106 107 109
3 109 107 110
3 103 104 106
3 106 104 107
3 124 125 126
3 126 125 127
3 122 123 124
3 124 123 125
3 120 121 122
3 122 121 123
3 118 119 120
3 120 119 121
3 132 133 134
3 134 133 135
3 130 131 132
3 132 131 133
3 128 129 130
3 130 129 131
3 138 139 140
3 136 137 138
3 138 137 139
