ply
format ascii 1.0
element vertex 87
property float x
property float y
property float z
property float s
property float t
element face 83
property list uchar int vertex_indices
end_header
-0.929275 -0.285325 0.24894 0.046375 0.724222
-0.922195 -0.285012 0.279128 0.0542083 0.724222
-0.931816 -0.318059 0.220364 0.0385417 0.717259
-0.928679 -0.31899 0.25048 0.046375 0.717259
-0.918062 -0.317346 0.278509 0.0542083 0.717259
-0.918251 -0.347129 0.218641 0.0385417 0.710296
-0.914482 -0.347901 0.248348 0.046375 0.710296
-0.9049 -0.346458 0.276417 0.0542083 0.710296
-0.912697 -0.378987 0.218814 0.0385417 0.703333
-0.898756 -0.375586 0.245768 0.046375 0.703333
-0.897522 -0.377487 0.276074 0.0542083 0.703333
-0.895439 -0.405514 0.213992 0.0385417 0.696371
-0.885399 -0.403566 0.241814 0.046375 0.696371
-0.885563 -0.406274 0.27248 0.0542083 0.696371
-0.873688 -0.429495 0.205934 0.0385417 0.689407
-0.866362 -0.428705 0.234316 0.046375 0.689407
-0.866144 -0.431447 0.264759 0.0542083 0.689407
-0.861544 -0.458155 0.200144 0.0385417 0.682444
-0.844487 -0.452107 0.226073 0.046375 0.682444
-0.844711 -0.455291 0.256438 0.0542083 0.682444
-0.84585 -0.485129 0.193512 0.0385417 0.675482
-0.830928 -0.47984 0.220065 0.046375 0.675482
-0.829397 -0.482265 0.249984 0.0542083 0.675482
-0.829499 -0.511758 0.186728 0.0385417 0.668518
-0.819656 -0.509224 0.21464 0.046375 0.668518
-0.815473 -0.510196 0.243941 0.0542083 0.668518
-0.911293 -0.317104 0.308799 0.0572917 0.724222
-0.900558 -0.315553 0.338844 0.065125 0.724222
-0.905102 -0.348766 0.307551 0.0572917 0.717259
-0.897014 -0.347982 0.337289 0.065125 0.717259
-0.887543 -0.34674 0.367608 0.0729583 0.717259
-0.898368 -0.380292 0.307405 0.0572917 0.710296
-0.891235 -0.379734 0.336191 0.065125 0.710296
-0.880845 -0.377874 0.364834 0.0729583 0.710296
-0.886221 -0.409246 0.303729 0.0572917 0.703333
-0.877172 -0.407745 0.331764 0.065125 0.703333
-0.868132 -0.406228 0.35957 0.0729583 0.703333
-0.865295 -0.433908 0.295379 0.0572917 0.69637
-0.857532 -0.432912 0.323744 0.065125 0.69637
-0.851515 -0.43279 0.352687 0.0729583 0.69637
-0.845859 -0.45902 0.287547 0.0572917 0.689407
-0.840383 -0.459181 0.316666 0.065125 0.689407
-0.832202 -0.457855 0.344687 0.0729583 0.689407
-0.830744 -0.486409 0.281186 0.0572917 0.682445
-0.824078 -0.485886 0.309908 0.065125 0.682445
-0.813001 -0.482737 0.336734 0.0729583 0.682445
-0.814157 -0.512988 0.274326 0.0572917 0.675481
-0.806615 -0.511869 0.302714 0.065125 0.675481
-0.797911 -0.509991 0.330484 0.0729583 0.675481
-0.797202 -0.539306 0.267342 0.0572917 0.668519
-0.791367 -0.539265 0.296352 0.065125 0.668519
-0.783737 -0.537991 0.324612 0.0729583 0.668519
-0.9049 -0.346458 0.276417 0.59375 0.897296
-0.905102 -0.348766 0.307551 0.601583 0.897296
-0.897522 -0.377487 0.276074 0.59375 0.890333
-0.898368 -0.380292 0.307405 0.601583 0.890333
-0.885563 -0.406274 0.27248 0.59375 0.883371
-0.886221 -0.409246 0.303729 0.601583 0.883371
-0.866144 -0.431447 0.264759 0.59375 0.876407
-0.865295 -0.433908 0.295379 0.601583 0.876407
-0.844711 -0.455291 0.256438 0.59375 0.869444
-0.845859 -0.45902 0.287547 0.601583 0.869444
0.554531 0.812162 0.181731 0.890625 0.913481
0.564901 0.820829 0.161285 0.898458 0.913481
0.579187 0.794589 0.191933 0.890625 0.906519
0.585179 0.796749 0.170242 0.898458 0.906519
0.6009 0.773209 0.201152 0.890625 0.899555
0.606262 0.774456 0.179391 0.898458 0.899555
0.624655 0.754738 0.211042 0.890625 0.892593
0.628348 0.753912 0.18881 0.898458 0.892593
0.541784 0.799847 0.200788 0.763542 0.925037
0.554531 0.812162 0.181731 0.771375 0.925037
0.564088 0.779809 0.210104 0.763542 0.918074
0.579187 0.794589 0.191933 0.771375 0.918074
0.592961 0.768603 0.221872 0.763542 0.911111
0.6009 0.773209 0.201152 0.771375 0.911111
0.58931 0.79636 0.147956 0.188042 0.943556
0.606262 0.774456 0.179391 0.180208 0.936592
0.611576 0.775624 0.157543 0.188042 0.936592
0.628348 0.753912 0.18881 0.180208 0.92963
0.634301 0.755791 0.167223 0.188042 0.92963
0.541784 0.799847 0.200788 0.369292 0.954185
0.564272 0.786089 0.233713 0.361458 0.947222
0.564088 0.779809 0.210104 0.369292 0.947222
0.611576 0.775624 0.157543 0.1875 0.973629
0.616517 0.776305 0.135544 0.195333 0.973629
0.634301 0.755791 0.167223 0.1875 0.966667
3 21 22 24
3 24 22 25
3 18 19 21
3 21 19 22
3 15 16 18
3 18 16 19
3 12 13 15
3 15 13 16
3 9 10 12
3 12 10 13
3 6 7 9
3 9 7 10
3 3 4 6
3 6 4 7
3 20 21 23
3 23 21 24
3 17 18 20
3 20 18 21
3 14 15 17
3 17 15 18
3 11 12 14
3 14 12 15
3 8 9 11
3 11 9 12
3 5 6 8
3 8 6 9
3 2 3 5
3 5 3 6
3 2 0 3
3 0 1 3
3 3 1 4
3 47 48 50
3 50 48 51
3 44 45 47
3 47 45 48
3 41 42 44
3 44 42 45
3 38 39 41
3 41 39 42
3 35 36 38
3 38 36 39
3 32 33 35
3 35 33 36
3 29 30 32
3 32 30 33
3 46 47 49
3 49 47 50
3 43 44 46
3 46 44 47
3 40 41 43
3 43 41 44
3 37 38 40
3 40 38 41
3 34 35 37
3 37 35 38
3 31 32 34
3 34 32 35
3 28 29 31
3 31 29 32
3 26 27 28
3 28 27 29
3 58 59 60
3 60 59 61
3 56 57 58
3 58 57 59
3 54 55 56
3 56 55 57
3 52 53 54
3 54 53 55
3 66 67 68
3 68 67 69
3 64 65 66
3 62 63 64
3 64 63 65
3 72 73 74
3 74 73 75
3 70 71 72
3 72 71 73
3 77 78 79
3 79 78 80
3 77 76 78
3 82 81 83
3 84 85 86
