ply
format ascii 1.0
element vertex 353
property float x
property float y
property float z
property float s
property float t
element face 370
property list uchar int vertex_indices
end_header
-1.69197 0 0.522263 0.467708 0.386519
-1.65831 7.52679e-17 0.569441 0.475542 0.386519
-1.65578 7.56451e-17 0.626803 0.483375 0.386519
-1.63565 7.52179e-17 0.677465 0.491208 0.386519
-1.68906 -0.0552145 0.520295 0.467708 0.379556
-1.64544 -0.0541406 0.564317 0.475542 0.379556
-1.63901 -0.0542843 0.6201 0.483375 0.379556
-1.61942 -0.0539913 0.670745 0.491208 0.379556
-1.64835 -0.108418 0.506695 0.467708 0.372592
-1.63298 -0.108115 0.559337 0.475542 0.372592
-1.61629 -0.107719 0.611149 0.483375 0.372592
-1.60477 -0.107665 0.664674 0.491208 0.372592
-1.59974 -0.158792 0.490715 0.467708 0.36563
-1.59519 -0.15939 0.545693 0.475542 0.36563
-1.57426 -0.158347 0.594906 0.483375 0.36563
-1.56725 -0.1587 0.649134 0.491208 0.36563
-1.60007 -0.213061 0.489763 0.467708 0.358667
-1.58874 -0.212963 0.542779 0.475542 0.358667
-1.56422 -0.211083 0.59076 0.483375 0.358667
-1.55208 -0.210861 0.642853 0.491208 0.358667
-1.59303 -0.266788 0.48655 0.467708 0.351704
-1.58483 -0.267195 0.540733 0.475542 0.351704
-1.57772 -0.267791 0.595498 0.483375 0.351704
-1.55298 -0.265385 0.643225 0.491208 0.351704
-1.58492 -0.320488 0.483006 0.467708 0.344741
-1.57735 -0.32111 0.537462 0.475542 0.344741
-1.56685 -0.321139 0.591034 0.483375 0.344741
-1.54453 -0.318731 0.639726 0.491208 0.344741
-1.58381 -0.375968 0.481585 0.467708 0.337778
-1.57522 -0.376468 0.536008 0.475542 0.337778
-1.55533 -0.374257 0.586326 0.483375 0.337778
-1.54069 -0.373286 0.638132 0.491208 0.337778
-1.57883 -0.431015 0.478982 0.467708 0.330815
-1.54664 -0.425112 0.525562 0.475542 0.330815
-1.53487 -0.424779 0.578249 0.483375 0.330815
-1.52835 -0.425906 0.633022 0.491208 0.330815
-1.57121 -0.485596 0.475571 0.467708 0.323852
-1.54307 -0.48018 0.523621 0.475542 0.323852
-1.52985 -0.479362 0.575993 0.483375 0.323852
-1.53007 -0.482774 0.633734 0.491208 0.323852
-1.55937 -0.539027 0.47306 0.467708 0.316889
-1.51923 -0.528647 0.514802 0.475542 0.316889
-1.51309 -0.530181 0.569314 0.483375 0.316889
-1.51596 -0.534914 0.627889 0.491208 0.316889
-1.55148 -0.594013 0.473924 0.467708 0.309926
-1.51656 -0.584383 0.515324 0.475542 0.309926
-1.48993 -0.577994 0.560233 0.483375 0.309926
-1.4888 -0.581635 0.616639 0.491208 0.309926
-1.54308 -0.648998 0.474644 0.467708 0.302963
-1.51619 -0.641824 0.518812 0.475542 0.302963
-1.48986 -0.634792 0.562002 0.483375 0.302963
-1.48787 -0.638282 0.616255 0.491208 0.302963
-1.50317 -0.689617 0.462513 0.467708 0.296
-1.49042 -0.688259 0.510804 0.475542 0.296
-1.46476 -0.680881 0.554002 0.483375 0.296
-1.46241 -0.684311 0.605713 0.491208 0.296
-1.49495 -0.744669 0.456969 0.467708 0.289037
-1.4664 -0.735337 0.500574 0.475542 0.289037
-1.43589 -0.724888 0.542091 0.483375 0.289037
-1.4247 -0.724116 0.590093 0.491208 0.289037
-1.48724 -0.801609 0.451499 0.467708 0.282074
-1.45775 -0.791073 0.495557 0.475542 0.282074
-1.43119 -0.781996 0.539291 0.483375 0.282074
-1.41556 -0.778804 0.586307 0.491208 0.282074
-1.46037 -0.849153 0.440162 0.467708 0.275111
-1.43489 -0.840141 0.485675 0.475542 0.275111
-1.4069 -0.829523 0.529086 0.483375 0.275111
-1.39262 -0.826898 0.576805 0.491208 0.275111
-1.42348 -0.89059 0.42582 0.467708 0.268148
-1.40489 -0.8852 0.473371 0.475542 0.268148
-1.38512 -0.878978 0.519819 0.483375 0.268148
-1.36087 -0.869809 0.563653 0.491208 0.268148
-1.37931 -0.926393 0.409358 0.467708 0.261185
-1.36485 -0.92332 0.457704 0.475542 0.261185
-1.34514 -0.916627 0.50373 0.483375 0.261185
-1.32976 -0.912809 0.550769 0.491208 0.261185
-1.34 -0.96419 0.3944 0.467708 0.254222
-1.33459 -0.967401 0.445339 0.475542 0.254222
-1.32914 -0.970633 0.496618 0.483375 0.254222
-1.29948 -0.956092 0.538224 0.491208 0.254222
-1.31309 -1.01806 0.435891 0.475542 0.247259
-1.29954 -1.01522 0.484412 0.483375 0.247259
-1.26019 -0.992041 0.521952 0.491208 0.247259
-1.27685 -1.05722 0.421552 0.475542 0.240296
-1.26505 -1.0556 0.470395 0.483375 0.240296
-1.24673 -1.04846 0.516373 0.491208 0.240296
-1.23526 -1.09945 0.458132 0.483375 0.233334
-1.22544 -1.09946 0.507558 0.491208 0.233334
-1.68906 -0.0552145 0.520295 0.857833 0.459074
-1.65878 -0.108395 0.452389 0.85 0.452111
-1.64835 -0.108418 0.506695 0.857833 0.452111
-1.63499 -0.16123 0.444504 0.85 0.445148
-1.59974 -0.158792 0.490715 0.857833 0.445148
-1.62364 -0.214778 0.440015 0.85 0.438185
-1.60007 -0.213061 0.489763 0.857833 0.438185
-1.61742 -0.269078 0.436911 0.85 0.431222
-1.59303 -0.266788 0.48655 0.857833 0.431222
-1.6069 -0.322768 0.432646 0.85 0.424259
-1.58492 -0.320488 0.483006 0.857833 0.424259
-1.59949 -0.377147 0.429216 0.85 0.417296
-1.58381 -0.375968 0.481585 0.857833 0.417296
-1.59275 -0.431882 0.42596 0.85 0.410333
-1.57883 -0.431015 0.478982 0.857833 0.410333
-1.58391 -0.486327 0.424309 0.85 0.40337
-1.57121 -0.485596 0.475571 0.857833 0.40337
-1.56778 -0.538513 0.422857 0.85 0.396408
-1.55937 -0.539027 0.47306 0.857833 0.396408
-1.55527 -0.591679 0.422367 0.85 0.389444
-1.55148 -0.594013 0.473924 0.857833 0.389444
-1.53904 -0.643157 0.420854 0.85 0.382481
-1.54308 -0.648998 0.474644 0.857833 0.382481
-1.51553 -0.690781 0.413911 0.85 0.375519
-1.50317 -0.689617 0.462513 0.857833 0.375519
-1.48883 -0.736725 0.402669 0.85 0.368555
-1.49495 -0.744669 0.456969 0.857833 0.368555
-1.4673 -0.785537 0.392803 0.85 0.361593
-1.48724 -0.801609 0.451499 0.857833 0.361593
-1.44191 -0.832667 0.381879 0.85 0.35463
-1.46037 -0.849153 0.440162 0.857833 0.35463
-1.54069 -0.373286 0.638132 0.55625 0.479445
-1.50771 -0.372034 0.677627 0.564083 0.479445
-1.52835 -0.425906 0.633022 0.55625 0.472481
-1.49702 -0.42492 0.673166 0.564083 0.472481
-1.53007 -0.482774 0.633734 0.55625 0.465519
-1.48463 -0.47719 0.66794 0.564083 0.465519
-1.51596 -0.534914 0.627889 0.55625 0.458556
-1.46822 -0.527811 0.6609 0.564083 0.458556
-1.4888 -0.581635 0.616639 0.55625 0.451592
-1.45944 -0.580961 0.657299 0.564083 0.451592
-1.48787 -0.638282 0.616255 0.55625 0.44463
-1.45611 -0.636561 0.65615 0.564083 0.44463
-1.46241 -0.684311 0.605713 0.55625 0.437667
-1.43703 -0.683868 0.641909 0.564083 0.437667
-1.4247 -0.724116 0.590093 0.55625 0.430704
-1.39749 -0.720939 0.618897 0.564083 0.430704
-1.41556 -0.778804 0.586307 0.55625 0.423741
-1.37713 -0.769249 0.610669 0.564083 0.423741
-1.39262 -0.826898 0.576805 0.55625 0.416778
-1.35265 -0.815703 0.600622 0.564083 0.416778
-1.36087 -0.869809 0.563653 0.55625 0.409815
-1.3252 -0.860511 0.589257 0.564083 0.409815
-1.32976 -0.912809 0.550769 0.55625 0.402852
-1.29656 -0.9045 0.577361 0.564083 0.402852
-1.29948 -0.956092 0.538224 0.55625 0.395889
-1.27034 -0.950194 0.566542 0.564083 0.395889
-1.26019 -0.992041 0.521952 0.55625 0.388926
-1.24079 -0.99337 0.554241 0.564083 0.388926
-1.24673 -1.04846 0.516373 0.55625 0.381963
-1.23361 -1.05547 0.551945 0.564083 0.381963
-1.22544 -1.09946 0.507558 0.55625 0.375
0.31086 0.339114 1.71685 0.911458 0.559037
0.368486 0.340137 1.71075 0.919292 0.559037
0.305184 0.277435 1.69654 0.911458 0.552074
0.368487 0.283447 1.72203 0.919292 0.552074
0.304324 0.221323 1.70277 0.911458 0.545111
0.365799 0.225104 1.72066 0.919292 0.545111
0.303923 0.165773 1.71152 0.911458 0.538148
0.368487 0.170068 1.74458 0.919292 0.538148
0.299415 0.108876 1.69696 0.911458 0.531185
0.368487 0.113379 1.75586 0.919292 0.531185
0.297454 0.0540817 1.69661 0.911458 0.524222
0.357484 0.0549967 1.71437 0.919292 0.524222
0.297416 7.50439e-17 1.70714 0.911458 0.517259
0.348675 0 1.68279 0.919292 0.517259
0.296169 -0.0546036 1.71381 0.911458 0.510296
0.346047 -0.0538678 1.68 0.919292 0.510296
0.293592 -0.109798 1.71299 0.911458 0.503333
0.349684 -0.110173 1.70789 0.919292 0.503333
0.291902 -0.166113 1.71755 0.911458 0.49637
0.346897 -0.165933 1.70468 0.919292 0.49637
0.288221 -0.221895 1.71054 0.911458 0.489408
0.341595 -0.220539 1.68912 0.919292 0.489408
0.287273 -0.280568 1.71995 0.911458 0.482444
0.339217 -0.27716 1.68804 0.919292 0.482444
0.287302 -0.339237 1.72219 0.911458 0.475481
0.341419 -0.338967 1.71001 0.919292 0.475481
0.288062 -0.396825 1.71547 0.911458 0.468519
0.311796 0.396826 1.71075 0.225542 0.580296
0.255106 0.340137 1.73331 0.217708 0.573333
0.31086 0.339114 1.71685 0.225542 0.573333
0.252154 0.280167 1.72439 0.217708 0.566371
0.305184 0.277435 1.69654 0.225542 0.566371
0.250302 0.222487 1.72279 0.217708 0.559407
0.304324 0.221323 1.70277 0.225542 0.559407
0.249992 0.166659 1.73171 0.217708 0.552444
0.303923 0.165773 1.71152 0.225542 0.552444
0.255106 0.113379 1.77841 0.217708 0.545482
0.299415 0.108876 1.69696 0.225542 0.545482
0.255106 0.0566893 1.78969 0.217708 0.538518
0.297454 0.0540817 1.69661 0.225542 0.538518
0.255106 0 1.80096 0.217708 0.531556
0.297416 7.50439e-17 1.70714 0.225542 0.531556
0.247069 -0.0558478 1.76397 0.217708 0.524593
0.296169 -0.0546036 1.71381 0.225542 0.524593
0.240802 -0.110768 1.73915 0.217708 0.517629
0.293592 -0.109798 1.71299 0.225542 0.517629
0.236614 -0.166173 1.72918 0.217708 0.510667
0.291902 -0.166113 1.71755 0.225542 0.510667
0.232929 -0.222069 1.72292 0.217708 0.503704
0.288221 -0.221895 1.71054 0.225542 0.503704
-1.45944 -0.580961 0.657299 0.746875 0.645555
-1.42996 -0.580213 0.697766 0.754708 0.645555
-1.45611 -0.636561 0.65615 0.746875 0.638593
-1.42378 -0.634526 0.695468 0.754708 0.638593
-1.43703 -0.683868 0.641909 0.746875 0.63163
-1.40744 -0.682945 0.682433 0.754708 0.63163
-1.39749 -0.720939 0.618897 0.746875 0.624667
-1.36983 -0.719113 0.653424 0.754708 0.624667
-1.37713 -0.769249 0.610669 0.746875 0.617704
-1.34365 -0.762217 0.636341 0.754708 0.617704
-1.35265 -0.815703 0.600622 0.746875 0.610741
-1.32337 -0.810704 0.628362 0.754708 0.610741
-1.3252 -0.860511 0.589257 0.746875 0.603778
-1.29385 -0.853763 0.616007 0.754708 0.603778
-1.29656 -0.9045 0.577361 0.746875 0.596815
-1.27275 -0.902583 0.607663 0.754708 0.596815
-1.27034 -0.950194 0.566542 0.746875 0.589852
-1.25138 -0.951851 0.599212 0.754708 0.589852
-1.24079 -0.99337 0.554241 0.746875 0.582889
-1.23399 -1.00501 0.592684 0.754708 0.582889
-1.23361 -1.05547 0.551945 0.746875 0.575926
-1.21356 -1.05669 0.584727 0.754708 0.575926
-0.611673 0.876823 1.47669 0.441167 0.659889
-0.557234 0.873582 1.48161 0.449 0.659889
-0.657946 0.828764 1.48365 0.433333 0.652926
-0.620471 0.824127 1.49793 0.441167 0.652926
-0.571591 0.828764 1.51678 0.449 0.652926
-0.670234 0.780705 1.51332 0.433333 0.645963
-0.62258 0.76393 1.50302 0.441167 0.645963
-0.580264 0.775871 1.53687 0.449 0.645963
-0.670742 0.714543 1.50147 0.433333 0.639
-0.622374 0.703086 1.50252 0.441167 0.639
-0.579144 0.711725 1.53111 0.449 0.639
-0.667793 0.647819 1.48183 0.433333 0.632037
-0.622164 0.644355 1.50201 0.441167 0.632037
-0.579902 0.654961 1.53718 0.449 0.632037
-0.671077 0.593105 1.48992 0.433333 0.625074
-0.620005 0.584767 1.4968 0.441167 0.625074
-0.576016 0.594227 1.53176 0.449 0.625074
-0.668316 0.533704 1.48458 0.433333 0.618111
-0.617521 0.526043 1.4908 0.441167 0.618111
-0.571564 0.532232 1.51893 0.449 0.618111
-0.673687 0.481269 1.4973 0.433333 0.611148
-0.613134 0.467047 1.48021 0.441167 0.611148
-0.571164 0.475304 1.51689 0.449 0.611148
-0.673317 0.424992 1.49725 0.433333 0.604185
-0.612462 0.412043 1.47859 0.441167 0.604185
-0.569939 0.41864 1.51268 0.449 0.604185
-0.717578 0.393946 1.59649 0.433333 0.597222
-0.673946 0.394208 1.62702 0.441167 0.597222
-0.593001 0.378487 1.5729 0.449 0.597222
-0.344035 1.37358 1.1448 0.7245 0.703852
-0.303949 1.37358 1.15278 0.732333 0.703852
-0.402512 1.34147 1.18123 0.716667 0.696889
-0.353443 1.30822 1.15973 0.7245 0.696889
-0.315502 1.31301 1.17178 0.732333 0.696889
-0.412385 1.28286 1.20083 0.716667 0.689926
-0.358791 1.23362 1.16225 0.7245 0.689926
-0.320463 1.23147 1.16772 0.732333 0.689926
-0.396769 1.18897 1.18562 0.716667 0.682963
-0.348777 1.15518 1.15922 0.7245 0.682963
-0.312126 1.15541 1.16676 0.732333 0.682963
-0.380473 1.09669 1.16595 0.716667 0.676
-0.336265 1.0713 1.14599 0.7245 0.676
-0.305116 1.08642 1.16931 0.732333 0.676
-0.378497 1.01806 1.15291 0.716667 0.669037
-0.332283 1.01667 1.16043 0.7245 0.669037
-0.298092 1.01936 1.17048 0.732333 0.669037
-0.390074 0.978172 1.18138 0.716667 0.662074
-0.343111 0.975038 1.18669 0.7245 0.662074
-0.297742 0.97617 1.19717 0.732333 0.662074
-0.399428 0.932805 1.20312 0.716667 0.655111
-0.355412 0.937247 1.21798 0.7245 0.655111
-0.308707 0.934861 1.22399 0.732333 0.655111
-0.419222 0.910576 1.25619 0.716667 0.648148
-0.367122 0.897401 1.24717 0.7245 0.648148
-0.33022 0.922927 1.29206 0.732333 0.648148
-0.579144 0.711725 1.53111 0.675 0.85937
-0.52387 0.705803 1.5284 0.682833 0.85937
-0.579902 0.654961 1.53718 0.675 0.852407
-0.525348 0.649854 1.53515 0.682833 0.852407
-0.576016 0.594227 1.53176 0.675 0.845445
-0.52235 0.592301 1.5371 0.682833 0.845445
-0.571564 0.532232 1.51893 0.675 0.838481
-0.526114 0.540214 1.55246 0.682833 0.838481
-0.571164 0.475304 1.51689 0.675 0.831518
-0.525802 0.482137 1.54935 0.682833 0.831518
-0.569939 0.41864 1.51268 0.675 0.824556
-0.535073 0.432766 1.57448 0.682833 0.824556
-0.593001 0.378487 1.5729 0.675 0.817592
-0.303949 1.37358 1.15278 0.686458 0.852407
-0.262921 1.36868 1.15661 0.694292 0.852407
-0.315502 1.31301 1.17178 0.686458 0.845445
-0.282254 1.34147 1.20515 0.694292 0.845445
-0.320463 1.23147 1.16772 0.686458 0.838481
-0.291711 1.27044 1.21242 0.694292 0.838481
-0.312126 1.15541 1.16676 0.686458 0.831518
-0.290638 1.21931 1.239 0.694292 0.831518
-0.305116 1.08642 1.16931 0.686458 0.824556
-0.275886 1.11332 1.20558 0.694292 0.824556
-0.298092 1.01936 1.17048 0.686458 0.817592
-1.32337 -0.810704 0.628362 0.6625 0.859815
-1.30201 -0.810478 0.659598 0.670333 0.859815
-1.29385 -0.853763 0.616007 0.6625 0.852852
-1.26968 -0.851609 0.645744 0.670333 0.852852
-1.27275 -0.902583 0.607663 0.6625 0.845889
-1.24653 -0.898864 0.636555 0.670333 0.845889
-1.25138 -0.951851 0.599212 0.6625 0.838926
-1.23063 -0.952173 0.631107 0.670333 0.838926
-1.23399 -1.00501 0.592684 0.6625 0.831963
-1.21235 -1.00477 0.624483 0.670333 0.831963
-1.21356 -1.05669 0.584727 0.6625 0.825
-0.288235 1.46673 1.00941 0.736458 0.925037
-0.248201 1.46652 1.01722 0.744292 0.925037
-0.208689 1.46992 1.02755 0.752125 0.925037
-0.168379 1.46796 1.03414 0.759958 0.925037
-0.30377 1.42151 1.04403 0.736458 0.918074
-0.264572 1.42384 1.05364 0.744292 0.918074
-0.225659 1.4288 1.06524 0.752125 0.918074
-0.186264 1.43219 1.0757 0.759958 0.918074
-0.323803 1.39775 1.09418 0.736458 0.911111
-0.283437 1.39525 1.10015 0.744292 0.911111
-0.243813 1.39619 1.10881 0.752125 0.911111
-1.40744 -0.682945 0.682433 0.923958 0.930593
-1.38058 -0.683337 0.724238 0.931792 0.930593
-1.35428 -0.684035 0.766432 0.939625 0.930593
-1.36983 -0.719113 0.653424 0.923958 0.923629
-1.34464 -0.720256 0.695426 0.931792 0.923629
-1.32406 -0.72397 0.740187 0.939625 0.923629
-1.34365 -0.762217 0.636341 0.923958 0.916667
-1.32309 -0.764248 0.674172 0.931792 0.916667
-1.60477 -0.107665 0.664674 0.329167 0.944481
-1.5659 -0.106934 0.702047 0.337 0.944481
-1.56725 -0.1587 0.649134 0.329167 0.937519
-1.54736 -0.159503 0.694068 0.337 0.937519
-1.55208 -0.210861 0.642853 0.329167 0.930556
0.183313 -0.623582 1.69121 0.885958 0.947259
0.130731 -0.679198 1.68768 0.878125 0.940296
0.183021 -0.67919 1.67726 0.885958 0.940296
0.124555 -0.731248 1.66669 0.878125 0.933334
-1.30201 -0.810478 0.659598 0.984375 0.950482
-1.27752 -0.810294 0.695662 0.992208 0.950482
-1.26968 -0.851609 0.645744 0.984375 0.943518
-1.25033 -0.852676 0.677883 0.992208 0.943518
-0.328536 1.46808 1.00237 0.35 0.954185
-0.288235 1.46673 1.00941 0.357833 0.954185
-0.343688 1.42269 1.03701 0.35 0.947222
-0.30377 1.42151 1.04403 0.357833 0.947222
-1.65841 0.0545944 0.573203 0.566167 0.957889
-1.64065 0.054366 0.625172 0.574 0.957889
-1.69197 0 0.522263 0.558333 0.950926
-1.65831 7.52679e-17 0.569441 0.566167 0.950926
-1.65578 7.56451e-17 0.626803 0.574 0.950926
3 72 73 76
3 76 73 77
3 68 69 72
3 72 69 73
3 64 65 68
3 68 65 69
3 60 61 64
3 64 61 65
3 56 57 60
3 60 57 61
3 52 53 56
3 56 53 57
3 48 49 52
3 52 49 53
3 44 45 48
3 48 45 49
3 40 41 44
3 44 41 45
3 36 37 40
3 40 37 41
3 32 33 36
3 36 33 37
3 28 29 32
3 32 29 33
3 24 25 28
3 28 25 29
3 20 21 24
3 24 21 25
3 16 17 20
3 20 17 21
3 12 13 16
3 16 13 17
3 8 9 12
3 12 9 13
3 4 5 8
3 8 5 9
3 80 81 83
3 83 81 84
3 77 78 80
3 80 78 81
3 73 74 77
3 77 74 78
3 69 70 73
3 73 70 74
3 65 66 69
3 69 66 70
3 61 62 65
3 65 62 66
3 57 58 61
3 61 58 62
3 53 54 57
3 57 54 58
3 49 50 53
3 53 50 54
3 45 46 49
3 49 46 50
3 41 42 45
3 45 42 46
3 37 38 41
3 41 38 42
3 33 34 37
3 37 34 38
3 29 30 33
3 33 30 34
3 25 26 29
3 29 26 30
3 21 22 25
3 25 22 26
3 17 18 21
3 21 18 22
3 13 14 17
3 17 14 18
3 84 85 86
3 86 85 87
3 81 82 84
3 84 82 85
3 78 79 81
3 81 79 82
3 74 75 78
3 78 75 79
3 70 71 74
3 74 71 75
3 66 67 70
3 70 67 71
3 62 63 66
3 66 63 67
3 58 59 62
3 62 59 63
3 54 55 58
3 58 55 59
3 50 51 54
3 54 51 55
3 46 47 50
3 50 47 51
3 42 43 46
3 46 43 47
3 38 39 42
3 42 39 43
3 34 35 38
3 38 35 39
3 30 31 34
3 34 31 35
3 26 27 30
3 30 27 31
3 22 23 26
3 26 23 27
3 18 19 22
3 22 19 23
3 14 15 18
3 18 15 19
3 10 11 14
3 14 11 15
3 6 7 10
3 10 7 11
3 2 3 6
3 6 3 7
3 1 2 5
3 5 2 6
3 5 6 9
3 9 6 10
3 9 10 13
3 13 10 14
3 0 1 4
3 4 1 5
3 115 116 117
3 117 116 118
3 115 114 116
3 113 112 114
3 111 110 112
3 109 110 111
3 107 108 109
3 109 108 110
3 105 106 107
3 107 106 108
3 103 104 105
3 105 104 106
3 101 102 103
3 103 102 104
3 99 100 101
3 101 100 102
3 97 98 99
3 99 98 100
3 95 96 97
3 97 96 98
3 93 94 95
3 95 94 96
3 91 92 93
3 93 92 94
3 89 90 91
3 91 90 92
3 89 88 90
3 147 148 149
3 145 146 147
3 147 146 148
3 143 144 145
3 145 144 146
3 141 142 143
3 143 142 144
3 139 140 141
3 141 140 142
3 137 138 139
3 139 138 140
3 135 136 137
3 137 136 138
3 133 134 135
3 135 134 136
3 131 132 133
3 133 132 134
3 129 130 131
3 131 130 132
3 127 128 129
3 129 128 130
3 125 126 127
3 127 126 128
3 123 124 125
3 125 124 126
3 121 122 123
3 123 122 124
3 119 120 121
3 121 120 122
3 174 175 176
3 172 173 174
3 174 173 175
3 170 171 172
3 172 171 173
3 168 169 170
3 170 169 171
3 166 167 168
3 168 167 169
3 164 165 166
3 166 165 167
3 162 163 164
3 164 163 165
3 160 161 162
3 162 161 163
3 158 159 160
3 160 159 161
3 156 157 158
3 158 157 159
3 154 155 156
3 156 155 157
3 152 153 154
3 154 153 155
3 150 151 152
3 152 151 153
3 198 197 199
3 196 195 197
3 194 195 196
3 192 193 194
3 194 193 195
3 190 191 192
3 192 191 193
3 188 189 190
3 190 189 191
3 186 187 188
3 188 187 189
3 184 185 186
3 186 185 187
3 182 183 184
3 184 183 185
3 180 181 182
3 182 181 183
3 178 179 180
3 180 179 181
3 178 177 179
3 218 219 220
3 220 219 221
3 216 217 218
3 218 217 219
3 214 215 216
3 216 215 217
3 212 213 214
3 214 213 215
3 210 211 212
3 212 211 213
3 208 209 210
3 210 209 211
3 206 207 208
3 208 207 209
3 204 205 206
3 206 205 207
3 202 203 204
3 204 203 205
3 200 201 202
3 202 201 203
3 246 247 249
3 249 247 250
3 243 244 246
3 246 244 247
3 240 241 243
3 243 241 244
3 237 238 240
3 240 238 241
3 234 235 237
3 237 235 238
3 231 232 234
3 234 232 235
3 228 229 231
3 231 229 232
3 225 226 228
3 228 226 229
3 245 246 248
3 248 246 249
3 242 243 245
3 245 243 246
3 239 240 242
3 242 240 243
3 236 237 239
3 239 237 240
3 233 234 236
3 236 234 237
3 230 231 233
3 233 231 234
3 227 228 230
3 230 228 231
3 224 225 227
3 227 225 228
3 224 222 225
3 222 223 225
3 225 223 226
3 272 273 275
3 275 273 276
3 269 270 272
3 272 270 273
3 266 267 269
3 269 267 270
3 263 264 266
3 266 264 267
3 260 261 263
3 263 261 264
3 257 258 260
3 260 258 261
3 254 255 257
3 257 255 258
3 271 272 274
3 274 272 275
3 268 269 271
3 271 269 272
3 265 266 268
3 268 266 269
3 262 263 265
3 265 263 266
3 259 260 262
3 262 260 263
3 256 257 259
3 259 257 260
3 253 254 256
3 256 254 257
3 253 251 254
3 251 252 254
3 254 252 255
3 287 288 289
3 285 286 287
3 287 286 288
3 283 284 285
3 285 284 286
3 281 282 283
3 283 282 284
3 279 280 281
3 281 280 282
3 277 278 279
3 279 278 280
3 298 299 300
3 296 297 298
3 298 297 299
3 294 295 296
3 296 295 297
3 292 293 294
3 294 293 295
3 290 291 292
3 292 291 293
3 309 310 311
3 307 308 309
3 309 308 310
3 305 306 307
3 307 306 308
3 303 304 305
3 305 304 306
3 301 302 303
3 303 302 304
3 318 319 322
3 314 315 318
3 318 315 319
3 317 318 321
3 321 318 322
3 313 314 317
3 317 314 318
3 316 317 320
3 320 317 321
3 312 313 316
3 316 313 317
3 327 328 330
3 324 325 327
3 327 325 328
3 326 327 329
3 329 327 330
3 323 324 326
3 326 324 327
3 333 334 335
3 331 332 333
3 333 332 334
3 337 338 339
3 337 336 338
3 340 341 342
3 342 341 343
3 344 345 346
3 346 345 347
3 350 348 351
3 348 349 351
3 351 349 352
