ply
format ascii 1.0
element vertex 63
property float x
property float y
property float z
property float s
property float t
element face 59
property list uchar int vertex_indices
end_header
-0.99081 -0.308324 0.336218 0.421875 0.659889
-0.981972 -0.30769 0.369715 0.429708 0.659889
-0.987163 -0.343504 0.334508 0.421875 0.652926
-0.972805 -0.340868 0.366027 0.429708 0.652926
-0.985964 -0.379925 0.335028 0.421875 0.645963
-0.963795 -0.373889 0.3624 0.429708 0.645963
-0.980167 -0.414919 0.335395 0.421875 0.639
-0.956166 -0.4074 0.360684 0.429708 0.639
-0.966025 -0.446099 0.33108 0.421875 0.632037
-0.947303 -0.440345 0.358289 0.429708 0.632037
-0.943718 -0.473234 0.322149 0.421875 0.625074
-0.93214 -0.470577 0.35191 0.429708 0.625074
-0.925898 -0.502454 0.314756 0.421875 0.618111
-0.913844 -0.499319 0.344347 0.429708 0.618111
-0.907365 -0.531271 0.307121 0.421875 0.611148
-0.893861 -0.527031 0.33615 0.429708 0.611148
-0.88691 -0.558828 0.29884 0.421875 0.604185
-0.877503 -0.556853 0.329317 0.429708 0.604185
-0.870088 -0.588613 0.291785 0.421875 0.597222
-0.86228 -0.587587 0.322907 0.429708 0.597222
-0.996734 -0.308049 0.30169 0.16875 0.783926
-0.99081 -0.308324 0.336218 0.176583 0.783926
-0.996341 -0.344405 0.302256 0.16875 0.776963
-0.987163 -0.343504 0.334508 0.176583 0.776963
-0.989771 -0.378953 0.302342 0.16875 0.77
-0.985964 -0.379925 0.335028 0.176583 0.77
-0.991281 -0.41692 0.304914 0.16875 0.763037
-0.980167 -0.414919 0.335395 0.176583 0.763037
-0.979018 -0.449149 0.301236 0.16875 0.756074
-0.966025 -0.446099 0.33108 0.176583 0.756074
-0.947264 -0.471855 0.289555 0.16875 0.749111
-0.943718 -0.473234 0.322149 0.176583 0.749111
-0.927248 -0.499777 0.281495 0.16875 0.742148
-0.925898 -0.502454 0.314756 0.176583 0.742148
-0.910293 -0.529303 0.274366 0.16875 0.735185
-0.907365 -0.531271 0.307121 0.176583 0.735185
-1.01331 -0.309189 0.238021 0.609375 0.828815
-1.00191 -0.307629 0.268399 0.617208 0.828815
-0.996734 -0.308049 0.30169 0.625042 0.828815
-1.01828 -0.347573 0.240812 0.609375 0.821852
-1.00441 -0.345001 0.270905 0.617208 0.821852
-0.996341 -0.344405 0.302256 0.625042 0.821852
-1.00753 -0.38088 0.239899 0.609375 0.814889
-0.984352 -0.374483 0.267322 0.617208 0.814889
-0.989771 -0.378953 0.302342 0.625042 0.814889
-0.983376 -0.408335 0.235759 0.609375 0.807926
-0.969328 -0.405078 0.265066 0.617208 0.807926
-0.991281 -0.41692 0.304914 0.625042 0.807926
-0.960914 -0.435166 0.22964 0.609375 0.800963
-0.963694 -0.439254 0.263198 0.617208 0.800963
-0.979018 -0.449149 0.301236 0.625042 0.800963
-0.949477 -0.466751 0.223798 0.609375 0.794
-0.941593 -0.465932 0.254663 0.617208 0.794
-0.947264 -0.471855 0.289555 0.625042 0.794
-0.928991 -0.494023 0.215813 0.609375 0.787037
-0.927005 -0.496284 0.248164 0.617208 0.787037
-0.956166 -0.4074 0.360684 0.879167 0.913481
-0.957628 -0.410813 0.396636 0.887 0.913481
-0.947303 -0.440345 0.358289 0.879167 0.906519
-0.946172 -0.442746 0.391893 0.887 0.906519
-0.93214 -0.470577 0.35191 0.879167 0.899555
-0.928543 -0.47194 0.384591 0.887 0.899555
-0.913844 -0.499319 0.344347 0.879167 0.892593
3 16 17 18
3 18 17 19
3 14 15 16
3 16 15 17
3 12 13 14
3 14 13 15
3 10 11 12
3 12 11 13
3 8 9 10
3 10 9 11
3 6 7 8
3 8 7 9
3 4 5 6
3 6 5 7
3 2 3 4
3 4 3 5
3 0 1 2
3 2 1 3
3 34 33 35
3 32 31 33
3 30 31 32
3 28 29 30
3 30 29 31
3 26 27 28
3 28 27 29
3 24 25 26
3 26 25 27
3 22 23 24
3 24 23 25
3 20 21 22
3 22 21 23
3 52 53 55
3 49 50 52
3 52 50 53
3 46 47 49
3 49 47 50
3 43 44 46
3 46 44 47
3 40 41 43
3 43 41 44
3 37 38 40
3 40 38 41
3 51 52 54
3 54 52 55
3 48 49 51
3 51 49 52
3 45 46 48
3 48 46 49
3 42 43 45
3 45 43 46
3 39 40 42
3 42 40 43
3 36 37 39
3 39 37 40
3 60 61 62
3 58 59 60
3 60 59 61
3 56 57 58
3 58 57 59
